<svg width="16" height="18" viewBox="0 0 16 18" fill="none" xmlns="http://www.w3.org/2000/svg">
<path d="M0 9C0 6.15625 1.5 3.53125 4 2.09375C6.46875 0.65625 9.5 0.65625 12 2.09375C14.4688 3.53125 16 6.15625 16 9C16 11.875 14.4688 14.5 12 15.9375C9.5 17.375 6.46875 17.375 4 15.9375C1.5 14.5 0 11.875 0 9ZM7.53125 12.7812L10.7812 9.53125C11.0625 9.25 11.0625 8.78125 10.7812 8.46875L7.53125 5.25C7.21875 4.9375 6.75 4.9375 6.46875 5.25C6.15625 5.53125 6.15625 6 6.46875 6.3125L9.1875 9.03125L6.46875 11.75C6.15625 12.0312 6.15625 12.5 6.46875 12.7812C6.75 13.0938 7.21875 13.0938 7.53125 12.7812Z" fill="white"/>
</svg>
