<svg width="13" height="12" viewBox="0 0 13 12" fill="none" xmlns="http://www.w3.org/2000/svg">
<path d="M12.5 1.875C12.5 2.29688 12.1648 2.68594 11.6 3C10.918 3.37734 9.90078 3.64453 8.73359 3.72422C8.64687 3.68203 8.56016 3.64219 8.46875 3.60703C7.54531 3.22031 6.31719 3 5 3C4.80547 3 4.61562 3.00469 4.42578 3.01406L4.4 3C3.83516 2.68594 3.5 2.29688 3.5 1.875C3.5 0.839062 5.51562 0 8 0C10.4844 0 12.5 0.839062 12.5 1.875ZM4.26641 3.77578C4.50547 3.75938 4.75156 3.75 5 3.75C6.45781 3.75 7.75156 4.03828 8.57422 4.48594C9.15547 4.80234 9.5 5.19609 9.5 5.625C9.5 5.71875 9.48359 5.81016 9.45078 5.89922C9.34297 6.20859 9.05234 6.49219 8.63047 6.73125C8.62813 6.73359 8.62344 6.73359 8.62109 6.73594C8.61406 6.74062 8.60703 6.74297 8.6 6.74766C7.77969 7.20234 6.47188 7.49766 5 7.49766C3.60313 7.49766 2.35391 7.23281 1.52656 6.81562C1.48203 6.79453 1.43984 6.77109 1.39766 6.74766C0.835156 6.43594 0.5 6.04688 0.5 5.625C0.5 4.80937 1.75156 4.11328 3.5 3.85781C3.74609 3.82266 4.00156 3.79453 4.26641 3.77578ZM10.25 5.625C10.25 5.11172 10.0016 4.68984 9.68516 4.37344C10.3484 4.27031 10.9555 4.10625 11.4711 3.89297C11.8531 3.73359 12.2094 3.53672 12.5 3.29531V4.125C12.5 4.57734 12.1133 4.99453 11.4734 5.31797C11.1313 5.49141 10.7141 5.63906 10.2453 5.75156C10.2477 5.70937 10.25 5.66953 10.25 5.62734V5.625ZM9.5 7.875C9.5 8.29688 9.16484 8.68594 8.6 9C8.55781 9.02344 8.51562 9.04453 8.47109 9.06797C7.64609 9.48516 6.39687 9.75 5 9.75C3.52813 9.75 2.22031 9.45469 1.4 9C0.835156 8.68594 0.5 8.29688 0.5 7.875V7.04531C0.792969 7.28672 1.14688 7.48359 1.52891 7.64297C2.45469 8.02969 3.68281 8.25 5 8.25C6.31719 8.25 7.54531 8.02969 8.47109 7.64297C8.65391 7.56797 8.82969 7.48125 8.99609 7.3875C9.13906 7.30781 9.27266 7.21875 9.39922 7.125C9.43438 7.09922 9.46719 7.07109 9.5 7.04531V7.125V7.25859V7.875ZM10.25 7.875V7.125V6.51797C10.6953 6.41953 11.1055 6.29531 11.4711 6.14297C11.8531 5.98359 12.2094 5.78672 12.5 5.54531V6.375C12.5 6.62109 12.3828 6.86719 12.1508 7.09922C11.7688 7.48125 11.0961 7.79531 10.2453 7.99922C10.2477 7.95937 10.25 7.91719 10.25 7.875ZM5 10.5C6.31719 10.5 7.54531 10.2797 8.47109 9.89297C8.85313 9.73359 9.20938 9.53672 9.5 9.29531V10.125C9.5 11.1609 7.48438 12 5 12C2.51562 12 0.5 11.1609 0.5 10.125V9.29531C0.792969 9.53672 1.14688 9.73359 1.52891 9.89297C2.45469 10.2797 3.68281 10.5 5 10.5Z" fill="white"/>
</svg>
