<svg width="16" height="16" viewBox="0 0 16 16" fill="none" xmlns="http://www.w3.org/2000/svg">
<path d="M15.06 3.05947C15.6459 2.47354 15.6459 1.52197 15.06 0.936035C14.474 0.350098 13.5225 0.350098 12.9365 0.936035L8.00059 5.87666L3.05996 0.940723C2.47402 0.354785 1.52246 0.354785 0.936523 0.940723C0.350586 1.52666 0.350586 2.47822 0.936523 3.06416L5.87715 8.0001L0.941211 12.9407C0.355274 13.5267 0.355274 14.4782 0.941211 15.0642C1.52715 15.6501 2.47871 15.6501 3.06465 15.0642L8.00059 10.1235L12.9412 15.0595C13.5271 15.6454 14.4787 15.6454 15.0646 15.0595C15.6506 14.4735 15.6506 13.522 15.0646 12.936L10.124 8.0001L15.06 3.05947Z" fill="#7A7A7A"/>
</svg>
