<svg width="10" height="12" viewBox="0 0 10 12" fill="none" xmlns="http://www.w3.org/2000/svg">
<path d="M8.18906 1.04531C8.32734 0.724217 8.22421 0.349217 7.94062 0.142967C7.65703 -0.0632828 7.27031 -0.0445328 7.00546 0.185155L1.00546 5.43515C0.771089 5.6414 0.686714 5.97187 0.79687 6.2625C0.907026 6.55312 1.18828 6.75 1.49999 6.75H4.11328L2.31093 10.9547C2.17265 11.2758 2.27578 11.6508 2.55937 11.857C2.84296 12.0633 3.22968 12.0445 3.49453 11.8148L9.49453 6.56484C9.7289 6.35859 9.81328 6.02812 9.70312 5.7375C9.59296 5.44687 9.31406 5.25234 8.99999 5.25234H6.38671L8.18906 1.04531Z" fill="#141414"/>
</svg>
