<svg width="14" height="12" viewBox="0 0 14 12" fill="none" xmlns="http://www.w3.org/2000/svg">
<path d="M13.662 5.91435C13.662 6.33102 13.3148 6.65741 12.9213 6.65741H12.1805L12.1967 10.3657C12.1967 10.4282 12.1921 10.4907 12.1852 10.5532V10.9259C12.1852 11.4375 11.7708 11.8519 11.2592 11.8519H10.8889C10.8634 11.8519 10.8379 11.8519 10.8125 11.8495C10.7801 11.8519 10.7477 11.8519 10.7153 11.8519H9.96294H9.40739C8.89581 11.8519 8.48146 11.4375 8.48146 10.9259V10.3704V8.88889C8.48146 8.47917 8.15044 8.14815 7.74072 8.14815H6.25924C5.84952 8.14815 5.5185 8.47917 5.5185 8.88889V10.3704V10.9259C5.5185 11.4375 5.10415 11.8519 4.59257 11.8519H4.03702H3.29859C3.26387 11.8519 3.22915 11.8495 3.19442 11.8472C3.16665 11.8495 3.13887 11.8519 3.11109 11.8519H2.74072C2.22915 11.8519 1.81479 11.4375 1.81479 10.9259V8.33333C1.81479 8.3125 1.81479 8.28935 1.81711 8.26852V6.65741H1.07405C0.657387 6.65741 0.333313 6.33333 0.333313 5.91435C0.333313 5.70602 0.402757 5.52083 0.564794 5.3588L6.49998 0.185185C6.66202 0.0231481 6.8472 0 7.00924 0C7.17128 0 7.35646 0.0462963 7.49535 0.162037L13.4074 5.3588C13.5926 5.52083 13.6852 5.70602 13.662 5.91435Z" fill="white"/>
</svg>
