<svg width="16" height="14" viewBox="0 0 16 14" fill="none" xmlns="http://www.w3.org/2000/svg">
<path d="M12.0833 4.25004C11.7917 4.08337 11.4167 4.08337 11.0833 4.25004L8.75 5.62504L7.16667 6.50004L4.875 7.87504C4.58333 8.04171 4.20833 8.04171 3.875 7.87504L2.08333 6.79171C1.79167 6.62504 1.58333 6.29171 1.58333 5.91671V3.83337C1.58333 3.50004 1.75 3.16671 2.08333 2.95837L3.875 1.91671C4.16667 1.75004 4.54167 1.75004 4.875 1.91671L6.66667 3.00004C6.95833 3.16671 7.16667 3.50004 7.16667 3.87504V5.25004L8.75 4.33337V2.91671C8.75 2.58337 8.58333 2.25004 8.25 2.04171L4.91667 0.083374C4.625 -0.0832926 4.25 -0.0832926 3.91667 0.083374L0.5 2.08337C0.166667 2.25004 0 2.58337 0 2.91671V6.83337C0 7.16671 0.166667 7.50004 0.5 7.70837L3.875 9.66671C4.16667 9.83337 4.54167 9.83337 4.875 9.66671L7.16667 8.33337L8.75 7.41671L11.0417 6.08337C11.3333 5.91671 11.7083 5.91671 12.0417 6.08337L13.8333 7.12504C14.125 7.29171 14.3333 7.62504 14.3333 8.00004V10.0834C14.3333 10.4167 14.1667 10.75 13.8333 10.9584L12.0833 12C11.7917 12.1667 11.4167 12.1667 11.0833 12L9.29167 10.9584C9 10.7917 8.79167 10.4584 8.79167 10.0834V8.75004L7.20833 9.66671V11.0417C7.20833 11.375 7.375 11.7084 7.70833 11.9167L11.0833 13.875C11.375 14.0417 11.75 14.0417 12.0833 13.875L15.4583 11.9167C15.75 11.75 15.9583 11.4167 15.9583 11.0417V7.08337C15.9583 6.75004 15.7917 6.41671 15.4583 6.20837L12.0833 4.25004Z" fill="#8247E5"/>
</svg>
