<svg width="12" height="12" viewBox="0 0 12 12" fill="none" xmlns="http://www.w3.org/2000/svg">
<path d="M10.8633 5.24998H11.0625C11.3742 5.24998 11.625 4.9992 11.625 4.68748V1.68748C11.625 1.46014 11.4891 1.25389 11.2781 1.16717C11.0672 1.08045 10.8258 1.12733 10.6641 1.28905L9.68906 2.26405C7.63594 0.236704 4.3289 0.243735 2.2875 2.28748C0.236717 4.33827 0.236717 7.6617 2.2875 9.71248C4.33828 11.7633 7.66172 11.7633 9.7125 9.71248C10.0055 9.41952 10.0055 8.94373 9.7125 8.65077C9.41953 8.3578 8.94375 8.3578 8.65078 8.65077C7.18594 10.1156 4.81172 10.1156 3.34687 8.65077C1.88203 7.18592 1.88203 4.8117 3.34687 3.34686C4.80469 1.88905 7.16015 1.88202 8.62734 3.32342L7.66406 4.28905C7.50234 4.45077 7.45547 4.69217 7.54219 4.90311C7.6289 5.11405 7.83515 5.24998 8.0625 5.24998H10.8633Z" fill="white"/>
</svg>
