<svg width="12" height="12" viewBox="0 0 12 12" fill="none" xmlns="http://www.w3.org/2000/svg">
<path d="M11.6227 3.90469C11.6977 4.10859 11.6344 4.33594 11.4727 4.48125L10.4578 5.40469C10.4836 5.59922 10.4977 5.79844 10.4977 6C10.4977 6.20156 10.4836 6.40078 10.4578 6.59531L11.4727 7.51875C11.6344 7.66406 11.6977 7.89141 11.6227 8.09531C11.5195 8.37422 11.3953 8.64141 11.2524 8.89922L11.1422 9.08906C10.9875 9.34687 10.8141 9.59062 10.6242 9.82031C10.486 9.98906 10.2563 10.0453 10.05 9.97969L8.74454 9.56484C8.43048 9.80625 8.08361 10.0078 7.71329 10.1602L7.42033 11.4984C7.37345 11.7117 7.20939 11.8805 6.99376 11.9156C6.67033 11.9695 6.33751 11.9977 5.99767 11.9977C5.65782 11.9977 5.32501 11.9695 5.00157 11.9156C4.78595 11.8805 4.62189 11.7117 4.57501 11.4984L4.28204 10.1602C3.91173 10.0078 3.56486 9.80625 3.25079 9.56484L1.94767 9.98203C1.74142 10.0477 1.51173 9.98906 1.37345 9.82266C1.18361 9.59297 1.01017 9.34922 0.855481 9.09141L0.745325 8.90156C0.602356 8.64375 0.478137 8.37656 0.375012 8.09766C0.300012 7.89375 0.363293 7.66641 0.525012 7.52109L1.53986 6.59766C1.51407 6.40078 1.50001 6.20156 1.50001 6C1.50001 5.79844 1.51407 5.59922 1.53986 5.40469L0.525012 4.48125C0.363293 4.33594 0.300012 4.10859 0.375012 3.90469C0.478137 3.62578 0.602356 3.35859 0.745325 3.10078L0.855481 2.91094C1.01017 2.65312 1.18361 2.40937 1.37345 2.17969C1.51173 2.01094 1.74142 1.95469 1.94767 2.02031L3.25314 2.43516C3.5672 2.19375 3.91407 1.99219 4.28439 1.83984L4.57736 0.501562C4.62423 0.288281 4.78829 0.119531 5.00392 0.084375C5.32736 0.028125 5.66017 0 6.00001 0C6.33986 0 6.67267 0.028125 6.99611 0.0820312C7.21173 0.117188 7.37579 0.285937 7.42267 0.499219L7.71564 1.8375C8.08595 1.98984 8.43283 2.19141 8.74689 2.43281L10.0524 2.01797C10.2586 1.95234 10.4883 2.01094 10.6266 2.17734C10.8164 2.40703 10.9899 2.65078 11.1445 2.90859L11.2547 3.09844C11.3977 3.35625 11.5219 3.62344 11.625 3.90234L11.6227 3.90469ZM6.00001 7.875C6.49729 7.875 6.97421 7.67746 7.32584 7.32583C7.67747 6.97419 7.87501 6.49728 7.87501 6C7.87501 5.50272 7.67747 5.02581 7.32584 4.67417C6.97421 4.32254 6.49729 4.125 6.00001 4.125C5.50273 4.125 5.02582 4.32254 4.67419 4.67417C4.32256 5.02581 4.12501 5.50272 4.12501 6C4.12501 6.49728 4.32256 6.97419 4.67419 7.32583C5.02582 7.67746 5.50273 7.875 6.00001 7.875Z" fill="white"/>
</svg>
