<svg width="18" height="17" viewBox="0 0 18 17" fill="none" xmlns="http://www.w3.org/2000/svg">
<path d="M9.87488 0.5625L11.9061 4.71875L16.3749 5.375C16.7499 5.4375 17.0624 5.6875 17.1874 6.0625C17.3124 6.40625 17.2186 6.8125 16.9374 7.0625L13.6874 10.2812L14.4686 14.8438C14.5311 15.2188 14.3749 15.5938 14.0624 15.8125C13.7499 16.0625 13.3436 16.0625 12.9999 15.9062L8.99988 13.75L4.96863 15.9062C4.65613 16.0625 4.24988 16.0625 3.93738 15.8125C3.62488 15.5938 3.46863 15.2188 3.53113 14.8438L4.28113 10.2812L1.03113 7.0625C0.781128 6.8125 0.687378 6.40625 0.781128 6.0625C0.906128 5.6875 1.21863 5.4375 1.59363 5.375L6.09363 4.71875L8.09363 0.5625C8.24988 0.21875 8.59363 0 8.99988 0C9.37488 0 9.71863 0.21875 9.87488 0.5625Z" fill="#D449F2"/>
</svg>
