<svg width="11" height="12" viewBox="0 0 11 12" fill="none" xmlns="http://www.w3.org/2000/svg">
<path d="M2.25 0C1.00781 0 0 1.00781 0 2.25V9.75C0 10.9922 1.00781 12 2.25 12H9H9.75C10.1648 12 10.5 11.6648 10.5 11.25C10.5 10.8352 10.1648 10.5 9.75 10.5V9C10.1648 9 10.5 8.66484 10.5 8.25V0.75C10.5 0.335156 10.1648 0 9.75 0H9H2.25ZM2.25 9H8.25V10.5H2.25C1.83516 10.5 1.5 10.1648 1.5 9.75C1.5 9.33516 1.83516 9 2.25 9ZM3 3.375C3 3.16875 3.16875 3 3.375 3H7.875C8.08125 3 8.25 3.16875 8.25 3.375C8.25 3.58125 8.08125 3.75 7.875 3.75H3.375C3.16875 3.75 3 3.58125 3 3.375ZM3.375 4.5H7.875C8.08125 4.5 8.25 4.66875 8.25 4.875C8.25 5.08125 8.08125 5.25 7.875 5.25H3.375C3.16875 5.25 3 5.08125 3 4.875C3 4.66875 3.16875 4.5 3.375 4.5Z" fill="white"/>
</svg>
