<svg width="25" height="24" viewBox="0 0 25 24" fill="none" xmlns="http://www.w3.org/2000/svg">
<g clip-path="url(#clip0_213_124)">
<path d="M11.0012 23.8799C5.3012 22.8599 0.981201 17.9399 0.981201 11.9999C0.981201 5.39988 6.3812 -0.00012207 12.9812 -0.00012207C19.5812 -0.00012207 24.9812 5.39988 24.9812 11.9999C24.9812 17.9399 20.6612 22.8599 14.9612 23.8799L14.3012 23.3399H11.6612L11.0012 23.8799Z" fill="#212121"/>
<path d="M17.6615 15.3598L18.2015 11.9998H15.0215V9.65981C15.0215 8.69981 15.3815 7.97981 16.8215 7.97981H18.3815V4.91981C17.5415 4.79981 16.5815 4.67981 15.7415 4.67981C12.9815 4.67981 11.0615 6.35981 11.0615 9.35981V11.9998H8.06152V15.3598H11.0615V23.8198C11.7215 23.9398 12.3815 23.9998 13.0415 23.9998C13.7015 23.9998 14.3615 23.9398 15.0215 23.8198V15.3598H17.6615Z" fill="white"/>
</g>
<defs>
<clipPath id="clip0_213_124">
<rect width="24" height="24" fill="white" transform="translate(0.981689 -0.00012207)"/>
</clipPath>
</defs>
</svg>
