<svg width="26" height="24" viewBox="0 0 26 24" fill="none" xmlns="http://www.w3.org/2000/svg">
<path fill-rule="evenodd" clip-rule="evenodd" d="M12.8202 -0.00012207C6.06644 -0.00012207 0.606689 5.49988 0.606689 12.3041C0.606689 17.7431 4.10494 22.3471 8.95794 23.9766C9.56469 24.0991 9.78694 23.7119 9.78694 23.3861C9.78694 23.1009 9.76694 22.1231 9.76694 21.1044C6.36944 21.8379 5.66194 19.6376 5.66194 19.6376C5.11594 18.2116 4.30694 17.8451 4.30694 17.8451C3.19494 17.0914 4.38794 17.0914 4.38794 17.0914C5.62144 17.1729 6.26869 18.3544 6.26869 18.3544C7.36044 20.2284 9.11969 19.6989 9.82744 19.3729C9.92844 18.5784 10.2522 18.0284 10.5959 17.7229C7.88619 17.4376 5.03519 16.3784 5.03519 11.6521C5.03519 10.3076 5.52019 9.20763 6.28869 8.35213C6.16744 8.04663 5.74269 6.78338 6.41019 5.09263C6.41019 5.09263 7.44144 4.76663 9.76669 6.35563C10.7622 6.08629 11.7889 5.94928 12.8202 5.94813C13.8514 5.94813 14.9027 6.09088 15.8734 6.35563C18.1989 4.76663 19.2302 5.09263 19.2302 5.09263C19.8977 6.78338 19.4727 8.04663 19.3514 8.35213C20.1402 9.20763 20.6052 10.3076 20.6052 11.6521C20.6052 16.3784 17.7542 17.4171 15.0242 17.7229C15.4692 18.1099 15.8532 18.8431 15.8532 20.0044C15.8532 21.6544 15.8332 22.9786 15.8332 23.3859C15.8332 23.7119 16.0557 24.0991 16.6622 23.9769C21.5152 22.3469 25.0134 17.7431 25.0134 12.3041C25.0334 5.49988 19.5537 -0.00012207 12.8202 -0.00012207Z" fill="white"/>
</svg>
