<svg viewBox="0 0 737 508" fill="none" xmlns="http://www.w3.org/2000/svg">
<g id="s3-grid-right">
<mask id="mask0_224_911" style="mask-type:alpha" maskUnits="userSpaceOnUse" x="0" y="1" width="737" height="507">
<rect id="Rectangle 6" y="1" width="737" height="507" fill="#D9D9D9"/>
</mask>
<g mask="url(#mask0_224_911)">
<path id="s3-grid" d="M35.2112 -507V508M77.4646 -507V508M119.718 -507V508M161.971 -507V508M204.225 -507V508M246.478 -507V508M288.732 -507V508M330.985 -507V508M373.238 -507V508M415.492 -507V508M457.745 -507V508M499.998 -507V508M542.252 -507V508M584.505 -507V508M626.759 -507V508M669.012 -507V508M711.265 -507V508M753.519 -507V508M795.772 -507V508M838.026 -507V508M880.279 -507V508M922.532 -507V508M964.786 -507V508M1007.04 -507V508M1049.29 -507V508M1091.55 -507V508M1133.8 -507V508M1176.05 -507V508M1218.31 -507V508M1260.56 -507V508M1302.81 -507V508M1345.07 -507V508M1387.32 -507V508M1429.57 -507V508M1473 -464.171L4.0633e-05 -464.171M1473 -421.928L3.8786e-05 -421.928M1473 -379.685L3.69391e-05 -379.685M1473 -337.442L3.50921e-05 -337.442M1473 -295.199L3.32452e-05 -295.199M1473 -252.957L3.13982e-05 -252.957M1473 -210.714L2.95513e-05 -210.714M1473 -168.471L2.77043e-05 -168.471M1473 -126.228L2.58574e-05 -126.228M1473 -83.9855L2.40104e-05 -83.9856M1473 -41.7428L2.21635e-05 -41.7428M1473 0.500005L2.03165e-05 0.499933M1473 42.7428L1.84695e-05 42.7427M1473 84.9856L1.66226e-05 84.9855M1473 127.228L1.47756e-05 127.228M1473 169.471L1.29287e-05 169.471M1473 211.714L1.10817e-05 211.714M1473 253.957L9.23477e-06 253.957M1473 296.199L7.38782e-06 296.199M1473 338.442L5.54086e-06 338.442M1473 380.685L3.69391e-06 380.685M1473 422.928L1.84695e-06 422.928M1473 465.171L0 465.17" stroke="url(#paint0_radial_224_911)" stroke-opacity="0.08"/>
</g>
</g>
<defs>
<radialGradient id="paint0_radial_224_911" cx="0" cy="0" r="1" gradientUnits="userSpaceOnUse" gradientTransform="translate(152 256) scale(276.5 276.5)">
<stop stop-color="#00FFF0"/>
<stop offset="1" stop-color="#00FFF0" stop-opacity="0"/>
</radialGradient>
</defs>
</svg>
