<svg viewBox="0 0 737 508" fill="none" xmlns="http://www.w3.org/2000/svg">
<g id="s3-grid-left">
<mask id="mask0_224_910" style="mask-type:alpha" maskUnits="userSpaceOnUse" x="0" y="0" width="737" height="508">
<rect id="Rectangle 6" width="737" height="508" fill="#D9D9D9"/>
</mask>
<g mask="url(#mask0_224_910)">
<path id="s3-grid" d="M-700.789 -507V508M-658.535 -507V508M-616.282 -507V508M-574.029 -507V508M-531.775 -507V508M-489.522 -507V508M-447.268 -507V508M-405.015 -507V508M-362.762 -507V508M-320.508 -507V508M-278.255 -507V508M-236.002 -507V508M-193.748 -507V508M-151.495 -507V508M-109.241 -507V508M-66.988 -507V508M-24.7346 -507V508M17.5188 -507V508M59.7722 -507V508M102.026 -507V508M144.279 -507V508M186.532 -507V508M228.786 -507V508M271.039 -507V508M313.293 -507V508M355.546 -507V508M397.799 -507V508M440.053 -507V508M482.306 -507V508M524.559 -507V508M566.813 -507V508M609.066 -507V508M651.32 -507V508M693.573 -507V508M737 -464.171L-736 -464.171M737 -421.928L-736 -421.928M737 -379.685L-736 -379.685M737 -337.442L-736 -337.442M737 -295.199L-736 -295.199M737 -252.957L-736 -252.957M737 -210.714L-736 -210.714M737 -168.471L-736 -168.471M737 -126.228L-736 -126.228M737 -83.9855L-736 -83.9856M737 -41.7428L-736 -41.7428M737 0.500005L-736 0.499933M737 42.7428L-736 42.7427M737 84.9856L-736 84.9855M737 127.228L-736 127.228M737 169.471L-736 169.471M737 211.714L-736 211.714M737 253.957L-736 253.957M737 296.199L-736 296.199M737 338.442L-736 338.442M737 380.685L-736 380.685M737 422.928L-736 422.928M737 465.171L-736 465.17" stroke="url(#paint0_radial_224_910)" stroke-opacity="0.08"/>
</g>
</g>
<defs>
<radialGradient id="paint0_radial_224_910" cx="0" cy="0" r="1" gradientUnits="userSpaceOnUse" gradientTransform="translate(578 439) rotate(-90) scale(341.5 341.5)">
<stop stop-color="#00FFF0"/>
<stop offset="1" stop-color="#00FFF0" stop-opacity="0"/>
</radialGradient>
</defs>
</svg>
