<svg viewBox="0 0 1473 1015" fill="none" xmlns="http://www.w3.org/2000/svg">
<g id="s3-grid-top">
<path id="s3-grid" d="M35.2112 0V1015M77.4646 0V1015M119.718 0V1015M161.971 0V1015M204.225 0V1015M246.478 0V1015M288.732 0V1015M330.985 0V1015M373.238 0V1015M415.492 0V1015M457.745 0V1015M499.998 0V1015M542.252 0V1015M584.505 0V1015M626.759 0V1015M669.012 0V1015M711.265 0V1015M753.519 0V1015M795.772 0V1015M838.026 0V1015M880.279 0V1015M922.532 0V1015M964.786 0V1015M1007.04 0V1015M1049.29 0V1015M1091.55 0V1015M1133.8 0V1015M1176.05 0V1015M1218.31 0V1015M1260.56 0V1015M1302.81 0V1015M1345.07 0V1015M1387.32 0V1015M1429.57 0V1015M1473 42.8295L4.0633e-05 42.8294M1473 85.0723L3.8786e-05 85.0722M1473 127.315L3.69391e-05 127.315M1473 169.558L3.50921e-05 169.558M1473 211.801L3.32452e-05 211.801M1473 254.043L3.13982e-05 254.043M1473 296.286L2.95513e-05 296.286M1473 338.529L2.77043e-05 338.529M1473 380.772L2.58574e-05 380.772M1473 423.014L2.40104e-05 423.014M1473 465.257L2.21635e-05 465.257M1473 507.5L2.03165e-05 507.5M1473 549.743L1.84695e-05 549.743M1473 591.986L1.66226e-05 591.985M1473 634.228L1.47756e-05 634.228M1473 676.471L1.29287e-05 676.471M1473 718.714L1.10817e-05 718.714M1473 760.957L9.23477e-06 760.957M1473 803.199L7.38782e-06 803.199M1473 845.442L5.54086e-06 845.442M1473 887.685L3.69391e-06 887.685M1473 929.928L1.84695e-06 929.928M1473 972.171L0 972.17" stroke="url(#paint0_radial_224_912)" stroke-opacity="0.16"/>
</g>
<defs>
<radialGradient id="paint0_radial_224_912" cx="0" cy="0" r="1" gradientUnits="userSpaceOnUse" gradientTransform="translate(737 219.5) rotate(90) scale(428.5 428.5)">
<stop stop-color="#00FFF0"/>
<stop offset="1" stop-color="#00FFF0" stop-opacity="0"/>
</radialGradient>
</defs>
</svg>
