<svg width="16" height="16" viewBox="0 0 16 16" fill="none" xmlns="http://www.w3.org/2000/svg">
<g clip-path="url(#clip0_56_1079)">
<path fill-rule="evenodd" clip-rule="evenodd" d="M8 0C12.4176 0 16 3.5824 16 8C16 12.4176 12.4176 16 8 16C3.5824 16 0 12.4176 0 8C0 3.5824 3.5824 0 8 0Z" fill="#0055D5"/>
<path fill-rule="evenodd" clip-rule="evenodd" d="M4.352 5.29278C4.352 5.29278 3.4912 4.60478 3.432 6.30398C3.3728 7.62078 3.3744 10.1776 3.984 11.3856C4.2416 11.84 4.5856 11.7008 5.2256 11.248C5.7824 10.8368 7.7968 8.98078 8.6496 8.16638C9.5024 7.35198 11.232 5.01598 11.592 6.60318C11.7344 7.27038 11.9104 7.83678 11.776 9.31678C11.7344 9.77278 11.5392 10.1184 10.6496 9.50078C9.9776 9.06878 9.3392 8.60478 9.3392 8.60478C9.3392 8.60478 9.216 8.38398 8.9248 8.74238C8.696 9.02878 8.5808 9.09918 8.9472 9.31678C9.3152 9.53438 11.176 10.8176 11.8896 11.0176C12.4784 11.1888 12.8144 11.1856 12.832 10.0288C12.8288 9.11038 12.776 6.48158 12.4416 5.36158C12.1888 4.66398 11.8176 4.34718 11.016 5.13118C10.2144 5.91518 7.6864 8.36638 6.304 9.47678C5.3872 10.1648 4.9952 10.7856 4.6496 9.63838C4.4064 8.76958 4.0912 6.06558 5.0864 6.58078C5.7088 6.87838 6.0192 6.87678 5.776 7.06398C5.5328 7.24958 4.8336 7.89118 4.8336 7.89118C4.8336 7.89118 4.6176 8.06558 4.7184 8.44318C4.8192 8.70718 4.8192 8.83838 5.3616 8.32798C5.904 7.81758 6.304 7.43198 6.304 7.43198C6.304 7.43198 6.3904 7.29598 6.648 7.54718C6.9056 7.79838 6.9472 7.86878 6.9472 7.86878C6.9472 7.86878 7.016 8.05598 7.2912 7.73118C7.568 7.40638 7.7456 7.20798 7.2224 6.90398C6.7008 6.59678 4.352 5.29278 4.352 5.29278Z" fill="white"/>
</g>
<defs>
<clipPath id="clip0_56_1079">
<rect width="16" height="16" fill="white"/>
</clipPath>
</defs>
</svg>
