<svg width="23" height="17" viewBox="0 0 23 17" fill="none" xmlns="http://www.w3.org/2000/svg">
<g clip-path="url(#clip0_56_809)">
<path d="M10.2961 7.70859C10.6867 8.09922 11.3211 8.09922 11.7117 7.70859L17.7117 1.70859C18.1023 1.31797 18.1023 0.683594 17.7117 0.292969C17.3211 -0.0976562 16.6867 -0.0976562 16.2961 0.292969L11.0023 5.58672L5.70859 0.296093C5.31797 -0.0945315 4.68359 -0.0945315 4.29297 0.296093C3.90234 0.686718 3.90234 1.32109 4.29297 1.71172L10.293 7.71172L10.2961 7.70859Z" fill="#3B3B3B"/>
<path d="M10.2961 15.7102C10.6867 16.1008 11.3211 16.1008 11.7117 15.7102L17.7117 9.71018C18.1023 9.31956 18.1023 8.68518 17.7117 8.29456C17.3211 7.90393 16.6867 7.90393 16.2961 8.29456L11.0023 13.5883L5.70859 8.29768C5.31797 7.90706 4.68359 7.90706 4.29297 8.29768C3.90234 8.68831 3.90234 9.32268 4.29297 9.71331L10.293 15.7133L10.2961 15.7102Z" fill="#616161"/>
</g>
<defs>
<clipPath id="clip0_56_809">
<rect width="22.0047" height="16.0031" fill="white"/>
</clipPath>
</defs>
</svg>
