<svg width="8" height="8" viewBox="0 0 8 8" fill="none" xmlns="http://www.w3.org/2000/svg">
<path d="M5.6672 0.301559L4.91095 1.05781L6.9422 3.08906L7.69845 2.33281C8.08908 1.94218 8.08908 1.30937 7.69845 0.918747L7.08283 0.301559C6.6922 -0.0890656 6.05939 -0.0890656 5.66876 0.301559H5.6672ZM4.55783 1.41093L0.915639 5.05468C0.753139 5.21718 0.634389 5.41875 0.568764 5.63906L0.0156388 7.51875C-0.0234237 7.65156 0.0125138 7.79375 0.109389 7.89062C0.206264 7.9875 0.348451 8.02343 0.479701 7.98593L2.35939 7.43281C2.5797 7.36718 2.78126 7.24843 2.94376 7.08593L6.58908 3.44218L4.55783 1.41093Z" fill="#7A7A7A"/>
</svg>
