<svg width="7" height="16" viewBox="0 0 7 16" fill="none" xmlns="http://www.w3.org/2000/svg">
<path d="M1.116 6.58V5.788C1.324 5.644 1.52 5.54 1.704 5.476C1.896 5.412 2.076 5.38 2.244 5.38C2.468 5.38 2.684 5.42 2.892 5.5C3.1 5.58 3.3 5.676 3.492 5.788C3.692 5.892 3.888 5.984 4.08 6.064C4.272 6.144 4.464 6.184 4.656 6.184C4.824 6.184 5 6.152 5.184 6.088C5.376 6.024 5.576 5.924 5.784 5.788V6.58C5.576 6.724 5.376 6.828 5.184 6.892C5 6.956 4.824 6.988 4.656 6.988C4.432 6.988 4.216 6.948 4.008 6.868C3.8 6.788 3.596 6.696 3.396 6.592C3.204 6.48 3.012 6.384 2.82 6.304C2.628 6.224 2.436 6.184 2.244 6.184C2.076 6.184 1.896 6.216 1.704 6.28C1.52 6.344 1.324 6.444 1.116 6.58Z" fill="#7A7A7A"/>
<path d="M1.116 11.804V10.964H5.784V11.804H1.116ZM1.116 9.404V8.564H5.784V9.404H1.116Z" fill="#7A7A7A"/>
</svg>
