<svg width="12" height="12" viewBox="0 0 12 12" fill="none" xmlns="http://www.w3.org/2000/svg">
<path d="M0.75 1.5C0.75 0.672656 1.42266 0 2.25 0H6C6.82734 0 7.5 0.672656 7.5 1.5V6H7.6875C8.82656 6 9.75 6.92344 9.75 8.0625V8.8125C9.75 9.12422 10.0008 9.375 10.3125 9.375C10.6242 9.375 10.875 9.12422 10.875 8.8125V5.20312C10.2281 5.03672 9.75 4.44844 9.75 3.75V2.25L9 1.5C8.79375 1.29375 8.79375 0.95625 9 0.75C9.20625 0.54375 9.54375 0.54375 9.75 0.75L11.5617 2.56172C11.843 2.84297 12 3.225 12 3.62344V3.9375V4.5V5.25V8.8125C12 9.74531 11.2453 10.5 10.3125 10.5C9.37969 10.5 8.625 9.74531 8.625 8.8125V8.0625C8.625 7.54453 8.20547 7.125 7.6875 7.125H7.5V10.5C7.91484 10.5 8.25 10.8352 8.25 11.25C8.25 11.6648 7.91484 12 7.5 12H0.75C0.335156 12 0 11.6648 0 11.25C0 10.8352 0.335156 10.5 0.75 10.5V1.5ZM2.25 1.875V4.125C2.25 4.33125 2.41875 4.5 2.625 4.5H5.625C5.83125 4.5 6 4.33125 6 4.125V1.875C6 1.66875 5.83125 1.5 5.625 1.5H2.625C2.41875 1.5 2.25 1.66875 2.25 1.875Z" fill="#7A7A7A"/>
</svg>
