<svg width="14" height="16" viewBox="0 0 14 16" fill="none" xmlns="http://www.w3.org/2000/svg">
<path d="M13 1C13.5312 1 14 1.46875 14 2.03125V14C14 14.5625 13.5312 15 13 15H0.96875C0.4375 15 0 14.5625 0 14V2.03125C0 1.46875 0.4375 1 0.96875 1H13ZM4.21875 13V6.34375H2.15625V13H4.21875ZM3.1875 5.40625C3.84375 5.40625 4.375 4.875 4.375 4.21875C4.375 3.5625 3.84375 3 3.1875 3C2.5 3 1.96875 3.5625 1.96875 4.21875C1.96875 4.875 2.5 5.40625 3.1875 5.40625ZM12 13V9.34375C12 7.5625 11.5938 6.15625 9.5 6.15625C8.5 6.15625 7.8125 6.71875 7.53125 7.25H7.5V6.34375H5.53125V13H7.59375V9.71875C7.59375 8.84375 7.75 8 8.84375 8C9.90625 8 9.90625 9 9.90625 9.75V13H12Z" fill="white" fill-opacity="0.32"/>
</svg>
