<svg width="37" height="34" viewBox="0 0 37 34" fill="none" xmlns="http://www.w3.org/2000/svg">
<rect x="-1" y="-1" width="32" height="34.0016" rx="9" transform="matrix(-4.37114e-08 1 1 4.37114e-08 2 2)" fill="#2E2E2E"/>
<path d="M14.7086 23.7063C14.318 24.0969 13.6836 24.0969 13.293 23.7063L10.293 20.7063C9.90234 20.3156 9.90234 19.6812 10.293 19.2906C10.6836 18.9 11.318 18.9 11.7086 19.2906L13.0023 20.5844L13.0023 11C13.0023 10.4469 13.4492 10 14.0023 10C14.5555 10 15.0023 10.4469 15.0023 11L15.0023 20.5844L16.2961 19.2906C16.6867 18.9 17.3211 18.9 17.7117 19.2906C18.1023 19.6812 18.1023 20.3156 17.7117 20.7063L14.7117 23.7063L14.7086 23.7063ZM25.7086 13.2906C26.0992 13.6813 26.0992 14.3156 25.7086 14.7063C25.318 15.0969 24.6836 15.0969 24.293 14.7063L23.0023 13.4156L23.0023 23C23.0023 23.5531 22.5555 24 22.0023 24C21.4492 24 21.0023 23.5531 21.0023 23L21.0023 13.4156L19.7086 14.7094C19.318 15.1 18.6836 15.1 18.293 14.7094C17.9023 14.3188 17.9023 13.6844 18.293 13.2938L21.293 10.2938C21.6836 9.90313 22.318 9.90313 22.7086 10.2938L25.7086 13.2938L25.7086 13.2906Z" fill="#7A7A7A"/>
<rect x="-1" y="-1" width="32" height="34.0016" rx="9" transform="matrix(-4.37114e-08 1 1 4.37114e-08 2 2)" stroke="#141414" stroke-width="2"/>
</svg>
