<svg width="16" height="14" viewBox="0 0 16 14" fill="none" xmlns="http://www.w3.org/2000/svg">
<g clip-path="url(#clip0_56_1067)">
<path fill-rule="evenodd" clip-rule="evenodd" d="M2.92961 0.068359L0.0122533 6.19628C0.00115193 6.21907 -0.00236604 6.24482 0.0022139 6.26975C0.00679385 6.29469 0.0192314 6.3175 0.0377078 6.33486L7.9168 13.8849C7.93918 13.9064 7.96899 13.9184 8 13.9184C8.03101 13.9184 8.06081 13.9064 8.0832 13.8849L15.9623 6.33534C15.9808 6.31798 15.9932 6.29516 15.9978 6.27023C16.0024 6.24529 15.9988 6.21954 15.9877 6.19675L13.0704 0.0688304C13.061 0.0482502 13.0458 0.0308162 13.0268 0.018612C13.0077 0.00640776 12.9855 -5.04841e-05 12.9629 9.12229e-06H3.03803C3.01529 -0.000273781 2.99296 0.00602889 2.97372 0.0181568C2.95448 0.0302848 2.93916 0.0477199 2.92961 0.068359Z" fill="#50AF95"/>
<path fill-rule="evenodd" clip-rule="evenodd" d="M9.01228 6.82557C8.95572 6.82981 8.66346 6.84725 8.01154 6.84725C7.49303 6.84725 7.12488 6.8317 6.99572 6.82557C4.99189 6.73742 3.49621 6.3886 3.49621 5.97096C3.49621 5.55332 4.99189 5.20497 6.99572 5.11541V6.47816C7.12677 6.48759 7.50198 6.50974 8.0205 6.50974C8.64272 6.50974 8.9543 6.48382 9.0104 6.47863V5.11635C11.01 5.20544 12.5024 5.55426 12.5024 5.97096C12.5024 6.38766 11.0105 6.73648 9.0104 6.8251L9.01228 6.82557ZM9.01228 4.97541V3.75595H11.8028V1.89636H4.20516V3.75595H6.99525V4.97494C4.72745 5.07911 3.022 5.52833 3.022 6.06665C3.022 6.60496 4.72745 7.05371 6.99525 7.15836V11.0661H9.01181V7.15695C11.2744 7.05277 12.977 6.60402 12.977 6.06618C12.977 5.52833 11.2758 5.07958 9.01181 4.97494L9.01228 4.97541Z" fill="white"/>
</g>
<defs>
<clipPath id="clip0_56_1067">
<rect width="16" height="13.9184" fill="white"/>
</clipPath>
</defs>
</svg>
