<svg width="16" height="16" viewBox="0 0 16 16" fill="none" xmlns="http://www.w3.org/2000/svg">
<path d="M14.3438 4.75C14.3438 4.90625 14.3438 5.03125 14.3438 5.1875C14.3438 9.53125 11.0625 14.5 5.03125 14.5C3.15625 14.5 1.4375 13.9688 0 13.0312C0.25 13.0625 0.5 13.0938 0.78125 13.0938C2.3125 13.0938 3.71875 12.5625 4.84375 11.6875C3.40625 11.6562 2.1875 10.7188 1.78125 9.40625C2 9.4375 2.1875 9.46875 2.40625 9.46875C2.6875 9.46875 3 9.40625 3.25 9.34375C1.75 9.03125 0.625 7.71875 0.625 6.125V6.09375C1.0625 6.34375 1.59375 6.46875 2.125 6.5C1.21875 5.90625 0.65625 4.90625 0.65625 3.78125C0.65625 3.15625 0.8125 2.59375 1.09375 2.125C2.71875 4.09375 5.15625 5.40625 7.875 5.5625C7.8125 5.3125 7.78125 5.0625 7.78125 4.8125C7.78125 3 9.25 1.53125 11.0625 1.53125C12 1.53125 12.8438 1.90625 13.4688 2.5625C14.1875 2.40625 14.9062 2.125 15.5312 1.75C15.2812 2.53125 14.7812 3.15625 14.0938 3.5625C14.75 3.5 15.4062 3.3125 15.9688 3.0625C15.5312 3.71875 14.9688 4.28125 14.3438 4.75Z" fill="white" fill-opacity="0.32"/>
</svg>
