<?xml version="1.0" encoding="utf-8"?>
<!-- Generator: Adobe Illustrator 23.0.1, SVG Export Plug-In . SVG Version: 6.00 Build 0)  -->
<svg version="1.1" id="Layer_1" xmlns="http://www.w3.org/2000/svg" xmlns:xlink="http://www.w3.org/1999/xlink" x="0px" y="0px"
	 viewBox="0 0 640 512" style="enable-background:new 0 0 640 512;" xml:space="preserve">
<style type="text/css">
	.st0{fill:#F7F7F7;}
</style>
<path class="st0" d="M224,0c70.7,0,128,57.3,128,128s-57.3,128-128,128S96,198.7,96,128S153.3,0,224,0z M178.3,304h91.4
	c20.6,0,40.4,3.5,58.8,9.9C323,331,320,349.1,320,368c0,59.5,29.5,112.1,74.8,144H29.7C13.3,512,0,498.7,0,482.3
	C0,383.8,79.8,304,178.3,304z M352,368c0-79.5,64.5-144,144-144s144,64.5,144,144s-64.5,144-144,144S352,447.5,352,368z M496,288
	c-8.8,0-16,7.2-16,16v64c0,8.8,7.2,16,16,16h48c8.8,0,16-7.2,16-16s-7.2-16-16-16h-32v-48C512,295.2,504.8,288,496,288z"/>
</svg>
