<svg width="24" height="22" viewBox="0 0 24 22" fill="none" xmlns="http://www.w3.org/2000/svg">
<path d="M3 0.5C1.34531 0.5 0 1.84531 0 3.5V18.5C0 20.1547 1.34531 21.5 3 21.5H21C22.6547 21.5 24 20.1547 24 18.5V8C24 6.34531 22.6547 5 21 5H3.75C3.3375 5 3 4.6625 3 4.25C3 3.8375 3.3375 3.5 3.75 3.5H21C21.8297 3.5 22.5 2.82969 22.5 2C22.5 1.17031 21.8297 0.5 21 0.5H3ZM19.5 11.75C19.8978 11.75 20.2794 11.908 20.5607 12.1893C20.842 12.4706 21 12.8522 21 13.25C21 13.6478 20.842 14.0294 20.5607 14.3107C20.2794 14.592 19.8978 14.75 19.5 14.75C19.1022 14.75 18.7206 14.592 18.4393 14.3107C18.158 14.0294 18 13.6478 18 13.25C18 12.8522 18.158 12.4706 18.4393 12.1893C18.7206 11.908 19.1022 11.75 19.5 11.75Z" fill="#031D2A"/>
</svg>
