<svg width="16" height="14" viewBox="0 0 16 14" fill="none" xmlns="http://www.w3.org/2000/svg">
<path d="M7.99995 0C8.4437 0 8.85307 0.234375 9.07807 0.61875L15.8281 12.1187C16.0562 12.5062 16.0562 12.9844 15.8343 13.3719C15.6124 13.7594 15.1968 14 14.7499 14H1.24995C0.80307 14 0.387445 13.7594 0.16557 13.3719C-0.0563048 12.9844 -0.0531798 12.5031 0.17182 12.1187L6.92182 0.61875C7.14682 0.234375 7.5562 0 7.99995 0ZM7.99995 4C7.58432 4 7.24995 4.33437 7.24995 4.75V8.25C7.24995 8.66562 7.58432 9 7.99995 9C8.41557 9 8.74995 8.66562 8.74995 8.25V4.75C8.74995 4.33437 8.41557 4 7.99995 4ZM8.99995 11C8.99995 10.7348 8.89459 10.4804 8.70705 10.2929C8.51952 10.1054 8.26516 10 7.99995 10C7.73473 10 7.48037 10.1054 7.29284 10.2929C7.1053 10.4804 6.99995 10.7348 6.99995 11C6.99995 11.2652 7.1053 11.5196 7.29284 11.7071C7.48037 11.8946 7.73473 12 7.99995 12C8.26516 12 8.51952 11.8946 8.70705 11.7071C8.89459 11.5196 8.99995 11.2652 8.99995 11Z" fill="#FCF4D2"/>
</svg>
