<svg viewBox="0 0 1440 800" fill="none" xmlns="http://www.w3.org/2000/svg">
<g id="s2-grid">
<path d="M19.2112 0V1015M61.4646 0V1015M103.718 0V1015M145.971 0V1015M188.225 0V1015M230.478 0V1015M272.732 0V1015M314.985 0V1015M357.238 0V1015M399.492 0V1015M441.745 0V1015M483.998 0V1015M526.252 0V1015M568.505 0V1015M610.759 0V1015M653.012 0V1015M695.265 0V1015M737.519 0V1015M779.772 0V1015M822.026 0V1015M864.279 0V1015M906.532 0V1015M948.786 0V1015M991.039 0V1015M1033.29 0V1015M1075.55 0V1015M1117.8 0V1015M1160.05 0V1015M1202.31 0V1015M1244.56 0V1015M1286.81 0V1015M1329.07 0V1015M1371.32 0V1015M1413.57 0V1015M1457 42.8295L-16 42.8294M1457 85.0723L-16 85.0722M1457 127.315L-16 127.315M1457 169.558L-16 169.558M1457 211.801L-16 211.801M1457 254.043L-16 254.043M1457 296.286L-16 296.286M1457 338.529L-16 338.529M1457 380.772L-16 380.772M1457 423.014L-16 423.014M1457 465.257L-16 465.257M1457 507.5L-16 507.5M1457 549.743L-16 549.743M1457 591.986L-16 591.985M1457 634.228L-16 634.228M1457 676.471L-16 676.471M1457 718.714L-16 718.714M1457 760.957L-16 760.957M1457 803.199L-16 803.199M1457 845.442L-16 845.442M1457 887.685L-16 887.685M1457 929.928L-16 929.928M1457 972.171L-16 972.17" stroke="url(#paint0_radial_118_1134)" stroke-opacity="0.08"/>
<path d="M19.2112 0V1015M61.4646 0V1015M103.718 0V1015M145.971 0V1015M188.225 0V1015M230.478 0V1015M272.732 0V1015M314.985 0V1015M357.238 0V1015M399.492 0V1015M441.745 0V1015M483.998 0V1015M526.252 0V1015M568.505 0V1015M610.759 0V1015M653.012 0V1015M695.265 0V1015M737.519 0V1015M779.772 0V1015M822.026 0V1015M864.279 0V1015M906.532 0V1015M948.786 0V1015M991.039 0V1015M1033.29 0V1015M1075.55 0V1015M1117.8 0V1015M1160.05 0V1015M1202.31 0V1015M1244.56 0V1015M1286.81 0V1015M1329.07 0V1015M1371.32 0V1015M1413.57 0V1015M1457 42.8295L-16 42.8294M1457 85.0723L-16 85.0722M1457 127.315L-16 127.315M1457 169.558L-16 169.558M1457 211.801L-16 211.801M1457 254.043L-16 254.043M1457 296.286L-16 296.286M1457 338.529L-16 338.529M1457 380.772L-16 380.772M1457 423.014L-16 423.014M1457 465.257L-16 465.257M1457 507.5L-16 507.5M1457 549.743L-16 549.743M1457 591.986L-16 591.985M1457 634.228L-16 634.228M1457 676.471L-16 676.471M1457 718.714L-16 718.714M1457 760.957L-16 760.957M1457 803.199L-16 803.199M1457 845.442L-16 845.442M1457 887.685L-16 887.685M1457 929.928L-16 929.928M1457 972.171L-16 972.17" stroke="url(#paint1_radial_118_1134)" stroke-opacity="0.08"/>
<path d="M19.2112 0V1015M61.4646 0V1015M103.718 0V1015M145.971 0V1015M188.225 0V1015M230.478 0V1015M272.732 0V1015M314.985 0V1015M357.238 0V1015M399.492 0V1015M441.745 0V1015M483.998 0V1015M526.252 0V1015M568.505 0V1015M610.759 0V1015M653.012 0V1015M695.265 0V1015M737.519 0V1015M779.772 0V1015M822.026 0V1015M864.279 0V1015M906.532 0V1015M948.786 0V1015M991.039 0V1015M1033.29 0V1015M1075.55 0V1015M1117.8 0V1015M1160.05 0V1015M1202.31 0V1015M1244.56 0V1015M1286.81 0V1015M1329.07 0V1015M1371.32 0V1015M1413.57 0V1015M1457 42.8295L-16 42.8294M1457 85.0723L-16 85.0722M1457 127.315L-16 127.315M1457 169.558L-16 169.558M1457 211.801L-16 211.801M1457 254.043L-16 254.043M1457 296.286L-16 296.286M1457 338.529L-16 338.529M1457 380.772L-16 380.772M1457 423.014L-16 423.014M1457 465.257L-16 465.257M1457 507.5L-16 507.5M1457 549.743L-16 549.743M1457 591.986L-16 591.985M1457 634.228L-16 634.228M1457 676.471L-16 676.471M1457 718.714L-16 718.714M1457 760.957L-16 760.957M1457 803.199L-16 803.199M1457 845.442L-16 845.442M1457 887.685L-16 887.685M1457 929.928L-16 929.928M1457 972.171L-16 972.17" stroke="url(#paint2_radial_118_1134)" stroke-opacity="0.16"/>
</g>
<defs>
<radialGradient id="paint0_radial_118_1134" cx="0" cy="0" r="1" gradientUnits="userSpaceOnUse" gradientTransform="translate(1217.5 507) rotate(45) scale(415.779 415.779)">
<stop stop-color="#00FFF0"/>
<stop offset="1" stop-color="#00FFF0" stop-opacity="0"/>
</radialGradient>
<radialGradient id="paint1_radial_118_1134" cx="0" cy="0" r="1" gradientUnits="userSpaceOnUse" gradientTransform="translate(764 176) rotate(45) scale(605.991 605.991)">
<stop stop-color="#00FFF0"/>
<stop offset="1" stop-color="#00FFF0" stop-opacity="0"/>
</radialGradient>
<radialGradient id="paint2_radial_118_1134" cx="0" cy="0" r="1" gradientUnits="userSpaceOnUse" gradientTransform="translate(219.5 555.5) rotate(-135) scale(347.189 347.189)">
<stop stop-color="#00FFF0"/>
<stop offset="1" stop-color="#00FFF0" stop-opacity="0"/>
</radialGradient>
</defs>
</svg>
