<svg viewBox="0 0 251 78" fill="none" xmlns="http://www.w3.org/2000/svg">
<g id="Group 31">
<g id="Frame 154">
<rect y="0.52832" width="251" height="64" rx="8" fill="#00FFF0" fill-opacity="0.08"/>
<rect y="0.52832" width="251" height="64" rx="8" fill="url(#paint0_radial_117_1114)" fill-opacity="0.1"/>
<rect y="0.52832" width="251" height="64" rx="8" fill="url(#paint1_radial_117_1114)" fill-opacity="0.1"/>
<rect y="0.52832" width="251" height="64" rx="8" fill="url(#paint2_radial_117_1114)" fill-opacity="0.1"/>
<g id="Group 30">
<path id="Vector" d="M90.0451 37.2151C92.8314 37.2151 95.0901 34.9564 95.0901 32.1701C95.0901 29.3837 92.8314 27.125 90.0451 27.125C87.2588 27.125 85 29.3837 85 32.1701C85 34.9564 87.2588 37.2151 90.0451 37.2151Z" fill="#00FFF0"/>
<path id="Vector_2" d="M169.045 55.6184C171.831 55.6184 174.09 53.3597 174.09 50.5734C174.09 47.7871 171.831 45.5283 169.045 45.5283C166.259 45.5283 164 47.7871 164 50.5734C164 53.3597 166.259 55.6184 169.045 55.6184Z" fill="#00FFF0"/>
<path id="Vector_3" d="M139.615 55.3145C142.402 55.3145 144.66 53.0557 144.66 50.2694C144.66 47.4831 142.402 45.2244 139.615 45.2244C136.829 45.2244 134.57 47.4831 134.57 50.2694C134.57 53.0557 136.829 55.3145 139.615 55.3145Z" fill="#00FFF0"/>
<path id="Vector_4" d="M167.045 23.6184C169.831 23.6184 172.09 21.3597 172.09 18.5734C172.09 15.7871 169.831 13.5283 167.045 13.5283C164.259 13.5283 162 15.7871 162 18.5734C162 21.3597 164.259 23.6184 167.045 23.6184Z" fill="#00FFF0"/>
<path id="Vector_5" d="M188.045 38.6184C190.831 38.6184 193.09 36.3597 193.09 33.5734C193.09 30.7871 190.831 28.5283 188.045 28.5283C185.259 28.5283 183 30.7871 183 33.5734C183 36.3597 185.259 38.6184 188.045 38.6184Z" fill="#00FFF0"/>
<path id="Vector_6" d="M101.256 18.6184C104.042 18.6184 106.301 16.3597 106.301 13.5734C106.301 10.7871 104.042 8.52832 101.256 8.52832C98.4697 8.52832 96.2109 10.7871 96.2109 13.5734C96.2109 16.3597 98.4697 18.6184 101.256 18.6184Z" fill="#00FFF0"/>
<path id="Vector_7" d="M115.497 63.0553C118.284 63.0553 120.542 60.7966 120.542 58.0103C120.542 55.224 118.284 52.9652 115.497 52.9652C112.711 52.9652 110.452 55.224 110.452 58.0103C110.452 60.7966 112.711 63.0553 115.497 63.0553Z" fill="#00FFF0"/>
<path id="Vector_8" d="M118.558 33.9444C121.344 33.9444 123.603 31.6856 123.603 28.8993C123.603 26.113 121.344 23.8542 118.558 23.8542C115.771 23.8542 113.513 26.113 113.513 28.8993C113.513 31.6856 115.771 33.9444 118.558 33.9444Z" fill="#00FFF0"/>
<path id="Vector_9" d="M144.428 36.2605C147.214 36.2605 149.473 34.0018 149.473 31.2155C149.473 28.4292 147.214 26.1704 144.428 26.1704C141.642 26.1704 139.383 28.4292 139.383 31.2155C139.383 34.0018 141.642 36.2605 144.428 36.2605Z" fill="#00FFF0"/>
<path id="Vector_10" d="M198.045 65.7106C200.831 65.7106 203.09 63.4519 203.09 60.6656C203.09 57.8793 200.831 55.6205 198.045 55.6205C195.259 55.6205 193 57.8793 193 60.6656C193 63.4519 195.259 65.7106 198.045 65.7106Z" fill="#00FFF0"/>
<path id="Vector_11" d="M89.6704 47.7207C88.643 47.7207 87.8105 46.888 87.8105 45.8608C87.8105 44.8336 88.643 44.0009 89.6704 44.0009C96.592 44.0009 102.223 38.3697 102.223 31.4479C102.223 22.4749 109.523 15.175 118.496 15.175C127.469 15.175 134.769 22.4749 134.769 31.4479C134.769 32.475 133.936 33.3075 132.909 33.3075C131.882 33.3075 131.05 32.475 131.05 31.4479C131.05 24.526 125.418 18.8948 118.497 18.8948C111.575 18.8948 105.944 24.526 105.944 31.4479C105.943 40.4208 98.6428 47.7207 89.6704 47.7207Z" fill="white"/>
<path id="Vector_12" d="M138.393 65.8159C131.307 65.8159 125.542 60.051 125.542 52.9652C125.542 47.9305 121.446 43.8338 116.411 43.8338C111.376 43.8338 107.28 47.9303 107.28 52.9652C107.28 53.9924 106.447 54.8249 105.42 54.8249C104.393 54.8249 103.561 53.9924 103.561 52.9652C103.561 45.8795 109.325 40.1146 116.411 40.1146C123.497 40.1146 129.262 45.8795 129.262 52.9652C129.262 58.0002 133.358 62.0964 138.393 62.0964C143.428 62.0964 147.524 58.0002 147.524 52.9652C147.524 51.9381 148.357 51.1056 149.384 51.1056C150.411 51.1056 151.244 51.9381 151.244 52.9652C151.244 60.051 145.479 65.8159 138.393 65.8159Z" fill="white"/>
</g>
</g>
<g id="v6-icon (free)">
<g id="icon" filter="url(#filter0_b_117_1114)">
<path d="M55.8505 37.4902V37.587C55.2692 37.587 54.7848 37.4902 54.3004 37.4902H41.8999C40.2529 37.4902 38.7028 37.7808 37.2496 38.0714C37.2496 37.8777 37.2496 37.6839 37.2496 37.4902C37.2496 32.3555 41.4155 28.1897 46.5501 28.1897C51.6847 28.1897 55.8505 32.3555 55.8505 37.4902ZM54.3004 40.5903C54.5911 40.5903 54.9786 40.6872 55.2692 40.6872C55.6568 40.6872 56.0443 40.6872 56.5287 40.7841C58.1756 38.8465 60.6945 37.4902 63.6009 37.4902H64.6666C65.6353 37.4902 66.4104 38.459 66.2166 39.4278L64.8603 44.853C66.4104 46.2093 67.5729 47.9532 68.4449 49.8907H69.8012C71.4481 49.8907 72.9013 51.3439 72.9013 52.9909V62.2913C72.9013 64.0352 71.4481 65.3915 69.8012 65.3915H66.701C65.7322 66.6509 64.7634 67.6197 63.6009 68.4916V74.6919C63.6009 76.4357 62.1477 77.7921 60.5007 77.7921H57.4006C55.6568 77.7921 54.3004 76.4357 54.3004 74.6919V71.5918H41.8999V74.6919C41.8999 76.4357 40.4467 77.7921 38.7997 77.7921H35.6996C33.9557 77.7921 32.5994 76.4357 32.5994 74.6919V68.4916C29.2086 65.9728 26.8835 62.0976 26.3991 57.6411H23.6865C20.0051 57.6411 17.0987 54.7347 17.0987 51.0533C17.0987 47.4688 20.0051 44.4655 23.6865 44.4655H24.074C25.3334 44.4655 26.3991 45.5312 26.3991 46.7906C26.3991 48.1469 25.3334 49.1157 24.074 49.1157H23.6865C22.6208 49.1157 21.7489 49.9876 21.7489 51.0533C21.7489 52.119 22.6208 52.9909 23.6865 52.9909H26.6898C27.8523 47.275 32.2119 42.6248 37.9278 41.1716C39.1872 40.7841 40.5435 40.5903 41.8999 40.5903H54.3004ZM60.5007 53.7659C60.5007 52.5065 59.4351 51.4408 58.1756 51.4408C56.8193 51.4408 55.8505 52.5065 55.8505 53.7659C55.8505 55.1222 56.8193 56.091 58.1756 56.091C59.4351 56.091 60.5007 55.1222 60.5007 53.7659Z" fill="white" fill-opacity="0.5"/>
<path d="M55.8505 37.587V38.587H56.8505V37.587H55.8505ZM37.2496 38.0714H36.2496V39.2912L37.4458 39.052L37.2496 38.0714ZM56.5287 40.7841L56.3326 41.7646L56.9095 41.88L57.2906 41.4317L56.5287 40.7841ZM66.2166 39.4278L67.1868 39.6703L67.1925 39.6472L67.1972 39.6239L66.2166 39.4278ZM64.8603 44.853L63.8902 44.6105L63.742 45.2032L64.2018 45.6056L64.8603 44.853ZM68.4449 49.8907L67.5329 50.3011L67.7983 50.8907H68.4449V49.8907ZM66.701 65.3915V64.3915H66.2086L65.9084 64.7818L66.701 65.3915ZM63.6009 68.4916L63.0009 67.6916L62.6009 67.9916V68.4916H63.6009ZM54.3004 71.5918H55.3004V70.5918H54.3004V71.5918ZM41.8999 71.5918V70.5918H40.8999V71.5918H41.8999ZM32.5994 68.4916H33.5994V67.9888L33.1957 67.6889L32.5994 68.4916ZM26.3991 57.6411L27.3933 57.533L27.2963 56.6411H26.3991V57.6411ZM26.6898 52.9909V53.9909H27.5068L27.6697 53.1902L26.6898 52.9909ZM37.9278 41.1716L38.1742 42.1408L38.1982 42.1346L38.2219 42.1274L37.9278 41.1716ZM54.8505 37.4902V37.587H56.8505V37.4902H54.8505ZM55.8505 36.587C55.6125 36.587 55.3886 36.5674 55.134 36.5431C54.8931 36.5202 54.5998 36.4902 54.3004 36.4902V38.4902C54.4855 38.4902 54.6766 38.5086 54.9443 38.5341C55.1983 38.5583 55.5073 38.587 55.8505 38.587V36.587ZM54.3004 36.4902H41.8999V38.4902H54.3004V36.4902ZM41.8999 36.4902C40.1435 36.4902 38.5063 36.8003 37.0535 37.0909L37.4458 39.052C38.8994 38.7613 40.3623 38.4902 41.8999 38.4902V36.4902ZM38.2496 38.0714C38.2496 38.0711 38.2496 38.0707 38.2496 38.0703C38.2496 38.0699 38.2496 38.0695 38.2496 38.0692C38.2496 38.0688 38.2496 38.0684 38.2496 38.068C38.2496 38.0677 38.2496 38.0673 38.2496 38.0669C38.2496 38.0665 38.2496 38.0661 38.2496 38.0658C38.2496 38.0654 38.2496 38.065 38.2496 38.0646C38.2496 38.0642 38.2496 38.0639 38.2496 38.0635C38.2496 38.0631 38.2496 38.0627 38.2496 38.0624C38.2496 38.062 38.2496 38.0616 38.2496 38.0612C38.2496 38.0608 38.2496 38.0605 38.2496 38.0601C38.2496 38.0597 38.2496 38.0593 38.2496 38.0589C38.2496 38.0586 38.2496 38.0582 38.2496 38.0578C38.2496 38.0574 38.2496 38.0571 38.2496 38.0567C38.2496 38.0563 38.2496 38.0559 38.2496 38.0555C38.2496 38.0552 38.2496 38.0548 38.2496 38.0544C38.2496 38.054 38.2496 38.0537 38.2496 38.0533C38.2496 38.0529 38.2496 38.0525 38.2496 38.0521C38.2496 38.0518 38.2496 38.0514 38.2496 38.051C38.2496 38.0506 38.2496 38.0502 38.2496 38.0499C38.2496 38.0495 38.2496 38.0491 38.2496 38.0487C38.2496 38.0484 38.2496 38.048 38.2496 38.0476C38.2496 38.0472 38.2496 38.0468 38.2496 38.0465C38.2496 38.0461 38.2496 38.0457 38.2496 38.0453C38.2496 38.0449 38.2496 38.0446 38.2496 38.0442C38.2496 38.0438 38.2496 38.0434 38.2496 38.0431C38.2496 38.0427 38.2496 38.0423 38.2496 38.0419C38.2496 38.0415 38.2496 38.0412 38.2496 38.0408C38.2496 38.0404 38.2496 38.04 38.2496 38.0396C38.2496 38.0393 38.2496 38.0389 38.2496 38.0385C38.2496 38.0381 38.2496 38.0378 38.2496 38.0374C38.2496 38.037 38.2496 38.0366 38.2496 38.0362C38.2496 38.0359 38.2496 38.0355 38.2496 38.0351C38.2496 38.0347 38.2496 38.0344 38.2496 38.034C38.2496 38.0336 38.2496 38.0332 38.2496 38.0328C38.2496 38.0325 38.2496 38.0321 38.2496 38.0317C38.2496 38.0313 38.2496 38.0309 38.2496 38.0306C38.2496 38.0302 38.2496 38.0298 38.2496 38.0294C38.2496 38.0291 38.2496 38.0287 38.2496 38.0283C38.2496 38.0279 38.2496 38.0275 38.2496 38.0272C38.2496 38.0268 38.2496 38.0264 38.2496 38.026C38.2496 38.0256 38.2496 38.0253 38.2496 38.0249C38.2496 38.0245 38.2496 38.0241 38.2496 38.0238C38.2496 38.0234 38.2496 38.023 38.2496 38.0226C38.2496 38.0222 38.2496 38.0219 38.2496 38.0215C38.2496 38.0211 38.2496 38.0207 38.2496 38.0203C38.2496 38.02 38.2496 38.0196 38.2496 38.0192C38.2496 38.0188 38.2496 38.0185 38.2496 38.0181C38.2496 38.0177 38.2496 38.0173 38.2496 38.0169C38.2496 38.0166 38.2496 38.0162 38.2496 38.0158C38.2496 38.0154 38.2496 38.0151 38.2496 38.0147C38.2496 38.0143 38.2496 38.0139 38.2496 38.0135C38.2496 38.0132 38.2496 38.0128 38.2496 38.0124C38.2496 38.012 38.2496 38.0116 38.2496 38.0113C38.2496 38.0109 38.2496 38.0105 38.2496 38.0101C38.2496 38.0098 38.2496 38.0094 38.2496 38.009C38.2496 38.0086 38.2496 38.0082 38.2496 38.0079C38.2496 38.0075 38.2496 38.0071 38.2496 38.0067C38.2496 38.0063 38.2496 38.006 38.2496 38.0056C38.2496 38.0052 38.2496 38.0048 38.2496 38.0045C38.2496 38.0041 38.2496 38.0037 38.2496 38.0033C38.2496 38.0029 38.2496 38.0026 38.2496 38.0022C38.2496 38.0018 38.2496 38.0014 38.2496 38.001C38.2496 38.0007 38.2496 38.0003 38.2496 37.9999C38.2496 37.9995 38.2496 37.9992 38.2496 37.9988C38.2496 37.9984 38.2496 37.998 38.2496 37.9976C38.2496 37.9973 38.2496 37.9969 38.2496 37.9965C38.2496 37.9961 38.2496 37.9957 38.2496 37.9954C38.2496 37.995 38.2496 37.9946 38.2496 37.9942C38.2496 37.9939 38.2496 37.9935 38.2496 37.9931C38.2496 37.9927 38.2496 37.9923 38.2496 37.992C38.2496 37.9916 38.2496 37.9912 38.2496 37.9908C38.2496 37.9905 38.2496 37.9901 38.2496 37.9897C38.2496 37.9893 38.2496 37.9889 38.2496 37.9886C38.2496 37.9882 38.2496 37.9878 38.2496 37.9874C38.2496 37.987 38.2496 37.9867 38.2496 37.9863C38.2496 37.9859 38.2496 37.9855 38.2496 37.9852C38.2496 37.9848 38.2496 37.9844 38.2496 37.984C38.2496 37.9836 38.2496 37.9833 38.2496 37.9829C38.2496 37.9825 38.2496 37.9821 38.2496 37.9817C38.2496 37.9814 38.2496 37.981 38.2496 37.9806C38.2496 37.9802 38.2496 37.9799 38.2496 37.9795C38.2496 37.9791 38.2496 37.9787 38.2496 37.9783C38.2496 37.978 38.2496 37.9776 38.2496 37.9772C38.2496 37.9768 38.2496 37.9764 38.2496 37.9761C38.2496 37.9757 38.2496 37.9753 38.2496 37.9749C38.2496 37.9746 38.2496 37.9742 38.2496 37.9738C38.2496 37.9734 38.2496 37.973 38.2496 37.9727C38.2496 37.9723 38.2496 37.9719 38.2496 37.9715C38.2496 37.9712 38.2496 37.9708 38.2496 37.9704C38.2496 37.97 38.2496 37.9696 38.2496 37.9693C38.2496 37.9689 38.2496 37.9685 38.2496 37.9681C38.2496 37.9677 38.2496 37.9674 38.2496 37.967C38.2496 37.9666 38.2496 37.9662 38.2496 37.9659C38.2496 37.9655 38.2496 37.9651 38.2496 37.9647C38.2496 37.9643 38.2496 37.964 38.2496 37.9636C38.2496 37.9632 38.2496 37.9628 38.2496 37.9624C38.2496 37.9621 38.2496 37.9617 38.2496 37.9613C38.2496 37.9609 38.2496 37.9606 38.2496 37.9602C38.2496 37.9598 38.2496 37.9594 38.2496 37.959C38.2496 37.9587 38.2496 37.9583 38.2496 37.9579C38.2496 37.9575 38.2496 37.9571 38.2496 37.9568C38.2496 37.9564 38.2496 37.956 38.2496 37.9556C38.2496 37.9553 38.2496 37.9549 38.2496 37.9545C38.2496 37.9541 38.2496 37.9537 38.2496 37.9534C38.2496 37.953 38.2496 37.9526 38.2496 37.9522C38.2496 37.9519 38.2496 37.9515 38.2496 37.9511C38.2496 37.9507 38.2496 37.9503 38.2496 37.95C38.2496 37.9496 38.2496 37.9492 38.2496 37.9488C38.2496 37.9484 38.2496 37.9481 38.2496 37.9477C38.2496 37.9473 38.2496 37.9469 38.2496 37.9466C38.2496 37.9462 38.2496 37.9458 38.2496 37.9454C38.2496 37.945 38.2496 37.9447 38.2496 37.9443C38.2496 37.9439 38.2496 37.9435 38.2496 37.9431C38.2496 37.9428 38.2496 37.9424 38.2496 37.942C38.2496 37.9416 38.2496 37.9413 38.2496 37.9409C38.2496 37.9405 38.2496 37.9401 38.2496 37.9397C38.2496 37.9394 38.2496 37.939 38.2496 37.9386C38.2496 37.9382 38.2496 37.9378 38.2496 37.9375C38.2496 37.9371 38.2496 37.9367 38.2496 37.9363C38.2496 37.936 38.2496 37.9356 38.2496 37.9352C38.2496 37.9348 38.2496 37.9344 38.2496 37.9341C38.2496 37.9337 38.2496 37.9333 38.2496 37.9329C38.2496 37.9326 38.2496 37.9322 38.2496 37.9318C38.2496 37.9314 38.2496 37.931 38.2496 37.9307C38.2496 37.9303 38.2496 37.9299 38.2496 37.9295C38.2496 37.9291 38.2496 37.9288 38.2496 37.9284C38.2496 37.928 38.2496 37.9276 38.2496 37.9273C38.2496 37.9269 38.2496 37.9265 38.2496 37.9261C38.2496 37.9257 38.2496 37.9254 38.2496 37.925C38.2496 37.9246 38.2496 37.9242 38.2496 37.9238C38.2496 37.9235 38.2496 37.9231 38.2496 37.9227C38.2496 37.9223 38.2496 37.922 38.2496 37.9216C38.2496 37.9212 38.2496 37.9208 38.2496 37.9204C38.2496 37.9201 38.2496 37.9197 38.2496 37.9193C38.2496 37.9189 38.2496 37.9185 38.2496 37.9182C38.2496 37.9178 38.2496 37.9174 38.2496 37.917C38.2496 37.9167 38.2496 37.9163 38.2496 37.9159C38.2496 37.9155 38.2496 37.9151 38.2496 37.9148C38.2496 37.9144 38.2496 37.914 38.2496 37.9136C38.2496 37.9133 38.2496 37.9129 38.2496 37.9125C38.2496 37.9121 38.2496 37.9117 38.2496 37.9114C38.2496 37.911 38.2496 37.9106 38.2496 37.9102C38.2496 37.9098 38.2496 37.9095 38.2496 37.9091C38.2496 37.9087 38.2496 37.9083 38.2496 37.908C38.2496 37.9076 38.2496 37.9072 38.2496 37.9068C38.2496 37.9064 38.2496 37.9061 38.2496 37.9057C38.2496 37.9053 38.2496 37.9049 38.2496 37.9045C38.2496 37.9042 38.2496 37.9038 38.2496 37.9034C38.2496 37.903 38.2496 37.9027 38.2496 37.9023C38.2496 37.9019 38.2496 37.9015 38.2496 37.9011C38.2496 37.9008 38.2496 37.9004 38.2496 37.9C38.2496 37.8996 38.2496 37.8992 38.2496 37.8989C38.2496 37.8985 38.2496 37.8981 38.2496 37.8977C38.2496 37.8974 38.2496 37.897 38.2496 37.8966C38.2496 37.8962 38.2496 37.8958 38.2496 37.8955C38.2496 37.8951 38.2496 37.8947 38.2496 37.8943C38.2496 37.894 38.2496 37.8936 38.2496 37.8932C38.2496 37.8928 38.2496 37.8924 38.2496 37.8921C38.2496 37.8917 38.2496 37.8913 38.2496 37.8909C38.2496 37.8905 38.2496 37.8902 38.2496 37.8898C38.2496 37.8894 38.2496 37.889 38.2496 37.8887C38.2496 37.8883 38.2496 37.8879 38.2496 37.8875C38.2496 37.8871 38.2496 37.8868 38.2496 37.8864C38.2496 37.886 38.2496 37.8856 38.2496 37.8852C38.2496 37.8849 38.2496 37.8845 38.2496 37.8841C38.2496 37.8837 38.2496 37.8834 38.2496 37.883C38.2496 37.8826 38.2496 37.8822 38.2496 37.8818C38.2496 37.8815 38.2496 37.8811 38.2496 37.8807C38.2496 37.8803 38.2496 37.8799 38.2496 37.8796C38.2496 37.8792 38.2496 37.8788 38.2496 37.8784C38.2496 37.8781 38.2496 37.8777 38.2496 37.8773C38.2496 37.8769 38.2496 37.8765 38.2496 37.8762C38.2496 37.8758 38.2496 37.8754 38.2496 37.875C38.2496 37.8747 38.2496 37.8743 38.2496 37.8739C38.2496 37.8735 38.2496 37.8731 38.2496 37.8728C38.2496 37.8724 38.2496 37.872 38.2496 37.8716C38.2496 37.8712 38.2496 37.8709 38.2496 37.8705C38.2496 37.8701 38.2496 37.8697 38.2496 37.8694C38.2496 37.869 38.2496 37.8686 38.2496 37.8682C38.2496 37.8678 38.2496 37.8675 38.2496 37.8671C38.2496 37.8667 38.2496 37.8663 38.2496 37.8659C38.2496 37.8656 38.2496 37.8652 38.2496 37.8648C38.2496 37.8644 38.2496 37.8641 38.2496 37.8637C38.2496 37.8633 38.2496 37.8629 38.2496 37.8625C38.2496 37.8622 38.2496 37.8618 38.2496 37.8614C38.2496 37.861 38.2496 37.8606 38.2496 37.8603C38.2496 37.8599 38.2496 37.8595 38.2496 37.8591C38.2496 37.8588 38.2496 37.8584 38.2496 37.858C38.2496 37.8576 38.2496 37.8572 38.2496 37.8569C38.2496 37.8565 38.2496 37.8561 38.2496 37.8557C38.2496 37.8554 38.2496 37.855 38.2496 37.8546C38.2496 37.8542 38.2496 37.8538 38.2496 37.8535C38.2496 37.8531 38.2496 37.8527 38.2496 37.8523C38.2496 37.8519 38.2496 37.8516 38.2496 37.8512C38.2496 37.8508 38.2496 37.8504 38.2496 37.8501C38.2496 37.8497 38.2496 37.8493 38.2496 37.8489C38.2496 37.8485 38.2496 37.8482 38.2496 37.8478C38.2496 37.8474 38.2496 37.847 38.2496 37.8466C38.2496 37.8463 38.2496 37.8459 38.2496 37.8455C38.2496 37.8451 38.2496 37.8448 38.2496 37.8444C38.2496 37.844 38.2496 37.8436 38.2496 37.8432C38.2496 37.8429 38.2496 37.8425 38.2496 37.8421C38.2496 37.8417 38.2496 37.8413 38.2496 37.841C38.2496 37.8406 38.2496 37.8402 38.2496 37.8398C38.2496 37.8395 38.2496 37.8391 38.2496 37.8387C38.2496 37.8383 38.2496 37.8379 38.2496 37.8376C38.2496 37.8372 38.2496 37.8368 38.2496 37.8364C38.2496 37.8361 38.2496 37.8357 38.2496 37.8353C38.2496 37.8349 38.2496 37.8345 38.2496 37.8342C38.2496 37.8338 38.2496 37.8334 38.2496 37.833C38.2496 37.8326 38.2496 37.8323 38.2496 37.8319C38.2496 37.8315 38.2496 37.8311 38.2496 37.8308C38.2496 37.8304 38.2496 37.83 38.2496 37.8296C38.2496 37.8292 38.2496 37.8289 38.2496 37.8285C38.2496 37.8281 38.2496 37.8277 38.2496 37.8273C38.2496 37.827 38.2496 37.8266 38.2496 37.8262C38.2496 37.8258 38.2496 37.8255 38.2496 37.8251C38.2496 37.8247 38.2496 37.8243 38.2496 37.8239C38.2496 37.8236 38.2496 37.8232 38.2496 37.8228C38.2496 37.8224 38.2496 37.822 38.2496 37.8217C38.2496 37.8213 38.2496 37.8209 38.2496 37.8205C38.2496 37.8202 38.2496 37.8198 38.2496 37.8194C38.2496 37.819 38.2496 37.8186 38.2496 37.8183C38.2496 37.8179 38.2496 37.8175 38.2496 37.8171C38.2496 37.8167 38.2496 37.8164 38.2496 37.816C38.2496 37.8156 38.2496 37.8152 38.2496 37.8149C38.2496 37.8145 38.2496 37.8141 38.2496 37.8137C38.2496 37.8133 38.2496 37.813 38.2496 37.8126C38.2496 37.8122 38.2496 37.8118 38.2496 37.8115C38.2496 37.8111 38.2496 37.8107 38.2496 37.8103C38.2496 37.8099 38.2496 37.8096 38.2496 37.8092C38.2496 37.8088 38.2496 37.8084 38.2496 37.808C38.2496 37.8077 38.2496 37.8073 38.2496 37.8069C38.2496 37.8065 38.2496 37.8062 38.2496 37.8058C38.2496 37.8054 38.2496 37.805 38.2496 37.8046C38.2496 37.8043 38.2496 37.8039 38.2496 37.8035C38.2496 37.8031 38.2496 37.8027 38.2496 37.8024C38.2496 37.802 38.2496 37.8016 38.2496 37.8012C38.2496 37.8009 38.2496 37.8005 38.2496 37.8001C38.2496 37.7997 38.2496 37.7993 38.2496 37.799C38.2496 37.7986 38.2496 37.7982 38.2496 37.7978C38.2496 37.7974 38.2496 37.7971 38.2496 37.7967C38.2496 37.7963 38.2496 37.7959 38.2496 37.7956C38.2496 37.7952 38.2496 37.7948 38.2496 37.7944C38.2496 37.794 38.2496 37.7937 38.2496 37.7933C38.2496 37.7929 38.2496 37.7925 38.2496 37.7922C38.2496 37.7918 38.2496 37.7914 38.2496 37.791C38.2496 37.7906 38.2496 37.7903 38.2496 37.7899C38.2496 37.7895 38.2496 37.7891 38.2496 37.7887C38.2496 37.7884 38.2496 37.788 38.2496 37.7876C38.2496 37.7872 38.2496 37.7869 38.2496 37.7865C38.2496 37.7861 38.2496 37.7857 38.2496 37.7853C38.2496 37.785 38.2496 37.7846 38.2496 37.7842C38.2496 37.7838 38.2496 37.7834 38.2496 37.7831C38.2496 37.7827 38.2496 37.7823 38.2496 37.7819C38.2496 37.7816 38.2496 37.7812 38.2496 37.7808C38.2496 37.7804 38.2496 37.78 38.2496 37.7797C38.2496 37.7793 38.2496 37.7789 38.2496 37.7785C38.2496 37.7781 38.2496 37.7778 38.2496 37.7774C38.2496 37.777 38.2496 37.7766 38.2496 37.7763C38.2496 37.7759 38.2496 37.7755 38.2496 37.7751C38.2496 37.7747 38.2496 37.7744 38.2496 37.774C38.2496 37.7736 38.2496 37.7732 38.2496 37.7729C38.2496 37.7725 38.2496 37.7721 38.2496 37.7717C38.2496 37.7713 38.2496 37.771 38.2496 37.7706C38.2496 37.7702 38.2496 37.7698 38.2496 37.7694C38.2496 37.7691 38.2496 37.7687 38.2496 37.7683C38.2496 37.7679 38.2496 37.7676 38.2496 37.7672C38.2496 37.7668 38.2496 37.7664 38.2496 37.766C38.2496 37.7657 38.2496 37.7653 38.2496 37.7649C38.2496 37.7645 38.2496 37.7641 38.2496 37.7638C38.2496 37.7634 38.2496 37.763 38.2496 37.7626C38.2496 37.7623 38.2496 37.7619 38.2496 37.7615C38.2496 37.7611 38.2496 37.7607 38.2496 37.7604C38.2496 37.76 38.2496 37.7596 38.2496 37.7592C38.2496 37.7588 38.2496 37.7585 38.2496 37.7581C38.2496 37.7577 38.2496 37.7573 38.2496 37.757C38.2496 37.7566 38.2496 37.7562 38.2496 37.7558C38.2496 37.7554 38.2496 37.7551 38.2496 37.7547C38.2496 37.7543 38.2496 37.7539 38.2496 37.7536C38.2496 37.7532 38.2496 37.7528 38.2496 37.7524C38.2496 37.752 38.2496 37.7517 38.2496 37.7513C38.2496 37.7509 38.2496 37.7505 38.2496 37.7501C38.2496 37.7498 38.2496 37.7494 38.2496 37.749C38.2496 37.7486 38.2496 37.7483 38.2496 37.7479C38.2496 37.7475 38.2496 37.7471 38.2496 37.7467C38.2496 37.7464 38.2496 37.746 38.2496 37.7456C38.2496 37.7452 38.2496 37.7448 38.2496 37.7445C38.2496 37.7441 38.2496 37.7437 38.2496 37.7433C38.2496 37.743 38.2496 37.7426 38.2496 37.7422C38.2496 37.7418 38.2496 37.7414 38.2496 37.7411C38.2496 37.7407 38.2496 37.7403 38.2496 37.7399C38.2496 37.7395 38.2496 37.7392 38.2496 37.7388C38.2496 37.7384 38.2496 37.738 38.2496 37.7377C38.2496 37.7373 38.2496 37.7369 38.2496 37.7365C38.2496 37.7361 38.2496 37.7358 38.2496 37.7354C38.2496 37.735 38.2496 37.7346 38.2496 37.7343C38.2496 37.7339 38.2496 37.7335 38.2496 37.7331C38.2496 37.7327 38.2496 37.7324 38.2496 37.732C38.2496 37.7316 38.2496 37.7312 38.2496 37.7308C38.2496 37.7305 38.2496 37.7301 38.2496 37.7297C38.2496 37.7293 38.2496 37.729 38.2496 37.7286C38.2496 37.7282 38.2496 37.7278 38.2496 37.7274C38.2496 37.7271 38.2496 37.7267 38.2496 37.7263C38.2496 37.7259 38.2496 37.7255 38.2496 37.7252C38.2496 37.7248 38.2496 37.7244 38.2496 37.724C38.2496 37.7237 38.2496 37.7233 38.2496 37.7229C38.2496 37.7225 38.2496 37.7221 38.2496 37.7218C38.2496 37.7214 38.2496 37.721 38.2496 37.7206C38.2496 37.7202 38.2496 37.7199 38.2496 37.7195C38.2496 37.7191 38.2496 37.7187 38.2496 37.7184C38.2496 37.718 38.2496 37.7176 38.2496 37.7172C38.2496 37.7168 38.2496 37.7165 38.2496 37.7161C38.2496 37.7157 38.2496 37.7153 38.2496 37.715C38.2496 37.7146 38.2496 37.7142 38.2496 37.7138C38.2496 37.7134 38.2496 37.7131 38.2496 37.7127C38.2496 37.7123 38.2496 37.7119 38.2496 37.7115C38.2496 37.7112 38.2496 37.7108 38.2496 37.7104C38.2496 37.71 38.2496 37.7097 38.2496 37.7093C38.2496 37.7089 38.2496 37.7085 38.2496 37.7081C38.2496 37.7078 38.2496 37.7074 38.2496 37.707C38.2496 37.7066 38.2496 37.7062 38.2496 37.7059C38.2496 37.7055 38.2496 37.7051 38.2496 37.7047C38.2496 37.7044 38.2496 37.704 38.2496 37.7036C38.2496 37.7032 38.2496 37.7028 38.2496 37.7025C38.2496 37.7021 38.2496 37.7017 38.2496 37.7013C38.2496 37.7009 38.2496 37.7006 38.2496 37.7002C38.2496 37.6998 38.2496 37.6994 38.2496 37.6991C38.2496 37.6987 38.2496 37.6983 38.2496 37.6979C38.2496 37.6975 38.2496 37.6972 38.2496 37.6968C38.2496 37.6964 38.2496 37.696 38.2496 37.6957C38.2496 37.6953 38.2496 37.6949 38.2496 37.6945C38.2496 37.6941 38.2496 37.6938 38.2496 37.6934C38.2496 37.693 38.2496 37.6926 38.2496 37.6922C38.2496 37.6919 38.2496 37.6915 38.2496 37.6911C38.2496 37.6907 38.2496 37.6904 38.2496 37.69C38.2496 37.6896 38.2496 37.6892 38.2496 37.6888C38.2496 37.6885 38.2496 37.6881 38.2496 37.6877C38.2496 37.6873 38.2496 37.6869 38.2496 37.6866C38.2496 37.6862 38.2496 37.6858 38.2496 37.6854C38.2496 37.6851 38.2496 37.6847 38.2496 37.6843C38.2496 37.6839 38.2496 37.6835 38.2496 37.6832C38.2496 37.6828 38.2496 37.6824 38.2496 37.682C38.2496 37.6816 38.2496 37.6813 38.2496 37.6809C38.2496 37.6805 38.2496 37.6801 38.2496 37.6798C38.2496 37.6794 38.2496 37.679 38.2496 37.6786C38.2496 37.6782 38.2496 37.6779 38.2496 37.6775C38.2496 37.6771 38.2496 37.6767 38.2496 37.6764C38.2496 37.676 38.2496 37.6756 38.2496 37.6752C38.2496 37.6748 38.2496 37.6745 38.2496 37.6741C38.2496 37.6737 38.2496 37.6733 38.2496 37.6729C38.2496 37.6726 38.2496 37.6722 38.2496 37.6718C38.2496 37.6714 38.2496 37.6711 38.2496 37.6707C38.2496 37.6703 38.2496 37.6699 38.2496 37.6695C38.2496 37.6692 38.2496 37.6688 38.2496 37.6684C38.2496 37.668 38.2496 37.6676 38.2496 37.6673C38.2496 37.6669 38.2496 37.6665 38.2496 37.6661C38.2496 37.6658 38.2496 37.6654 38.2496 37.665C38.2496 37.6646 38.2496 37.6642 38.2496 37.6639C38.2496 37.6635 38.2496 37.6631 38.2496 37.6627C38.2496 37.6623 38.2496 37.662 38.2496 37.6616C38.2496 37.6612 38.2496 37.6608 38.2496 37.6605C38.2496 37.6601 38.2496 37.6597 38.2496 37.6593C38.2496 37.6589 38.2496 37.6586 38.2496 37.6582C38.2496 37.6578 38.2496 37.6574 38.2496 37.657C38.2496 37.6567 38.2496 37.6563 38.2496 37.6559C38.2496 37.6555 38.2496 37.6552 38.2496 37.6548C38.2496 37.6544 38.2496 37.654 38.2496 37.6536C38.2496 37.6533 38.2496 37.6529 38.2496 37.6525C38.2496 37.6521 38.2496 37.6518 38.2496 37.6514C38.2496 37.651 38.2496 37.6506 38.2496 37.6502C38.2496 37.6499 38.2496 37.6495 38.2496 37.6491C38.2496 37.6487 38.2496 37.6483 38.2496 37.648C38.2496 37.6476 38.2496 37.6472 38.2496 37.6468C38.2496 37.6465 38.2496 37.6461 38.2496 37.6457C38.2496 37.6453 38.2496 37.6449 38.2496 37.6446C38.2496 37.6442 38.2496 37.6438 38.2496 37.6434C38.2496 37.643 38.2496 37.6427 38.2496 37.6423C38.2496 37.6419 38.2496 37.6415 38.2496 37.6412C38.2496 37.6408 38.2496 37.6404 38.2496 37.64C38.2496 37.6396 38.2496 37.6393 38.2496 37.6389C38.2496 37.6385 38.2496 37.6381 38.2496 37.6377C38.2496 37.6374 38.2496 37.637 38.2496 37.6366C38.2496 37.6362 38.2496 37.6359 38.2496 37.6355C38.2496 37.6351 38.2496 37.6347 38.2496 37.6343C38.2496 37.634 38.2496 37.6336 38.2496 37.6332C38.2496 37.6328 38.2496 37.6325 38.2496 37.6321C38.2496 37.6317 38.2496 37.6313 38.2496 37.6309C38.2496 37.6306 38.2496 37.6302 38.2496 37.6298C38.2496 37.6294 38.2496 37.629 38.2496 37.6287C38.2496 37.6283 38.2496 37.6279 38.2496 37.6275C38.2496 37.6272 38.2496 37.6268 38.2496 37.6264C38.2496 37.626 38.2496 37.6256 38.2496 37.6253C38.2496 37.6249 38.2496 37.6245 38.2496 37.6241C38.2496 37.6237 38.2496 37.6234 38.2496 37.623C38.2496 37.6226 38.2496 37.6222 38.2496 37.6219C38.2496 37.6215 38.2496 37.6211 38.2496 37.6207C38.2496 37.6203 38.2496 37.62 38.2496 37.6196C38.2496 37.6192 38.2496 37.6188 38.2496 37.6184C38.2496 37.6181 38.2496 37.6177 38.2496 37.6173C38.2496 37.6169 38.2496 37.6166 38.2496 37.6162C38.2496 37.6158 38.2496 37.6154 38.2496 37.615C38.2496 37.6147 38.2496 37.6143 38.2496 37.6139C38.2496 37.6135 38.2496 37.6132 38.2496 37.6128C38.2496 37.6124 38.2496 37.612 38.2496 37.6116C38.2496 37.6113 38.2496 37.6109 38.2496 37.6105C38.2496 37.6101 38.2496 37.6097 38.2496 37.6094C38.2496 37.609 38.2496 37.6086 38.2496 37.6082C38.2496 37.6079 38.2496 37.6075 38.2496 37.6071C38.2496 37.6067 38.2496 37.6063 38.2496 37.606C38.2496 37.6056 38.2496 37.6052 38.2496 37.6048C38.2496 37.6044 38.2496 37.6041 38.2496 37.6037C38.2496 37.6033 38.2496 37.6029 38.2496 37.6026C38.2496 37.6022 38.2496 37.6018 38.2496 37.6014C38.2496 37.601 38.2496 37.6007 38.2496 37.6003C38.2496 37.5999 38.2496 37.5995 38.2496 37.5991C38.2496 37.5988 38.2496 37.5984 38.2496 37.598C38.2496 37.5976 38.2496 37.5973 38.2496 37.5969C38.2496 37.5965 38.2496 37.5961 38.2496 37.5957C38.2496 37.5954 38.2496 37.595 38.2496 37.5946C38.2496 37.5942 38.2496 37.5939 38.2496 37.5935C38.2496 37.5931 38.2496 37.5927 38.2496 37.5923C38.2496 37.592 38.2496 37.5916 38.2496 37.5912C38.2496 37.5908 38.2496 37.5904 38.2496 37.5901C38.2496 37.5897 38.2496 37.5893 38.2496 37.5889C38.2496 37.5886 38.2496 37.5882 38.2496 37.5878C38.2496 37.5874 38.2496 37.587 38.2496 37.5867C38.2496 37.5863 38.2496 37.5859 38.2496 37.5855C38.2496 37.5851 38.2496 37.5848 38.2496 37.5844C38.2496 37.584 38.2496 37.5836 38.2496 37.5833C38.2496 37.5829 38.2496 37.5825 38.2496 37.5821C38.2496 37.5817 38.2496 37.5814 38.2496 37.581C38.2496 37.5806 38.2496 37.5802 38.2496 37.5798C38.2496 37.5795 38.2496 37.5791 38.2496 37.5787C38.2496 37.5783 38.2496 37.578 38.2496 37.5776C38.2496 37.5772 38.2496 37.5768 38.2496 37.5764C38.2496 37.5761 38.2496 37.5757 38.2496 37.5753C38.2496 37.5749 38.2496 37.5746 38.2496 37.5742C38.2496 37.5738 38.2496 37.5734 38.2496 37.573C38.2496 37.5727 38.2496 37.5723 38.2496 37.5719C38.2496 37.5715 38.2496 37.5711 38.2496 37.5708C38.2496 37.5704 38.2496 37.57 38.2496 37.5696C38.2496 37.5693 38.2496 37.5689 38.2496 37.5685C38.2496 37.5681 38.2496 37.5677 38.2496 37.5674C38.2496 37.567 38.2496 37.5666 38.2496 37.5662C38.2496 37.5658 38.2496 37.5655 38.2496 37.5651C38.2496 37.5647 38.2496 37.5643 38.2496 37.564C38.2496 37.5636 38.2496 37.5632 38.2496 37.5628C38.2496 37.5624 38.2496 37.5621 38.2496 37.5617C38.2496 37.5613 38.2496 37.5609 38.2496 37.5605C38.2496 37.5602 38.2496 37.5598 38.2496 37.5594C38.2496 37.559 38.2496 37.5587 38.2496 37.5583C38.2496 37.5579 38.2496 37.5575 38.2496 37.5571C38.2496 37.5568 38.2496 37.5564 38.2496 37.556C38.2496 37.5556 38.2496 37.5553 38.2496 37.5549C38.2496 37.5545 38.2496 37.5541 38.2496 37.5537C38.2496 37.5534 38.2496 37.553 38.2496 37.5526C38.2496 37.5522 38.2496 37.5518 38.2496 37.5515C38.2496 37.5511 38.2496 37.5507 38.2496 37.5503C38.2496 37.55 38.2496 37.5496 38.2496 37.5492C38.2496 37.5488 38.2496 37.5484 38.2496 37.5481C38.2496 37.5477 38.2496 37.5473 38.2496 37.5469C38.2496 37.5465 38.2496 37.5462 38.2496 37.5458C38.2496 37.5454 38.2496 37.545 38.2496 37.5447C38.2496 37.5443 38.2496 37.5439 38.2496 37.5435C38.2496 37.5431 38.2496 37.5428 38.2496 37.5424C38.2496 37.542 38.2496 37.5416 38.2496 37.5412C38.2496 37.5409 38.2496 37.5405 38.2496 37.5401C38.2496 37.5397 38.2496 37.5394 38.2496 37.539C38.2496 37.5386 38.2496 37.5382 38.2496 37.5378C38.2496 37.5375 38.2496 37.5371 38.2496 37.5367C38.2496 37.5363 38.2496 37.536 38.2496 37.5356C38.2496 37.5352 38.2496 37.5348 38.2496 37.5344C38.2496 37.5341 38.2496 37.5337 38.2496 37.5333C38.2496 37.5329 38.2496 37.5325 38.2496 37.5322C38.2496 37.5318 38.2496 37.5314 38.2496 37.531C38.2496 37.5307 38.2496 37.5303 38.2496 37.5299C38.2496 37.5295 38.2496 37.5291 38.2496 37.5288C38.2496 37.5284 38.2496 37.528 38.2496 37.5276C38.2496 37.5272 38.2496 37.5269 38.2496 37.5265C38.2496 37.5261 38.2496 37.5257 38.2496 37.5254C38.2496 37.525 38.2496 37.5246 38.2496 37.5242C38.2496 37.5238 38.2496 37.5235 38.2496 37.5231C38.2496 37.5227 38.2496 37.5223 38.2496 37.5219C38.2496 37.5216 38.2496 37.5212 38.2496 37.5208C38.2496 37.5204 38.2496 37.5201 38.2496 37.5197C38.2496 37.5193 38.2496 37.5189 38.2496 37.5185C38.2496 37.5182 38.2496 37.5178 38.2496 37.5174C38.2496 37.517 38.2496 37.5167 38.2496 37.5163C38.2496 37.5159 38.2496 37.5155 38.2496 37.5151C38.2496 37.5148 38.2496 37.5144 38.2496 37.514C38.2496 37.5136 38.2496 37.5132 38.2496 37.5129C38.2496 37.5125 38.2496 37.5121 38.2496 37.5117C38.2496 37.5114 38.2496 37.511 38.2496 37.5106C38.2496 37.5102 38.2496 37.5098 38.2496 37.5095C38.2496 37.5091 38.2496 37.5087 38.2496 37.5083C38.2496 37.5079 38.2496 37.5076 38.2496 37.5072C38.2496 37.5068 38.2496 37.5064 38.2496 37.5061C38.2496 37.5057 38.2496 37.5053 38.2496 37.5049C38.2496 37.5045 38.2496 37.5042 38.2496 37.5038C38.2496 37.5034 38.2496 37.503 38.2496 37.5026C38.2496 37.5023 38.2496 37.5019 38.2496 37.5015C38.2496 37.5011 38.2496 37.5008 38.2496 37.5004C38.2496 37.5 38.2496 37.4996 38.2496 37.4992C38.2496 37.4989 38.2496 37.4985 38.2496 37.4981C38.2496 37.4977 38.2496 37.4974 38.2496 37.497C38.2496 37.4966 38.2496 37.4962 38.2496 37.4958C38.2496 37.4955 38.2496 37.4951 38.2496 37.4947C38.2496 37.4943 38.2496 37.4939 38.2496 37.4936C38.2496 37.4932 38.2496 37.4928 38.2496 37.4924C38.2496 37.4921 38.2496 37.4917 38.2496 37.4913C38.2496 37.4909 38.2496 37.4905 38.2496 37.4902H36.2496C36.2496 37.4905 36.2496 37.4909 36.2496 37.4913C36.2496 37.4917 36.2496 37.4921 36.2496 37.4924C36.2496 37.4928 36.2496 37.4932 36.2496 37.4936C36.2496 37.4939 36.2496 37.4943 36.2496 37.4947C36.2496 37.4951 36.2496 37.4955 36.2496 37.4958C36.2496 37.4962 36.2496 37.4966 36.2496 37.497C36.2496 37.4974 36.2496 37.4977 36.2496 37.4981C36.2496 37.4985 36.2496 37.4989 36.2496 37.4992C36.2496 37.4996 36.2496 37.5 36.2496 37.5004C36.2496 37.5008 36.2496 37.5011 36.2496 37.5015C36.2496 37.5019 36.2496 37.5023 36.2496 37.5026C36.2496 37.503 36.2496 37.5034 36.2496 37.5038C36.2496 37.5042 36.2496 37.5045 36.2496 37.5049C36.2496 37.5053 36.2496 37.5057 36.2496 37.5061C36.2496 37.5064 36.2496 37.5068 36.2496 37.5072C36.2496 37.5076 36.2496 37.5079 36.2496 37.5083C36.2496 37.5087 36.2496 37.5091 36.2496 37.5095C36.2496 37.5098 36.2496 37.5102 36.2496 37.5106C36.2496 37.511 36.2496 37.5114 36.2496 37.5117C36.2496 37.5121 36.2496 37.5125 36.2496 37.5129C36.2496 37.5132 36.2496 37.5136 36.2496 37.514C36.2496 37.5144 36.2496 37.5148 36.2496 37.5151C36.2496 37.5155 36.2496 37.5159 36.2496 37.5163C36.2496 37.5167 36.2496 37.517 36.2496 37.5174C36.2496 37.5178 36.2496 37.5182 36.2496 37.5185C36.2496 37.5189 36.2496 37.5193 36.2496 37.5197C36.2496 37.5201 36.2496 37.5204 36.2496 37.5208C36.2496 37.5212 36.2496 37.5216 36.2496 37.5219C36.2496 37.5223 36.2496 37.5227 36.2496 37.5231C36.2496 37.5235 36.2496 37.5238 36.2496 37.5242C36.2496 37.5246 36.2496 37.525 36.2496 37.5254C36.2496 37.5257 36.2496 37.5261 36.2496 37.5265C36.2496 37.5269 36.2496 37.5272 36.2496 37.5276C36.2496 37.528 36.2496 37.5284 36.2496 37.5288C36.2496 37.5291 36.2496 37.5295 36.2496 37.5299C36.2496 37.5303 36.2496 37.5307 36.2496 37.531C36.2496 37.5314 36.2496 37.5318 36.2496 37.5322C36.2496 37.5325 36.2496 37.5329 36.2496 37.5333C36.2496 37.5337 36.2496 37.5341 36.2496 37.5344C36.2496 37.5348 36.2496 37.5352 36.2496 37.5356C36.2496 37.536 36.2496 37.5363 36.2496 37.5367C36.2496 37.5371 36.2496 37.5375 36.2496 37.5378C36.2496 37.5382 36.2496 37.5386 36.2496 37.539C36.2496 37.5394 36.2496 37.5397 36.2496 37.5401C36.2496 37.5405 36.2496 37.5409 36.2496 37.5412C36.2496 37.5416 36.2496 37.542 36.2496 37.5424C36.2496 37.5428 36.2496 37.5431 36.2496 37.5435C36.2496 37.5439 36.2496 37.5443 36.2496 37.5447C36.2496 37.545 36.2496 37.5454 36.2496 37.5458C36.2496 37.5462 36.2496 37.5465 36.2496 37.5469C36.2496 37.5473 36.2496 37.5477 36.2496 37.5481C36.2496 37.5484 36.2496 37.5488 36.2496 37.5492C36.2496 37.5496 36.2496 37.55 36.2496 37.5503C36.2496 37.5507 36.2496 37.5511 36.2496 37.5515C36.2496 37.5518 36.2496 37.5522 36.2496 37.5526C36.2496 37.553 36.2496 37.5534 36.2496 37.5537C36.2496 37.5541 36.2496 37.5545 36.2496 37.5549C36.2496 37.5553 36.2496 37.5556 36.2496 37.556C36.2496 37.5564 36.2496 37.5568 36.2496 37.5571C36.2496 37.5575 36.2496 37.5579 36.2496 37.5583C36.2496 37.5587 36.2496 37.559 36.2496 37.5594C36.2496 37.5598 36.2496 37.5602 36.2496 37.5605C36.2496 37.5609 36.2496 37.5613 36.2496 37.5617C36.2496 37.5621 36.2496 37.5624 36.2496 37.5628C36.2496 37.5632 36.2496 37.5636 36.2496 37.564C36.2496 37.5643 36.2496 37.5647 36.2496 37.5651C36.2496 37.5655 36.2496 37.5658 36.2496 37.5662C36.2496 37.5666 36.2496 37.567 36.2496 37.5674C36.2496 37.5677 36.2496 37.5681 36.2496 37.5685C36.2496 37.5689 36.2496 37.5693 36.2496 37.5696C36.2496 37.57 36.2496 37.5704 36.2496 37.5708C36.2496 37.5711 36.2496 37.5715 36.2496 37.5719C36.2496 37.5723 36.2496 37.5727 36.2496 37.573C36.2496 37.5734 36.2496 37.5738 36.2496 37.5742C36.2496 37.5746 36.2496 37.5749 36.2496 37.5753C36.2496 37.5757 36.2496 37.5761 36.2496 37.5764C36.2496 37.5768 36.2496 37.5772 36.2496 37.5776C36.2496 37.578 36.2496 37.5783 36.2496 37.5787C36.2496 37.5791 36.2496 37.5795 36.2496 37.5798C36.2496 37.5802 36.2496 37.5806 36.2496 37.581C36.2496 37.5814 36.2496 37.5817 36.2496 37.5821C36.2496 37.5825 36.2496 37.5829 36.2496 37.5833C36.2496 37.5836 36.2496 37.584 36.2496 37.5844C36.2496 37.5848 36.2496 37.5851 36.2496 37.5855C36.2496 37.5859 36.2496 37.5863 36.2496 37.5867C36.2496 37.587 36.2496 37.5874 36.2496 37.5878C36.2496 37.5882 36.2496 37.5886 36.2496 37.5889C36.2496 37.5893 36.2496 37.5897 36.2496 37.5901C36.2496 37.5904 36.2496 37.5908 36.2496 37.5912C36.2496 37.5916 36.2496 37.592 36.2496 37.5923C36.2496 37.5927 36.2496 37.5931 36.2496 37.5935C36.2496 37.5939 36.2496 37.5942 36.2496 37.5946C36.2496 37.595 36.2496 37.5954 36.2496 37.5957C36.2496 37.5961 36.2496 37.5965 36.2496 37.5969C36.2496 37.5973 36.2496 37.5976 36.2496 37.598C36.2496 37.5984 36.2496 37.5988 36.2496 37.5991C36.2496 37.5995 36.2496 37.5999 36.2496 37.6003C36.2496 37.6007 36.2496 37.601 36.2496 37.6014C36.2496 37.6018 36.2496 37.6022 36.2496 37.6026C36.2496 37.6029 36.2496 37.6033 36.2496 37.6037C36.2496 37.6041 36.2496 37.6044 36.2496 37.6048C36.2496 37.6052 36.2496 37.6056 36.2496 37.606C36.2496 37.6063 36.2496 37.6067 36.2496 37.6071C36.2496 37.6075 36.2496 37.6079 36.2496 37.6082C36.2496 37.6086 36.2496 37.609 36.2496 37.6094C36.2496 37.6097 36.2496 37.6101 36.2496 37.6105C36.2496 37.6109 36.2496 37.6113 36.2496 37.6116C36.2496 37.612 36.2496 37.6124 36.2496 37.6128C36.2496 37.6132 36.2496 37.6135 36.2496 37.6139C36.2496 37.6143 36.2496 37.6147 36.2496 37.615C36.2496 37.6154 36.2496 37.6158 36.2496 37.6162C36.2496 37.6166 36.2496 37.6169 36.2496 37.6173C36.2496 37.6177 36.2496 37.6181 36.2496 37.6184C36.2496 37.6188 36.2496 37.6192 36.2496 37.6196C36.2496 37.62 36.2496 37.6203 36.2496 37.6207C36.2496 37.6211 36.2496 37.6215 36.2496 37.6219C36.2496 37.6222 36.2496 37.6226 36.2496 37.623C36.2496 37.6234 36.2496 37.6237 36.2496 37.6241C36.2496 37.6245 36.2496 37.6249 36.2496 37.6253C36.2496 37.6256 36.2496 37.626 36.2496 37.6264C36.2496 37.6268 36.2496 37.6272 36.2496 37.6275C36.2496 37.6279 36.2496 37.6283 36.2496 37.6287C36.2496 37.629 36.2496 37.6294 36.2496 37.6298C36.2496 37.6302 36.2496 37.6306 36.2496 37.6309C36.2496 37.6313 36.2496 37.6317 36.2496 37.6321C36.2496 37.6325 36.2496 37.6328 36.2496 37.6332C36.2496 37.6336 36.2496 37.634 36.2496 37.6343C36.2496 37.6347 36.2496 37.6351 36.2496 37.6355C36.2496 37.6359 36.2496 37.6362 36.2496 37.6366C36.2496 37.637 36.2496 37.6374 36.2496 37.6377C36.2496 37.6381 36.2496 37.6385 36.2496 37.6389C36.2496 37.6393 36.2496 37.6396 36.2496 37.64C36.2496 37.6404 36.2496 37.6408 36.2496 37.6412C36.2496 37.6415 36.2496 37.6419 36.2496 37.6423C36.2496 37.6427 36.2496 37.643 36.2496 37.6434C36.2496 37.6438 36.2496 37.6442 36.2496 37.6446C36.2496 37.6449 36.2496 37.6453 36.2496 37.6457C36.2496 37.6461 36.2496 37.6465 36.2496 37.6468C36.2496 37.6472 36.2496 37.6476 36.2496 37.648C36.2496 37.6483 36.2496 37.6487 36.2496 37.6491C36.2496 37.6495 36.2496 37.6499 36.2496 37.6502C36.2496 37.6506 36.2496 37.651 36.2496 37.6514C36.2496 37.6518 36.2496 37.6521 36.2496 37.6525C36.2496 37.6529 36.2496 37.6533 36.2496 37.6536C36.2496 37.654 36.2496 37.6544 36.2496 37.6548C36.2496 37.6552 36.2496 37.6555 36.2496 37.6559C36.2496 37.6563 36.2496 37.6567 36.2496 37.657C36.2496 37.6574 36.2496 37.6578 36.2496 37.6582C36.2496 37.6586 36.2496 37.6589 36.2496 37.6593C36.2496 37.6597 36.2496 37.6601 36.2496 37.6605C36.2496 37.6608 36.2496 37.6612 36.2496 37.6616C36.2496 37.662 36.2496 37.6623 36.2496 37.6627C36.2496 37.6631 36.2496 37.6635 36.2496 37.6639C36.2496 37.6642 36.2496 37.6646 36.2496 37.665C36.2496 37.6654 36.2496 37.6658 36.2496 37.6661C36.2496 37.6665 36.2496 37.6669 36.2496 37.6673C36.2496 37.6676 36.2496 37.668 36.2496 37.6684C36.2496 37.6688 36.2496 37.6692 36.2496 37.6695C36.2496 37.6699 36.2496 37.6703 36.2496 37.6707C36.2496 37.6711 36.2496 37.6714 36.2496 37.6718C36.2496 37.6722 36.2496 37.6726 36.2496 37.6729C36.2496 37.6733 36.2496 37.6737 36.2496 37.6741C36.2496 37.6745 36.2496 37.6748 36.2496 37.6752C36.2496 37.6756 36.2496 37.676 36.2496 37.6764C36.2496 37.6767 36.2496 37.6771 36.2496 37.6775C36.2496 37.6779 36.2496 37.6782 36.2496 37.6786C36.2496 37.679 36.2496 37.6794 36.2496 37.6798C36.2496 37.6801 36.2496 37.6805 36.2496 37.6809C36.2496 37.6813 36.2496 37.6816 36.2496 37.682C36.2496 37.6824 36.2496 37.6828 36.2496 37.6832C36.2496 37.6835 36.2496 37.6839 36.2496 37.6843C36.2496 37.6847 36.2496 37.6851 36.2496 37.6854C36.2496 37.6858 36.2496 37.6862 36.2496 37.6866C36.2496 37.6869 36.2496 37.6873 36.2496 37.6877C36.2496 37.6881 36.2496 37.6885 36.2496 37.6888C36.2496 37.6892 36.2496 37.6896 36.2496 37.69C36.2496 37.6904 36.2496 37.6907 36.2496 37.6911C36.2496 37.6915 36.2496 37.6919 36.2496 37.6922C36.2496 37.6926 36.2496 37.693 36.2496 37.6934C36.2496 37.6938 36.2496 37.6941 36.2496 37.6945C36.2496 37.6949 36.2496 37.6953 36.2496 37.6957C36.2496 37.696 36.2496 37.6964 36.2496 37.6968C36.2496 37.6972 36.2496 37.6975 36.2496 37.6979C36.2496 37.6983 36.2496 37.6987 36.2496 37.6991C36.2496 37.6994 36.2496 37.6998 36.2496 37.7002C36.2496 37.7006 36.2496 37.7009 36.2496 37.7013C36.2496 37.7017 36.2496 37.7021 36.2496 37.7025C36.2496 37.7028 36.2496 37.7032 36.2496 37.7036C36.2496 37.704 36.2496 37.7044 36.2496 37.7047C36.2496 37.7051 36.2496 37.7055 36.2496 37.7059C36.2496 37.7062 36.2496 37.7066 36.2496 37.707C36.2496 37.7074 36.2496 37.7078 36.2496 37.7081C36.2496 37.7085 36.2496 37.7089 36.2496 37.7093C36.2496 37.7097 36.2496 37.71 36.2496 37.7104C36.2496 37.7108 36.2496 37.7112 36.2496 37.7115C36.2496 37.7119 36.2496 37.7123 36.2496 37.7127C36.2496 37.7131 36.2496 37.7134 36.2496 37.7138C36.2496 37.7142 36.2496 37.7146 36.2496 37.715C36.2496 37.7153 36.2496 37.7157 36.2496 37.7161C36.2496 37.7165 36.2496 37.7168 36.2496 37.7172C36.2496 37.7176 36.2496 37.718 36.2496 37.7184C36.2496 37.7187 36.2496 37.7191 36.2496 37.7195C36.2496 37.7199 36.2496 37.7202 36.2496 37.7206C36.2496 37.721 36.2496 37.7214 36.2496 37.7218C36.2496 37.7221 36.2496 37.7225 36.2496 37.7229C36.2496 37.7233 36.2496 37.7237 36.2496 37.724C36.2496 37.7244 36.2496 37.7248 36.2496 37.7252C36.2496 37.7255 36.2496 37.7259 36.2496 37.7263C36.2496 37.7267 36.2496 37.7271 36.2496 37.7274C36.2496 37.7278 36.2496 37.7282 36.2496 37.7286C36.2496 37.729 36.2496 37.7293 36.2496 37.7297C36.2496 37.7301 36.2496 37.7305 36.2496 37.7308C36.2496 37.7312 36.2496 37.7316 36.2496 37.732C36.2496 37.7324 36.2496 37.7327 36.2496 37.7331C36.2496 37.7335 36.2496 37.7339 36.2496 37.7343C36.2496 37.7346 36.2496 37.735 36.2496 37.7354C36.2496 37.7358 36.2496 37.7361 36.2496 37.7365C36.2496 37.7369 36.2496 37.7373 36.2496 37.7377C36.2496 37.738 36.2496 37.7384 36.2496 37.7388C36.2496 37.7392 36.2496 37.7395 36.2496 37.7399C36.2496 37.7403 36.2496 37.7407 36.2496 37.7411C36.2496 37.7414 36.2496 37.7418 36.2496 37.7422C36.2496 37.7426 36.2496 37.743 36.2496 37.7433C36.2496 37.7437 36.2496 37.7441 36.2496 37.7445C36.2496 37.7448 36.2496 37.7452 36.2496 37.7456C36.2496 37.746 36.2496 37.7464 36.2496 37.7467C36.2496 37.7471 36.2496 37.7475 36.2496 37.7479C36.2496 37.7483 36.2496 37.7486 36.2496 37.749C36.2496 37.7494 36.2496 37.7498 36.2496 37.7501C36.2496 37.7505 36.2496 37.7509 36.2496 37.7513C36.2496 37.7517 36.2496 37.752 36.2496 37.7524C36.2496 37.7528 36.2496 37.7532 36.2496 37.7536C36.2496 37.7539 36.2496 37.7543 36.2496 37.7547C36.2496 37.7551 36.2496 37.7554 36.2496 37.7558C36.2496 37.7562 36.2496 37.7566 36.2496 37.757C36.2496 37.7573 36.2496 37.7577 36.2496 37.7581C36.2496 37.7585 36.2496 37.7588 36.2496 37.7592C36.2496 37.7596 36.2496 37.76 36.2496 37.7604C36.2496 37.7607 36.2496 37.7611 36.2496 37.7615C36.2496 37.7619 36.2496 37.7623 36.2496 37.7626C36.2496 37.763 36.2496 37.7634 36.2496 37.7638C36.2496 37.7641 36.2496 37.7645 36.2496 37.7649C36.2496 37.7653 36.2496 37.7657 36.2496 37.766C36.2496 37.7664 36.2496 37.7668 36.2496 37.7672C36.2496 37.7676 36.2496 37.7679 36.2496 37.7683C36.2496 37.7687 36.2496 37.7691 36.2496 37.7694C36.2496 37.7698 36.2496 37.7702 36.2496 37.7706C36.2496 37.771 36.2496 37.7713 36.2496 37.7717C36.2496 37.7721 36.2496 37.7725 36.2496 37.7729C36.2496 37.7732 36.2496 37.7736 36.2496 37.774C36.2496 37.7744 36.2496 37.7747 36.2496 37.7751C36.2496 37.7755 36.2496 37.7759 36.2496 37.7763C36.2496 37.7766 36.2496 37.777 36.2496 37.7774C36.2496 37.7778 36.2496 37.7781 36.2496 37.7785C36.2496 37.7789 36.2496 37.7793 36.2496 37.7797C36.2496 37.78 36.2496 37.7804 36.2496 37.7808C36.2496 37.7812 36.2496 37.7816 36.2496 37.7819C36.2496 37.7823 36.2496 37.7827 36.2496 37.7831C36.2496 37.7834 36.2496 37.7838 36.2496 37.7842C36.2496 37.7846 36.2496 37.785 36.2496 37.7853C36.2496 37.7857 36.2496 37.7861 36.2496 37.7865C36.2496 37.7869 36.2496 37.7872 36.2496 37.7876C36.2496 37.788 36.2496 37.7884 36.2496 37.7887C36.2496 37.7891 36.2496 37.7895 36.2496 37.7899C36.2496 37.7903 36.2496 37.7906 36.2496 37.791C36.2496 37.7914 36.2496 37.7918 36.2496 37.7922C36.2496 37.7925 36.2496 37.7929 36.2496 37.7933C36.2496 37.7937 36.2496 37.794 36.2496 37.7944C36.2496 37.7948 36.2496 37.7952 36.2496 37.7956C36.2496 37.7959 36.2496 37.7963 36.2496 37.7967C36.2496 37.7971 36.2496 37.7974 36.2496 37.7978C36.2496 37.7982 36.2496 37.7986 36.2496 37.799C36.2496 37.7993 36.2496 37.7997 36.2496 37.8001C36.2496 37.8005 36.2496 37.8009 36.2496 37.8012C36.2496 37.8016 36.2496 37.802 36.2496 37.8024C36.2496 37.8027 36.2496 37.8031 36.2496 37.8035C36.2496 37.8039 36.2496 37.8043 36.2496 37.8046C36.2496 37.805 36.2496 37.8054 36.2496 37.8058C36.2496 37.8062 36.2496 37.8065 36.2496 37.8069C36.2496 37.8073 36.2496 37.8077 36.2496 37.808C36.2496 37.8084 36.2496 37.8088 36.2496 37.8092C36.2496 37.8096 36.2496 37.8099 36.2496 37.8103C36.2496 37.8107 36.2496 37.8111 36.2496 37.8115C36.2496 37.8118 36.2496 37.8122 36.2496 37.8126C36.2496 37.813 36.2496 37.8133 36.2496 37.8137C36.2496 37.8141 36.2496 37.8145 36.2496 37.8149C36.2496 37.8152 36.2496 37.8156 36.2496 37.816C36.2496 37.8164 36.2496 37.8167 36.2496 37.8171C36.2496 37.8175 36.2496 37.8179 36.2496 37.8183C36.2496 37.8186 36.2496 37.819 36.2496 37.8194C36.2496 37.8198 36.2496 37.8202 36.2496 37.8205C36.2496 37.8209 36.2496 37.8213 36.2496 37.8217C36.2496 37.822 36.2496 37.8224 36.2496 37.8228C36.2496 37.8232 36.2496 37.8236 36.2496 37.8239C36.2496 37.8243 36.2496 37.8247 36.2496 37.8251C36.2496 37.8255 36.2496 37.8258 36.2496 37.8262C36.2496 37.8266 36.2496 37.827 36.2496 37.8273C36.2496 37.8277 36.2496 37.8281 36.2496 37.8285C36.2496 37.8289 36.2496 37.8292 36.2496 37.8296C36.2496 37.83 36.2496 37.8304 36.2496 37.8308C36.2496 37.8311 36.2496 37.8315 36.2496 37.8319C36.2496 37.8323 36.2496 37.8326 36.2496 37.833C36.2496 37.8334 36.2496 37.8338 36.2496 37.8342C36.2496 37.8345 36.2496 37.8349 36.2496 37.8353C36.2496 37.8357 36.2496 37.8361 36.2496 37.8364C36.2496 37.8368 36.2496 37.8372 36.2496 37.8376C36.2496 37.8379 36.2496 37.8383 36.2496 37.8387C36.2496 37.8391 36.2496 37.8395 36.2496 37.8398C36.2496 37.8402 36.2496 37.8406 36.2496 37.841C36.2496 37.8413 36.2496 37.8417 36.2496 37.8421C36.2496 37.8425 36.2496 37.8429 36.2496 37.8432C36.2496 37.8436 36.2496 37.844 36.2496 37.8444C36.2496 37.8448 36.2496 37.8451 36.2496 37.8455C36.2496 37.8459 36.2496 37.8463 36.2496 37.8466C36.2496 37.847 36.2496 37.8474 36.2496 37.8478C36.2496 37.8482 36.2496 37.8485 36.2496 37.8489C36.2496 37.8493 36.2496 37.8497 36.2496 37.8501C36.2496 37.8504 36.2496 37.8508 36.2496 37.8512C36.2496 37.8516 36.2496 37.8519 36.2496 37.8523C36.2496 37.8527 36.2496 37.8531 36.2496 37.8535C36.2496 37.8538 36.2496 37.8542 36.2496 37.8546C36.2496 37.855 36.2496 37.8554 36.2496 37.8557C36.2496 37.8561 36.2496 37.8565 36.2496 37.8569C36.2496 37.8572 36.2496 37.8576 36.2496 37.858C36.2496 37.8584 36.2496 37.8588 36.2496 37.8591C36.2496 37.8595 36.2496 37.8599 36.2496 37.8603C36.2496 37.8606 36.2496 37.861 36.2496 37.8614C36.2496 37.8618 36.2496 37.8622 36.2496 37.8625C36.2496 37.8629 36.2496 37.8633 36.2496 37.8637C36.2496 37.8641 36.2496 37.8644 36.2496 37.8648C36.2496 37.8652 36.2496 37.8656 36.2496 37.8659C36.2496 37.8663 36.2496 37.8667 36.2496 37.8671C36.2496 37.8675 36.2496 37.8678 36.2496 37.8682C36.2496 37.8686 36.2496 37.869 36.2496 37.8694C36.2496 37.8697 36.2496 37.8701 36.2496 37.8705C36.2496 37.8709 36.2496 37.8712 36.2496 37.8716C36.2496 37.872 36.2496 37.8724 36.2496 37.8728C36.2496 37.8731 36.2496 37.8735 36.2496 37.8739C36.2496 37.8743 36.2496 37.8747 36.2496 37.875C36.2496 37.8754 36.2496 37.8758 36.2496 37.8762C36.2496 37.8765 36.2496 37.8769 36.2496 37.8773C36.2496 37.8777 36.2496 37.8781 36.2496 37.8784C36.2496 37.8788 36.2496 37.8792 36.2496 37.8796C36.2496 37.8799 36.2496 37.8803 36.2496 37.8807C36.2496 37.8811 36.2496 37.8815 36.2496 37.8818C36.2496 37.8822 36.2496 37.8826 36.2496 37.883C36.2496 37.8834 36.2496 37.8837 36.2496 37.8841C36.2496 37.8845 36.2496 37.8849 36.2496 37.8852C36.2496 37.8856 36.2496 37.886 36.2496 37.8864C36.2496 37.8868 36.2496 37.8871 36.2496 37.8875C36.2496 37.8879 36.2496 37.8883 36.2496 37.8887C36.2496 37.889 36.2496 37.8894 36.2496 37.8898C36.2496 37.8902 36.2496 37.8905 36.2496 37.8909C36.2496 37.8913 36.2496 37.8917 36.2496 37.8921C36.2496 37.8924 36.2496 37.8928 36.2496 37.8932C36.2496 37.8936 36.2496 37.894 36.2496 37.8943C36.2496 37.8947 36.2496 37.8951 36.2496 37.8955C36.2496 37.8958 36.2496 37.8962 36.2496 37.8966C36.2496 37.897 36.2496 37.8974 36.2496 37.8977C36.2496 37.8981 36.2496 37.8985 36.2496 37.8989C36.2496 37.8992 36.2496 37.8996 36.2496 37.9C36.2496 37.9004 36.2496 37.9008 36.2496 37.9011C36.2496 37.9015 36.2496 37.9019 36.2496 37.9023C36.2496 37.9027 36.2496 37.903 36.2496 37.9034C36.2496 37.9038 36.2496 37.9042 36.2496 37.9045C36.2496 37.9049 36.2496 37.9053 36.2496 37.9057C36.2496 37.9061 36.2496 37.9064 36.2496 37.9068C36.2496 37.9072 36.2496 37.9076 36.2496 37.908C36.2496 37.9083 36.2496 37.9087 36.2496 37.9091C36.2496 37.9095 36.2496 37.9098 36.2496 37.9102C36.2496 37.9106 36.2496 37.911 36.2496 37.9114C36.2496 37.9117 36.2496 37.9121 36.2496 37.9125C36.2496 37.9129 36.2496 37.9133 36.2496 37.9136C36.2496 37.914 36.2496 37.9144 36.2496 37.9148C36.2496 37.9151 36.2496 37.9155 36.2496 37.9159C36.2496 37.9163 36.2496 37.9167 36.2496 37.917C36.2496 37.9174 36.2496 37.9178 36.2496 37.9182C36.2496 37.9185 36.2496 37.9189 36.2496 37.9193C36.2496 37.9197 36.2496 37.9201 36.2496 37.9204C36.2496 37.9208 36.2496 37.9212 36.2496 37.9216C36.2496 37.922 36.2496 37.9223 36.2496 37.9227C36.2496 37.9231 36.2496 37.9235 36.2496 37.9238C36.2496 37.9242 36.2496 37.9246 36.2496 37.925C36.2496 37.9254 36.2496 37.9257 36.2496 37.9261C36.2496 37.9265 36.2496 37.9269 36.2496 37.9273C36.2496 37.9276 36.2496 37.928 36.2496 37.9284C36.2496 37.9288 36.2496 37.9291 36.2496 37.9295C36.2496 37.9299 36.2496 37.9303 36.2496 37.9307C36.2496 37.931 36.2496 37.9314 36.2496 37.9318C36.2496 37.9322 36.2496 37.9326 36.2496 37.9329C36.2496 37.9333 36.2496 37.9337 36.2496 37.9341C36.2496 37.9344 36.2496 37.9348 36.2496 37.9352C36.2496 37.9356 36.2496 37.936 36.2496 37.9363C36.2496 37.9367 36.2496 37.9371 36.2496 37.9375C36.2496 37.9378 36.2496 37.9382 36.2496 37.9386C36.2496 37.939 36.2496 37.9394 36.2496 37.9397C36.2496 37.9401 36.2496 37.9405 36.2496 37.9409C36.2496 37.9413 36.2496 37.9416 36.2496 37.942C36.2496 37.9424 36.2496 37.9428 36.2496 37.9431C36.2496 37.9435 36.2496 37.9439 36.2496 37.9443C36.2496 37.9447 36.2496 37.945 36.2496 37.9454C36.2496 37.9458 36.2496 37.9462 36.2496 37.9466C36.2496 37.9469 36.2496 37.9473 36.2496 37.9477C36.2496 37.9481 36.2496 37.9484 36.2496 37.9488C36.2496 37.9492 36.2496 37.9496 36.2496 37.95C36.2496 37.9503 36.2496 37.9507 36.2496 37.9511C36.2496 37.9515 36.2496 37.9519 36.2496 37.9522C36.2496 37.9526 36.2496 37.953 36.2496 37.9534C36.2496 37.9537 36.2496 37.9541 36.2496 37.9545C36.2496 37.9549 36.2496 37.9553 36.2496 37.9556C36.2496 37.956 36.2496 37.9564 36.2496 37.9568C36.2496 37.9571 36.2496 37.9575 36.2496 37.9579C36.2496 37.9583 36.2496 37.9587 36.2496 37.959C36.2496 37.9594 36.2496 37.9598 36.2496 37.9602C36.2496 37.9606 36.2496 37.9609 36.2496 37.9613C36.2496 37.9617 36.2496 37.9621 36.2496 37.9624C36.2496 37.9628 36.2496 37.9632 36.2496 37.9636C36.2496 37.964 36.2496 37.9643 36.2496 37.9647C36.2496 37.9651 36.2496 37.9655 36.2496 37.9659C36.2496 37.9662 36.2496 37.9666 36.2496 37.967C36.2496 37.9674 36.2496 37.9677 36.2496 37.9681C36.2496 37.9685 36.2496 37.9689 36.2496 37.9693C36.2496 37.9696 36.2496 37.97 36.2496 37.9704C36.2496 37.9708 36.2496 37.9712 36.2496 37.9715C36.2496 37.9719 36.2496 37.9723 36.2496 37.9727C36.2496 37.973 36.2496 37.9734 36.2496 37.9738C36.2496 37.9742 36.2496 37.9746 36.2496 37.9749C36.2496 37.9753 36.2496 37.9757 36.2496 37.9761C36.2496 37.9764 36.2496 37.9768 36.2496 37.9772C36.2496 37.9776 36.2496 37.978 36.2496 37.9783C36.2496 37.9787 36.2496 37.9791 36.2496 37.9795C36.2496 37.9799 36.2496 37.9802 36.2496 37.9806C36.2496 37.981 36.2496 37.9814 36.2496 37.9817C36.2496 37.9821 36.2496 37.9825 36.2496 37.9829C36.2496 37.9833 36.2496 37.9836 36.2496 37.984C36.2496 37.9844 36.2496 37.9848 36.2496 37.9852C36.2496 37.9855 36.2496 37.9859 36.2496 37.9863C36.2496 37.9867 36.2496 37.987 36.2496 37.9874C36.2496 37.9878 36.2496 37.9882 36.2496 37.9886C36.2496 37.9889 36.2496 37.9893 36.2496 37.9897C36.2496 37.9901 36.2496 37.9905 36.2496 37.9908C36.2496 37.9912 36.2496 37.9916 36.2496 37.992C36.2496 37.9923 36.2496 37.9927 36.2496 37.9931C36.2496 37.9935 36.2496 37.9939 36.2496 37.9942C36.2496 37.9946 36.2496 37.995 36.2496 37.9954C36.2496 37.9957 36.2496 37.9961 36.2496 37.9965C36.2496 37.9969 36.2496 37.9973 36.2496 37.9976C36.2496 37.998 36.2496 37.9984 36.2496 37.9988C36.2496 37.9992 36.2496 37.9995 36.2496 37.9999C36.2496 38.0003 36.2496 38.0007 36.2496 38.001C36.2496 38.0014 36.2496 38.0018 36.2496 38.0022C36.2496 38.0026 36.2496 38.0029 36.2496 38.0033C36.2496 38.0037 36.2496 38.0041 36.2496 38.0045C36.2496 38.0048 36.2496 38.0052 36.2496 38.0056C36.2496 38.006 36.2496 38.0063 36.2496 38.0067C36.2496 38.0071 36.2496 38.0075 36.2496 38.0079C36.2496 38.0082 36.2496 38.0086 36.2496 38.009C36.2496 38.0094 36.2496 38.0098 36.2496 38.0101C36.2496 38.0105 36.2496 38.0109 36.2496 38.0113C36.2496 38.0116 36.2496 38.012 36.2496 38.0124C36.2496 38.0128 36.2496 38.0132 36.2496 38.0135C36.2496 38.0139 36.2496 38.0143 36.2496 38.0147C36.2496 38.0151 36.2496 38.0154 36.2496 38.0158C36.2496 38.0162 36.2496 38.0166 36.2496 38.0169C36.2496 38.0173 36.2496 38.0177 36.2496 38.0181C36.2496 38.0185 36.2496 38.0188 36.2496 38.0192C36.2496 38.0196 36.2496 38.02 36.2496 38.0203C36.2496 38.0207 36.2496 38.0211 36.2496 38.0215C36.2496 38.0219 36.2496 38.0222 36.2496 38.0226C36.2496 38.023 36.2496 38.0234 36.2496 38.0238C36.2496 38.0241 36.2496 38.0245 36.2496 38.0249C36.2496 38.0253 36.2496 38.0256 36.2496 38.026C36.2496 38.0264 36.2496 38.0268 36.2496 38.0272C36.2496 38.0275 36.2496 38.0279 36.2496 38.0283C36.2496 38.0287 36.2496 38.0291 36.2496 38.0294C36.2496 38.0298 36.2496 38.0302 36.2496 38.0306C36.2496 38.0309 36.2496 38.0313 36.2496 38.0317C36.2496 38.0321 36.2496 38.0325 36.2496 38.0328C36.2496 38.0332 36.2496 38.0336 36.2496 38.034C36.2496 38.0344 36.2496 38.0347 36.2496 38.0351C36.2496 38.0355 36.2496 38.0359 36.2496 38.0362C36.2496 38.0366 36.2496 38.037 36.2496 38.0374C36.2496 38.0378 36.2496 38.0381 36.2496 38.0385C36.2496 38.0389 36.2496 38.0393 36.2496 38.0396C36.2496 38.04 36.2496 38.0404 36.2496 38.0408C36.2496 38.0412 36.2496 38.0415 36.2496 38.0419C36.2496 38.0423 36.2496 38.0427 36.2496 38.0431C36.2496 38.0434 36.2496 38.0438 36.2496 38.0442C36.2496 38.0446 36.2496 38.0449 36.2496 38.0453C36.2496 38.0457 36.2496 38.0461 36.2496 38.0465C36.2496 38.0468 36.2496 38.0472 36.2496 38.0476C36.2496 38.048 36.2496 38.0484 36.2496 38.0487C36.2496 38.0491 36.2496 38.0495 36.2496 38.0499C36.2496 38.0502 36.2496 38.0506 36.2496 38.051C36.2496 38.0514 36.2496 38.0518 36.2496 38.0521C36.2496 38.0525 36.2496 38.0529 36.2496 38.0533C36.2496 38.0537 36.2496 38.054 36.2496 38.0544C36.2496 38.0548 36.2496 38.0552 36.2496 38.0555C36.2496 38.0559 36.2496 38.0563 36.2496 38.0567C36.2496 38.0571 36.2496 38.0574 36.2496 38.0578C36.2496 38.0582 36.2496 38.0586 36.2496 38.0589C36.2496 38.0593 36.2496 38.0597 36.2496 38.0601C36.2496 38.0605 36.2496 38.0608 36.2496 38.0612C36.2496 38.0616 36.2496 38.062 36.2496 38.0624C36.2496 38.0627 36.2496 38.0631 36.2496 38.0635C36.2496 38.0639 36.2496 38.0642 36.2496 38.0646C36.2496 38.065 36.2496 38.0654 36.2496 38.0658C36.2496 38.0661 36.2496 38.0665 36.2496 38.0669C36.2496 38.0673 36.2496 38.0677 36.2496 38.068C36.2496 38.0684 36.2496 38.0688 36.2496 38.0692C36.2496 38.0695 36.2496 38.0699 36.2496 38.0703C36.2496 38.0707 36.2496 38.0711 36.2496 38.0714H38.2496ZM38.2496 37.4902C38.2496 32.9078 41.9677 29.1897 46.5501 29.1897V27.1897C40.8632 27.1897 36.2496 31.8033 36.2496 37.4902H38.2496ZM46.5501 29.1897C51.1324 29.1897 54.8505 32.9078 54.8505 37.4902H56.8505C56.8505 31.8033 52.237 27.1897 46.5501 27.1897V29.1897ZM54.3004 41.5903C54.3602 41.5903 54.4535 41.6016 54.6434 41.6287C54.7926 41.65 55.0384 41.6872 55.2692 41.6872V39.6872C55.2095 39.6872 55.1162 39.6759 54.9263 39.6488C54.7771 39.6275 54.5313 39.5903 54.3004 39.5903V41.5903ZM55.2692 41.6872C55.6552 41.6872 55.9546 41.6891 56.3326 41.7646L56.7248 39.8035C56.1339 39.6853 55.6583 39.6872 55.2692 39.6872V41.6872ZM57.2906 41.4317C58.7653 39.6968 61.0142 38.4902 63.6009 38.4902V36.4902C60.3748 36.4902 57.5859 37.9962 55.7667 40.1364L57.2906 41.4317ZM63.6009 38.4902H64.6666V36.4902H63.6009V38.4902ZM64.6666 38.4902C64.9793 38.4902 65.311 38.8568 65.236 39.2316L67.1972 39.6239C67.5098 38.0611 66.2914 36.4902 64.6666 36.4902V38.4902ZM65.2465 39.1852L63.8902 44.6105L65.8305 45.0955L67.1868 39.6703L65.2465 39.1852ZM64.2018 45.6056C65.6181 46.8448 66.7041 48.4592 67.5329 50.3011L69.3568 49.4804C68.4418 47.4471 67.2027 45.5738 65.5188 44.1004L64.2018 45.6056ZM68.4449 50.8907H69.8012V48.8907H68.4449V50.8907ZM69.8012 50.8907C70.8958 50.8907 71.9013 51.8962 71.9013 52.9909H73.9013C73.9013 50.7917 72.0004 48.8907 69.8012 48.8907V50.8907ZM71.9013 52.9909V62.2913H73.9013V52.9909H71.9013ZM71.9013 62.2913C71.9013 63.4627 70.9162 64.3915 69.8012 64.3915V66.3915C71.98 66.3915 73.9013 64.6076 73.9013 62.2913H71.9013ZM69.8012 64.3915H66.701V66.3915H69.8012V64.3915ZM65.9084 64.7818C64.9898 65.976 64.0845 66.8789 63.0009 67.6916L64.2009 69.2916C65.4424 68.3605 66.4747 67.3258 67.4936 66.0012L65.9084 64.7818ZM62.6009 68.4916V74.6919H64.6009V68.4916H62.6009ZM62.6009 74.6919C62.6009 75.8633 61.6158 76.7921 60.5007 76.7921V78.7921C62.6796 78.7921 64.6009 77.0082 64.6009 74.6919H62.6009ZM60.5007 76.7921H57.4006V78.7921H60.5007V76.7921ZM57.4006 76.7921C56.209 76.7921 55.3004 75.8835 55.3004 74.6919H53.3004C53.3004 76.988 55.1045 78.7921 57.4006 78.7921V76.7921ZM55.3004 74.6919V71.5918H53.3004V74.6919H55.3004ZM54.3004 70.5918H41.8999V72.5918H54.3004V70.5918ZM40.8999 71.5918V74.6919H42.8999V71.5918H40.8999ZM40.8999 74.6919C40.8999 75.8633 39.9148 76.7921 38.7997 76.7921V78.7921C40.9786 78.7921 42.8999 77.0082 42.8999 74.6919H40.8999ZM38.7997 76.7921H35.6996V78.7921H38.7997V76.7921ZM35.6996 76.7921C34.508 76.7921 33.5994 75.8835 33.5994 74.6919H31.5994C31.5994 76.988 33.4034 78.7921 35.6996 78.7921V76.7921ZM33.5994 74.6919V68.4916H31.5994V74.6919H33.5994ZM33.1957 67.6889C30.023 65.332 27.8468 61.7059 27.3933 57.533L25.405 57.7492C25.9202 62.4893 28.3943 66.6135 32.0031 69.2944L33.1957 67.6889ZM26.3991 56.6411H23.6865V58.6411H26.3991V56.6411ZM23.6865 56.6411C20.5574 56.6411 18.0987 54.1824 18.0987 51.0533H16.0987C16.0987 55.287 19.4528 58.6411 23.6865 58.6411V56.6411ZM18.0987 51.0533C18.0987 48.0114 20.5669 45.4655 23.6865 45.4655V43.4655C19.4432 43.4655 16.0987 46.9261 16.0987 51.0533H18.0987ZM23.6865 45.4655H24.074V43.4655H23.6865V45.4655ZM24.074 45.4655C24.7812 45.4655 25.3991 46.0834 25.3991 46.7906H27.3991C27.3991 44.9789 25.8857 43.4655 24.074 43.4655V45.4655ZM25.3991 46.7906C25.3991 47.5675 24.8087 48.1157 24.074 48.1157V50.1157C25.8582 50.1157 27.3991 48.7263 27.3991 46.7906H25.3991ZM24.074 48.1157H23.6865V50.1157H24.074V48.1157ZM23.6865 48.1157C22.0685 48.1157 20.7489 49.4353 20.7489 51.0533H22.7489C22.7489 50.5399 23.1731 50.1157 23.6865 50.1157V48.1157ZM20.7489 51.0533C20.7489 52.6713 22.0685 53.9909 23.6865 53.9909V51.9909C23.1731 51.9909 22.7489 51.5667 22.7489 51.0533H20.7489ZM23.6865 53.9909H26.6898V51.9909H23.6865V53.9909ZM27.6697 53.1902C28.7567 47.8458 32.8349 43.4982 38.1742 42.1408L37.6814 40.2024C31.5889 41.7514 26.9479 46.7042 25.7098 52.7916L27.6697 53.1902ZM38.2219 42.1274C39.3799 41.771 40.6366 41.5903 41.8999 41.5903V39.5903C40.4504 39.5903 38.9945 39.7971 37.6337 40.2158L38.2219 42.1274ZM41.8999 41.5903H54.3004V39.5903H41.8999V41.5903ZM61.5007 53.7659C61.5007 51.9542 59.9873 50.4408 58.1756 50.4408V52.4408C58.8828 52.4408 59.5007 53.0588 59.5007 53.7659H61.5007ZM58.1756 50.4408C56.2399 50.4408 54.8505 51.9817 54.8505 53.7659H56.8505C56.8505 53.0313 57.3987 52.4408 58.1756 52.4408V50.4408ZM54.8505 53.7659C54.8505 55.6745 56.267 57.091 58.1756 57.091V55.091C57.3716 55.091 56.8505 54.57 56.8505 53.7659H54.8505ZM58.1756 57.091C59.9598 57.091 61.5007 55.7017 61.5007 53.7659H59.5007C59.5007 54.5428 58.9103 55.091 58.1756 55.091V57.091Z" fill="white"/>
</g>
</g>
</g>
<defs>
<filter id="filter0_b_117_1114" x="9.09863" y="20.1897" width="71.8027" height="65.6023" filterUnits="userSpaceOnUse" color-interpolation-filters="sRGB">
<feFlood flood-opacity="0" result="BackgroundImageFix"/>
<feGaussianBlur in="BackgroundImageFix" stdDeviation="4"/>
<feComposite in2="SourceAlpha" operator="in" result="effect1_backgroundBlur_117_1114"/>
<feBlend mode="normal" in="SourceGraphic" in2="effect1_backgroundBlur_117_1114" result="shape"/>
</filter>
<radialGradient id="paint0_radial_117_1114" cx="0" cy="0" r="1" gradientUnits="userSpaceOnUse" gradientTransform="translate(47 45.5283) scale(98.5 98.5)">
<stop stop-color="#969696"/>
<stop offset="0.9999" stop-color="#989898"/>
<stop offset="1" stop-color="#989898" stop-opacity="0"/>
</radialGradient>
<radialGradient id="paint1_radial_117_1114" cx="0" cy="0" r="1" gradientUnits="userSpaceOnUse" gradientTransform="translate(49 45.5283) scale(67.5 67.5)">
<stop stop-color="#969696"/>
<stop offset="0.9999" stop-color="#989898"/>
<stop offset="1" stop-color="#989898" stop-opacity="0"/>
</radialGradient>
<radialGradient id="paint2_radial_117_1114" cx="0" cy="0" r="1" gradientUnits="userSpaceOnUse" gradientTransform="translate(45 45.5283) scale(50.5 50.5)">
<stop stop-color="#969696"/>
<stop offset="0.9999" stop-color="#989898"/>
<stop offset="1" stop-color="#989898" stop-opacity="0"/>
</radialGradient>
</defs>
</svg>
