<svg viewBox="0 0 251 80" fill="none" xmlns="http://www.w3.org/2000/svg">
<g id="s2-swap-img">
<g id="buttons">
<rect y="0.75" width="251" height="64" rx="8" fill="#00FFF0" fill-opacity="0.08"/>
<rect y="0.75" width="251" height="64" rx="8" fill="url(#paint0_radial_117_1014)" fill-opacity="0.1"/>
<rect y="0.75" width="251" height="64" rx="8" fill="url(#paint1_radial_117_1014)" fill-opacity="0.1"/>
<rect y="0.75" width="251" height="64" rx="8" fill="url(#paint2_radial_117_1014)" fill-opacity="0.1"/>
<path id="SWAP" d="M95.3441 29.63C95.3441 30.062 95.4801 30.406 95.7521 30.662C96.0241 30.918 96.3841 31.126 96.8321 31.286C97.2961 31.446 97.8081 31.582 98.3681 31.694C98.9441 31.79 99.5361 31.902 100.144 32.03C100.752 32.158 101.336 32.326 101.896 32.534C102.472 32.742 102.992 33.022 103.456 33.374C103.92 33.726 104.28 34.182 104.536 34.742C104.808 35.302 104.944 35.998 104.944 36.83C104.944 37.95 104.656 38.91 104.08 39.71C103.52 40.494 102.744 41.094 101.752 41.51C100.76 41.926 99.6241 42.134 98.3441 42.134C97.0641 42.134 95.9121 41.934 94.8881 41.534C93.8801 41.134 93.0481 40.526 92.3921 39.71C91.7521 38.894 91.3361 37.87 91.1441 36.638H95.2001C95.3601 37.438 95.7121 38.054 96.2561 38.486C96.8001 38.918 97.5041 39.134 98.3681 39.134C99.2481 39.134 99.9041 38.974 100.336 38.654C100.784 38.318 101.008 37.87 101.008 37.31C101.008 36.862 100.872 36.494 100.6 36.206C100.328 35.918 99.9601 35.694 99.4961 35.534C99.0481 35.358 98.5361 35.214 97.9601 35.102C97.4001 34.974 96.8161 34.838 96.2081 34.694C95.6001 34.55 95.0081 34.374 94.4321 34.166C93.8721 33.958 93.3601 33.686 92.8961 33.35C92.4321 32.998 92.0641 32.558 91.7921 32.03C91.5201 31.486 91.3841 30.806 91.3841 29.99C91.3841 29.078 91.6321 28.246 92.1281 27.494C92.6241 26.742 93.3361 26.15 94.2641 25.718C95.2081 25.27 96.3441 25.046 97.6721 25.046C98.8081 25.046 99.8641 25.238 100.84 25.622C101.816 25.99 102.624 26.566 103.264 27.35C103.92 28.134 104.328 29.158 104.488 30.422H100.384C100.224 29.606 99.9041 29.006 99.4241 28.622C98.9441 28.238 98.3121 28.046 97.5281 28.046C96.8561 28.046 96.3201 28.19 95.9201 28.478C95.5361 28.766 95.3441 29.15 95.3441 29.63ZM120.842 41.75L118.178 32.366L117.626 29.942H117.938L117.386 32.366L114.746 41.75H110.426L105.602 25.43H109.706L112.322 36.134L112.922 38.774H112.61L113.186 36.134L116.21 25.43H119.57L122.57 36.134L123.17 38.774H122.858L123.434 36.134L126.05 25.43H129.938L125.114 41.75H120.842ZM132.975 38.702V35.75H140.727V38.702H132.975ZM141.159 41.75L137.367 31.046L136.743 28.67H137.031L136.383 31.046L132.591 41.75H128.727L134.679 25.43H139.287L145.263 41.75H141.159ZM146.898 41.75V25.43H150.738V41.75H146.898ZM153.306 36.422H149.706V33.374H153.09C154.018 33.374 154.706 33.15 155.154 32.702C155.602 32.254 155.826 31.662 155.826 30.926C155.826 30.174 155.602 29.582 155.154 29.15C154.706 28.702 154.05 28.478 153.186 28.478H149.706V25.43H153.258C154.618 25.43 155.778 25.646 156.738 26.078C157.714 26.51 158.466 27.142 158.994 27.974C159.522 28.79 159.786 29.766 159.786 30.902C159.786 32.662 159.202 34.022 158.034 34.982C156.866 35.942 155.29 36.422 153.306 36.422Z" fill="#00FFF0"/>
</g>
<g id="cursor-img">
<g id="v6-icon (free)">
<path id="icon" d="M230.5 50.75C230.5 49.9375 231.125 49.25 231.938 49.25C232.25 49.25 232.625 49.4375 232.875 49.625L250 64.875C250.312 65.125 250.5 65.5 250.5 65.875C250.5 66.6875 249.875 67.25 249.062 67.25H241.688L245.25 74.375C245.75 75.375 245.375 76.5625 244.375 77.0625C243.375 77.5625 242.188 77.1875 241.688 76.1875L238.062 68.875L232.875 74.8125C232.625 75.125 232.25 75.25 231.875 75.25C231.062 75.25 230.5 74.6875 230.5 73.875V50.75Z" fill="white"/>
</g>
<path id="Vector 15" d="M231.5 38.25V25.75M237.5 44.25L250 38.25M225.5 44.25L213 38.25M225.5 54.25L213 60.75" stroke="white" stroke-width="2" stroke-linecap="round"/>
</g>
</g>
<defs>
<radialGradient id="paint0_radial_117_1014" cx="0" cy="0" r="1" gradientUnits="userSpaceOnUse" gradientTransform="translate(231 45.75) rotate(-180) scale(85.5)">
<stop stop-color="#969696"/>
<stop offset="0.9999" stop-color="#989898"/>
<stop offset="1" stop-color="#989898" stop-opacity="0"/>
</radialGradient>
<radialGradient id="paint1_radial_117_1014" cx="0" cy="0" r="1" gradientUnits="userSpaceOnUse" gradientTransform="translate(231 45.75) rotate(-180) scale(61.5)">
<stop stop-color="#969696"/>
<stop offset="0.9999" stop-color="#989898"/>
<stop offset="1" stop-color="#989898" stop-opacity="0"/>
</radialGradient>
<radialGradient id="paint2_radial_117_1014" cx="0" cy="0" r="1" gradientUnits="userSpaceOnUse" gradientTransform="translate(231 45.75) rotate(-180) scale(36.5)">
<stop stop-color="#969696"/>
<stop offset="0.9999" stop-color="#989898"/>
<stop offset="1" stop-color="#989898" stop-opacity="0"/>
</radialGradient>
</defs>
</svg>
