<svg viewBox="0 0 34 38" fill="none" xmlns="http://www.w3.org/2000/svg">
<path d="M21.8176 24.2558L21.7839 24.2512H21.75H12.25C8.5176 24.2512 5.83617 25.9687 3.99212 28.2051C2.15909 30.428 1.14597 33.1679 0.701453 35.2804C0.506561 36.2066 1.23975 37.0012 2.13295 37.0012H31.75C32.5692 37.0012 33.277 36.3257 33.2109 35.461C32.9134 31.5695 30.9603 28.8798 28.6378 27.1136C26.328 25.3571 23.645 24.505 21.8176 24.2558ZM8.25058 9.52529C8.47098 14.1021 12.2364 17.2584 16.7231 17.5005C18.2353 17.5821 19.3023 17.0282 20.2777 16.4394C20.403 16.3638 20.5263 16.288 20.6485 16.2129C21.4873 15.6975 22.2791 15.211 23.3505 14.991C26.2931 14.3869 29.0395 14.6448 31.4286 15.0595C32.0484 15.1672 32.6124 14.9048 32.9042 14.4477C33.2055 13.9758 33.1817 13.3462 32.7302 12.8597C31.3432 11.3651 29.1914 9.69101 26.4988 9.14511C26.206 9.08575 25.9852 8.83716 25.9615 8.55063C25.7487 5.97444 24.6642 3.99352 23.0306 2.67069C21.4041 1.3536 19.2693 0.717312 16.9925 0.751294C12.1964 0.822878 8.01587 4.65134 8.25058 9.52529Z" fill="url(#paint0_linear_118_1080)" fill-opacity="0.5" stroke="white"/>
<defs>
<linearGradient id="paint0_linear_118_1080" x1="34" y1="1.37561" x2="-1.25" y2="36.6256" gradientUnits="userSpaceOnUse">
<stop stop-color="white"/>
<stop offset="1" stop-color="white" stop-opacity="0"/>
</linearGradient>
</defs>
</svg>
