<svg width="372" height="377" viewBox="0 0 372 377" fill="none" xmlns="http://www.w3.org/2000/svg">
<g clip-path="url(#clip0_301_1698)">
<path d="M80.4683 275.787L178.096 219.427C183.954 216.045 193.418 216.064 199.276 219.445L221.901 232.507C227.759 235.888 227.759 241.371 221.901 244.752L76.2887 328.814C70.4315 332.196 60.935 332.196 55.0778 328.814L32.4518 315.752C26.5946 312.371 17.0981 312.371 11.2409 315.752L-62.7987 358.495C-68.656 361.877 -78.1524 361.877 -84.0097 358.495L-108.395 344.418C-114.252 341.037 -114.252 335.554 -108.395 332.173L13.6763 261.701C19.5335 258.32 29.03 258.32 34.8872 261.701L59.272 275.779C65.1293 279.16 74.6111 279.169 80.4683 275.787Z" fill="url(#paint0_linear_301_1698)" stroke="url(#paint1_linear_301_1698)" stroke-width="1.53073"/>
<path d="M198.953 231.756L67.4421 307.677L25.4994 283.464L-58.5213 331.969" stroke="url(#paint2_linear_301_1698)" stroke-width="4.5922" stroke-linecap="round" stroke-dasharray="9.18 9.18"/>
<g opacity="0.4" filter="url(#filter0_f_301_1698)">
<path d="M293.291 159.153L195.663 215.514C189.805 218.896 189.837 224.359 195.694 227.741L218.32 240.803C224.178 244.184 233.674 244.184 239.531 240.803L385.144 156.741C391.001 153.359 391.001 147.877 385.144 144.496L362.518 131.434C356.661 128.052 356.661 122.57 362.518 119.188L436.558 76.4454C442.415 73.064 442.415 67.5817 436.558 64.2003L412.173 50.123C406.316 46.7416 396.819 46.7416 390.962 50.123L268.891 120.594C263.034 123.976 263.034 129.458 268.891 132.839L293.276 146.917C299.133 150.298 299.148 155.772 293.291 159.153Z" fill="url(#paint3_linear_301_1698)" stroke="url(#paint4_linear_301_1698)" stroke-width="1.53073"/>
<path d="M217.019 227.554L348.53 151.633L306.587 127.42L390.608 78.9146" stroke="url(#paint5_linear_301_1698)" stroke-width="4.5922" stroke-linecap="round" stroke-dasharray="9.18 9.18"/>
</g>
<g opacity="0.8" filter="url(#filter1_f_301_1698)">
<ellipse cx="180.704" cy="234.597" rx="98.9881" ry="52.9752" transform="rotate(30.557 180.704 234.597)" fill="#D0AC0F"/>
</g>
<g filter="url(#filter2_f_301_1698)">
<ellipse cx="181.257" cy="246.791" rx="74.4033" ry="52.4721" transform="rotate(30.557 181.257 246.791)" fill="#1A1502"/>
</g>
<mask id="mask0_301_1698" style="mask-type:alpha" maskUnits="userSpaceOnUse" x="108" y="77" width="160" height="211">
<rect x="2.96931" y="3.92599" width="157.666" height="157.666" rx="78.8328" transform="matrix(0.959284 0.282443 0.0106143 0.999944 108.524 76.8102)" fill="#2E2E2E"/>
<path d="M158.082 134.32L187.264 125.27L216.822 151.614L205.875 154.589L187.401 138.182L168.703 143.645L158.082 134.32ZM216.593 173.483L205.972 164.158L187.736 169.756L168.805 153.214L158.316 156.324L158.453 169.241L176.926 185.648L177.165 208.131L187.791 217.933L198.275 214.346L198.041 192.341L216.281 186.744L216.139 173.349L216.593 173.483ZM216.968 208.877L216.831 195.965L206.352 199.553L206.484 211.988L216.968 208.877ZM224.816 215.482L206.576 221.079L206.713 233.992L235.895 224.942L235.519 189.547L224.582 193.477L224.816 215.482ZM213.727 161.671L224.353 171.474L224.49 184.391L234.974 180.804L234.837 167.886L224.211 158.084L213.727 161.671ZM177.261 217.213L177.399 230.126L188.025 239.929L198.508 236.341L198.371 223.429L187.887 227.016L177.261 217.213ZM158.692 191.719L169.313 201.044L169.175 188.132L158.549 178.329L158.692 191.719ZM176.556 150.727L187.182 160.529L198.124 157.077L187.498 147.274L176.556 150.727ZM150.469 149.72L161.411 146.267L150.326 136.33L139.847 139.918L139.984 152.831L150.61 162.634L150.473 149.721L150.469 149.72ZM150.702 171.725L140.076 161.922L140.452 197.316L170.009 223.661L169.872 210.749L151.399 194.342L151.16 171.859L150.702 171.725Z" fill="#DDB519"/>
<path d="M158.082 134.32L187.264 125.27L216.822 151.614L205.875 154.589L187.401 138.182L168.703 143.645L158.082 134.32ZM216.593 173.483L205.972 164.158L187.736 169.756L168.805 153.214L158.316 156.324L158.453 169.241L176.926 185.648L177.165 208.131L187.791 217.933L198.275 214.346L198.041 192.341L216.281 186.744L216.139 173.349L216.593 173.483ZM216.968 208.877L216.831 195.965L206.352 199.553L206.484 211.988L216.968 208.877ZM224.816 215.482L206.576 221.079L206.713 233.992L235.895 224.942L235.519 189.547L224.582 193.477L224.816 215.482ZM213.727 161.671L224.353 171.474L224.49 184.391L234.974 180.804L234.837 167.886L224.211 158.084L213.727 161.671ZM177.261 217.213L177.399 230.126L188.025 239.929L198.508 236.341L198.371 223.429L187.887 227.016L177.261 217.213ZM158.692 191.719L169.313 201.044L169.175 188.132L158.549 178.329L158.692 191.719ZM176.556 150.727L187.182 160.529L198.124 157.077L187.498 147.274L176.556 150.727ZM150.469 149.72L161.411 146.267L150.326 136.33L139.847 139.918L139.984 152.831L150.61 162.634L150.473 149.721L150.469 149.72ZM150.702 171.725L140.076 161.922L140.452 197.316L170.009 223.661L169.872 210.749L151.399 194.342L151.16 171.859L150.702 171.725Z" fill="url(#paint6_radial_301_1698)"/>
<rect x="2.96931" y="3.92599" width="157.666" height="157.666" rx="78.8328" transform="matrix(0.959284 0.282443 0.0106143 0.999944 108.524 76.8102)" stroke="#141414" stroke-width="6.12294"/>
<rect x="2.96931" y="3.92599" width="157.666" height="157.666" rx="78.8328" transform="matrix(0.959284 0.282443 0.0106143 0.999944 108.524 76.8102)" stroke="url(#paint7_radial_301_1698)" stroke-width="6.12294"/>
</mask>
<g mask="url(#mask0_301_1698)">
<rect x="2.96931" y="3.92599" width="157.666" height="157.666" rx="78.8328" transform="matrix(0.959284 0.282443 0.0106143 0.999944 108.524 76.8102)" fill="#2E2E2E"/>
<path d="M158.082 134.32L187.264 125.27L216.822 151.614L205.875 154.589L187.401 138.182L168.703 143.645L158.082 134.32ZM216.593 173.483L205.972 164.158L187.736 169.756L168.805 153.214L158.316 156.324L158.453 169.241L176.926 185.648L177.165 208.131L187.791 217.933L198.275 214.346L198.041 192.341L216.281 186.744L216.139 173.349L216.593 173.483ZM216.968 208.877L216.831 195.965L206.352 199.553L206.484 211.988L216.968 208.877ZM224.816 215.482L206.576 221.079L206.713 233.992L235.895 224.942L235.519 189.547L224.582 193.477L224.816 215.482ZM213.727 161.671L224.353 171.474L224.49 184.391L234.974 180.804L234.837 167.886L224.211 158.084L213.727 161.671ZM177.261 217.213L177.399 230.126L188.025 239.929L198.508 236.341L198.371 223.429L187.887 227.016L177.261 217.213ZM158.692 191.719L169.313 201.044L169.175 188.132L158.549 178.329L158.692 191.719ZM176.556 150.727L187.182 160.529L198.124 157.077L187.498 147.274L176.556 150.727ZM150.469 149.72L161.411 146.267L150.326 136.33L139.847 139.918L139.984 152.831L150.61 162.634L150.473 149.721L150.469 149.72ZM150.702 171.725L140.076 161.922L140.452 197.316L170.009 223.661L169.872 210.749L151.399 194.342L151.16 171.859L150.702 171.725Z" fill="#DDB519"/>
<path d="M158.082 134.32L187.264 125.27L216.822 151.614L205.875 154.589L187.401 138.182L168.703 143.645L158.082 134.32ZM216.593 173.483L205.972 164.158L187.736 169.756L168.805 153.214L158.316 156.324L158.453 169.241L176.926 185.648L177.165 208.131L187.791 217.933L198.275 214.346L198.041 192.341L216.281 186.744L216.139 173.349L216.593 173.483ZM216.968 208.877L216.831 195.965L206.352 199.553L206.484 211.988L216.968 208.877ZM224.816 215.482L206.576 221.079L206.713 233.992L235.895 224.942L235.519 189.547L224.582 193.477L224.816 215.482ZM213.727 161.671L224.353 171.474L224.49 184.391L234.974 180.804L234.837 167.886L224.211 158.084L213.727 161.671ZM177.261 217.213L177.399 230.126L188.025 239.929L198.508 236.341L198.371 223.429L187.887 227.016L177.261 217.213ZM158.692 191.719L169.313 201.044L169.175 188.132L158.549 178.329L158.692 191.719ZM176.556 150.727L187.182 160.529L198.124 157.077L187.498 147.274L176.556 150.727ZM150.469 149.72L161.411 146.267L150.326 136.33L139.847 139.918L139.984 152.831L150.61 162.634L150.473 149.721L150.469 149.72ZM150.702 171.725L140.076 161.922L140.452 197.316L170.009 223.661L169.872 210.749L151.399 194.342L151.16 171.859L150.702 171.725Z" fill="url(#paint8_radial_301_1698)"/>
<rect x="2.96931" y="3.92599" width="157.666" height="157.666" rx="78.8328" transform="matrix(0.959284 0.282443 0.0106143 0.999944 108.524 76.8102)" stroke="#141414" stroke-width="6.12294"/>
<rect x="2.96931" y="3.92599" width="157.666" height="157.666" rx="78.8328" transform="matrix(0.959284 0.282443 0.0106143 0.999944 108.524 76.8102)" stroke="url(#paint9_radial_301_1698)" stroke-width="6.12294"/>
<g opacity="0.4" filter="url(#filter3_f_301_1698)">
<ellipse cx="122.555" cy="201.849" rx="24.1091" ry="43.0519" transform="rotate(-18.0381 122.555 201.849)" fill="#F2D349"/>
</g>
</g>
<g filter="url(#filter4_d_301_1698)">
<path d="M65.5207 134.516C60.9403 131.871 57.2164 134.021 57.2166 139.31L57.2184 187.257C57.2186 192.546 60.9428 198.997 65.5232 201.641L115.35 230.411C119.93 233.056 123.654 230.906 123.654 225.617L123.652 192.054C123.652 186.765 119.928 180.315 115.348 177.67L67.5973 150.099C66.4554 149.44 65.5212 147.821 65.5211 146.503C65.5211 145.184 66.4553 144.645 67.5971 145.304L115.347 172.875C117.644 174.201 119.5 173.13 119.499 170.478C119.499 167.826 117.644 164.612 115.347 163.286L65.5207 134.516ZM111.196 196.848C112.297 197.484 113.354 198.599 114.132 199.948C114.911 201.297 115.349 202.769 115.349 204.041C115.349 205.312 114.911 206.279 114.133 206.729C113.354 207.178 112.298 207.074 111.197 206.438C110.095 205.802 109.039 204.687 108.26 203.338C107.482 201.989 107.044 200.517 107.044 199.246C107.044 197.974 107.482 197.007 108.26 196.557C109.039 196.108 110.095 196.213 111.196 196.848Z" fill="#EFC81C"/>
<path d="M65.5207 134.516C60.9403 131.871 57.2164 134.021 57.2166 139.31L57.2184 187.257C57.2186 192.546 60.9428 198.997 65.5232 201.641L115.35 230.411C119.93 233.056 123.654 230.906 123.654 225.617L123.652 192.054C123.652 186.765 119.928 180.315 115.348 177.67L67.5973 150.099C66.4554 149.44 65.5212 147.821 65.5211 146.503C65.5211 145.184 66.4553 144.645 67.5971 145.304L115.347 172.875C117.644 174.201 119.5 173.13 119.499 170.478C119.499 167.826 117.644 164.612 115.347 163.286L65.5207 134.516ZM111.196 196.848C112.297 197.484 113.354 198.599 114.132 199.948C114.911 201.297 115.349 202.769 115.349 204.041C115.349 205.312 114.911 206.279 114.133 206.729C113.354 207.178 112.298 207.074 111.197 206.438C110.095 205.802 109.039 204.687 108.26 203.338C107.482 201.989 107.044 200.517 107.044 199.246C107.044 197.974 107.482 197.007 108.26 196.557C109.039 196.108 110.095 196.213 111.196 196.848Z" fill="url(#paint10_radial_301_1698)"/>
</g>
<g filter="url(#filter5_d_301_1698)">
<path d="M282.225 125.92C283.291 124.95 283.484 123.264 282.558 121.646C281.988 120.671 281.385 119.709 280.735 118.776L280.02 117.767C279.334 116.83 278.599 115.906 277.834 115.012C276.59 113.567 274.74 112.934 273.236 113.288L268.519 114.378C266.352 112.626 263.95 111.123 261.458 110.007L259.487 104.793C258.865 103.122 257.361 101.683 255.66 101.308C254.462 101.022 253.262 100.823 252.056 100.692L251.932 100.678C250.726 100.547 249.55 100.488 248.404 100.501C246.77 100.513 245.723 101.693 245.668 103.273L245.479 108.269C243.273 108.892 241.327 109.904 239.7 111.244L234.398 109.081C232.71 108.381 231.013 108.627 230.236 109.853C229.759 110.611 229.324 111.409 228.927 112.228L228.558 113.101C228.215 113.926 227.931 114.792 227.688 115.696C227.299 117.154 228.099 118.948 229.555 120.209L234.099 124.117C234.109 125.274 234.218 126.492 234.435 127.74C234.653 128.988 234.974 130.23 235.378 131.446L232.048 134.497C230.982 135.468 230.789 137.153 231.715 138.771C232.285 139.747 232.888 140.709 233.541 141.66L234.233 142.631C234.921 143.585 235.654 144.493 236.436 145.388C237.68 146.834 239.53 147.466 241.035 147.112L245.751 146.022C247.918 147.775 250.32 149.277 252.812 150.393L254.786 155.625C255.408 157.296 256.912 158.735 258.613 159.11C259.826 159.38 261.044 159.581 262.268 159.714C263.491 159.847 264.685 159.908 265.849 159.897C267.482 159.885 268.529 158.706 268.584 157.125L268.773 152.129C270.979 151.507 272.925 150.494 274.553 149.154L279.839 151.332C281.527 152.033 283.224 151.787 284.002 150.561C284.479 149.803 284.917 149.023 285.292 148.184L285.677 147.295C286.02 146.47 286.304 145.605 286.549 144.718C286.939 143.26 286.138 141.466 284.683 140.204L280.139 136.297C280.125 135.123 280.017 133.904 279.799 132.656C279.581 131.409 279.26 130.167 278.857 128.95L282.187 125.899L282.225 125.92ZM248.624 129.283C248.233 127.046 248.756 124.998 250.076 123.589C251.397 122.181 253.407 121.528 255.665 121.773C257.922 122.019 260.243 123.143 262.115 124.899C263.988 126.654 265.259 128.897 265.65 131.135C266.04 133.372 265.517 135.42 264.197 136.828C262.877 138.237 260.866 138.89 258.609 138.645C256.351 138.399 254.03 137.275 252.158 135.519C250.285 133.764 249.014 131.52 248.624 129.283Z" fill="#EFC81C"/>
<path d="M282.225 125.92C283.291 124.95 283.484 123.264 282.558 121.646C281.988 120.671 281.385 119.709 280.735 118.776L280.02 117.767C279.334 116.83 278.599 115.906 277.834 115.012C276.59 113.567 274.74 112.934 273.236 113.288L268.519 114.378C266.352 112.626 263.95 111.123 261.458 110.007L259.487 104.793C258.865 103.122 257.361 101.683 255.66 101.308C254.462 101.022 253.262 100.823 252.056 100.692L251.932 100.678C250.726 100.547 249.55 100.488 248.404 100.501C246.77 100.513 245.723 101.693 245.668 103.273L245.479 108.269C243.273 108.892 241.327 109.904 239.7 111.244L234.398 109.081C232.71 108.381 231.013 108.627 230.236 109.853C229.759 110.611 229.324 111.409 228.927 112.228L228.558 113.101C228.215 113.926 227.931 114.792 227.688 115.696C227.299 117.154 228.099 118.948 229.555 120.209L234.099 124.117C234.109 125.274 234.218 126.492 234.435 127.74C234.653 128.988 234.974 130.23 235.378 131.446L232.048 134.497C230.982 135.468 230.789 137.153 231.715 138.771C232.285 139.747 232.888 140.709 233.541 141.66L234.233 142.631C234.921 143.585 235.654 144.493 236.436 145.388C237.68 146.834 239.53 147.466 241.035 147.112L245.751 146.022C247.918 147.775 250.32 149.277 252.812 150.393L254.786 155.625C255.408 157.296 256.912 158.735 258.613 159.11C259.826 159.38 261.044 159.581 262.268 159.714C263.491 159.847 264.685 159.908 265.849 159.897C267.482 159.885 268.529 158.706 268.584 157.125L268.773 152.129C270.979 151.507 272.925 150.494 274.553 149.154L279.839 151.332C281.527 152.033 283.224 151.787 284.002 150.561C284.479 149.803 284.917 149.023 285.292 148.184L285.677 147.295C286.02 146.47 286.304 145.605 286.549 144.718C286.939 143.26 286.138 141.466 284.683 140.204L280.139 136.297C280.125 135.123 280.017 133.904 279.799 132.656C279.581 131.409 279.26 130.167 278.857 128.95L282.187 125.899L282.225 125.92ZM248.624 129.283C248.233 127.046 248.756 124.998 250.076 123.589C251.397 122.181 253.407 121.528 255.665 121.773C257.922 122.019 260.243 123.143 262.115 124.899C263.988 126.654 265.259 128.897 265.65 131.135C266.04 133.372 265.517 135.42 264.197 136.828C262.877 138.237 260.866 138.89 258.609 138.645C256.351 138.399 254.03 137.275 252.158 135.519C250.285 133.764 249.014 131.52 248.624 129.283Z" fill="url(#paint11_radial_301_1698)"/>
</g>
<g filter="url(#filter6_d_301_1698)">
<path d="M300.39 193.31C299.461 193.618 298.279 193.18 297.423 192.302L297.43 192.28L294.741 189.532C293.989 189.572 293.204 189.553 292.396 189.465C291.588 189.378 290.78 189.223 289.984 189.015L288.168 191.273C287.58 191.994 286.508 192.188 285.446 191.663C284.797 191.338 284.157 190.992 283.533 190.614L282.857 190.198C282.218 189.796 281.607 189.365 281.003 188.912C280.026 188.175 279.545 187.017 279.709 186.039L280.213 182.975C279.001 181.659 277.953 180.196 277.122 178.635L273.691 177.587C272.607 177.259 271.612 176.354 271.302 175.28C271.079 174.515 270.9 173.743 270.764 172.966C270.628 172.188 270.54 171.426 270.499 170.68C270.439 169.634 271.14 168.914 272.16 168.815L275.354 168.498C275.651 167.07 276.229 165.773 277.019 164.675L275.406 161.381C274.888 160.329 274.976 159.232 275.728 158.683C276.192 158.336 276.674 158.023 277.195 157.748L277.727 157.474C278.253 157.221 278.795 157.004 279.353 156.81C280.282 156.502 281.463 156.94 282.32 157.818L285.009 160.567C285.761 160.527 286.546 160.546 287.354 160.634C288.162 160.721 288.97 160.876 289.765 161.084L291.582 158.826C292.17 158.104 293.242 157.911 294.304 158.436C294.964 158.762 295.605 159.108 296.229 159.486L296.891 159.89C297.521 160.301 298.143 160.734 298.747 161.187C299.724 161.923 300.205 163.082 300.041 164.06L299.537 167.124C300.749 168.439 301.797 169.903 302.628 171.464L306.061 172.524C307.145 172.852 308.14 173.756 308.45 174.83C308.673 175.595 308.852 176.367 308.988 177.145C309.124 177.923 309.212 178.684 309.253 179.43C309.313 180.476 308.612 181.196 307.591 181.296L304.4 181.623C304.102 183.051 303.525 184.349 302.734 185.446L304.347 188.741C304.866 189.793 304.778 190.889 304.026 191.438C303.56 191.775 303.067 192.086 302.557 192.362L302.004 192.645C301.49 192.899 300.947 193.116 300.39 193.31Z" fill="#EFC81C"/>
<path d="M300.39 193.31C299.461 193.618 298.279 193.18 297.423 192.302L297.43 192.28L294.741 189.532C293.989 189.572 293.204 189.553 292.396 189.465C291.588 189.378 290.78 189.223 289.984 189.015L288.168 191.273C287.58 191.994 286.508 192.188 285.446 191.663C284.797 191.338 284.157 190.992 283.533 190.614L282.857 190.198C282.218 189.796 281.607 189.365 281.003 188.912C280.026 188.175 279.545 187.017 279.709 186.039L280.213 182.975C279.001 181.659 277.953 180.196 277.122 178.635L273.691 177.587C272.607 177.259 271.612 176.354 271.302 175.28C271.079 174.515 270.9 173.743 270.764 172.966C270.628 172.188 270.54 171.426 270.499 170.68C270.439 169.634 271.14 168.914 272.16 168.815L275.354 168.498C275.651 167.07 276.229 165.773 277.019 164.675L275.406 161.381C274.888 160.329 274.976 159.232 275.728 158.683C276.192 158.336 276.674 158.023 277.195 157.748L277.727 157.474C278.253 157.221 278.795 157.004 279.353 156.81C280.282 156.502 281.463 156.94 282.32 157.818L285.009 160.567C285.761 160.527 286.546 160.546 287.354 160.634C288.162 160.721 288.97 160.876 289.765 161.084L291.582 158.826C292.17 158.104 293.242 157.911 294.304 158.436C294.964 158.762 295.605 159.108 296.229 159.486L296.891 159.89C297.521 160.301 298.143 160.734 298.747 161.187C299.724 161.923 300.205 163.082 300.041 164.06L299.537 167.124C300.749 168.439 301.797 169.903 302.628 171.464L306.061 172.524C307.145 172.852 308.14 173.756 308.45 174.83C308.673 175.595 308.852 176.367 308.988 177.145C309.124 177.923 309.212 178.684 309.253 179.43C309.313 180.476 308.612 181.196 307.591 181.296L304.4 181.623C304.102 183.051 303.525 184.349 302.734 185.446L304.347 188.741C304.866 189.793 304.778 190.889 304.026 191.438C303.56 191.775 303.067 192.086 302.557 192.362L302.004 192.645C301.49 192.899 300.947 193.116 300.39 193.31Z" fill="url(#paint12_radial_301_1698)"/>
</g>
<g filter="url(#filter7_d_301_1698)">
<path d="M290.24 169.988C289.53 169.644 288.796 169.427 288.078 169.349C287.361 169.271 286.675 169.333 286.06 169.533C285.445 169.733 284.913 170.066 284.493 170.514C284.074 170.961 283.775 171.514 283.615 172.141C283.456 172.768 283.437 173.456 283.561 174.167C283.685 174.877 283.949 175.597 284.338 176.283C284.727 176.97 285.234 177.61 285.829 178.168C286.423 178.725 287.095 179.189 287.805 179.534C288.515 179.878 289.25 180.095 289.967 180.173C290.684 180.251 291.37 180.188 291.985 179.988C292.601 179.788 293.133 179.455 293.553 179.008C293.972 178.56 294.27 178.007 294.43 177.381C294.59 176.754 294.608 176.065 294.484 175.355C294.36 174.644 294.096 173.925 293.707 173.238C293.318 172.552 292.812 171.911 292.217 171.354C291.622 170.796 290.95 170.332 290.24 169.988Z" fill="#2A2203"/>
</g>
</g>
<defs>
<filter id="filter0_f_301_1698" x="182.348" y="39.0457" width="267.54" height="212.834" filterUnits="userSpaceOnUse" color-interpolation-filters="sRGB">
<feFlood flood-opacity="0" result="BackgroundImageFix"/>
<feBlend mode="normal" in="SourceGraphic" in2="BackgroundImageFix" result="shape"/>
<feGaussianBlur stdDeviation="4" result="effect1_foregroundBlur_301_1698"/>
</filter>
<filter id="filter1_f_301_1698" x="-36.7143" y="38.6729" width="434.837" height="391.848" filterUnits="userSpaceOnUse" color-interpolation-filters="sRGB">
<feFlood flood-opacity="0" result="BackgroundImageFix"/>
<feBlend mode="normal" in="SourceGraphic" in2="BackgroundImageFix" result="shape"/>
<feGaussianBlur stdDeviation="64" result="effect1_foregroundBlur_301_1698"/>
</filter>
<filter id="filter2_f_301_1698" x="62.8528" y="138.878" width="236.808" height="215.826" filterUnits="userSpaceOnUse" color-interpolation-filters="sRGB">
<feFlood flood-opacity="0" result="BackgroundImageFix"/>
<feBlend mode="normal" in="SourceGraphic" in2="BackgroundImageFix" result="shape"/>
<feGaussianBlur stdDeviation="24.4917" result="effect1_foregroundBlur_301_1698"/>
</filter>
<filter id="filter3_f_301_1698" x="47.0488" y="111.247" width="151.013" height="181.204" filterUnits="userSpaceOnUse" color-interpolation-filters="sRGB">
<feFlood flood-opacity="0" result="BackgroundImageFix"/>
<feBlend mode="normal" in="SourceGraphic" in2="BackgroundImageFix" result="shape"/>
<feGaussianBlur stdDeviation="24.4917" result="effect1_foregroundBlur_301_1698"/>
</filter>
<filter id="filter4_d_301_1698" x="43.2404" y="118.586" width="101.515" height="133.236" filterUnits="userSpaceOnUse" color-interpolation-filters="sRGB">
<feFlood flood-opacity="0" result="BackgroundImageFix"/>
<feColorMatrix in="SourceAlpha" type="matrix" values="0 0 0 0 0 0 0 0 0 0 0 0 0 0 0 0 0 0 127 0" result="hardAlpha"/>
<feOffset dx="3.56256" dy="2.74043"/>
<feGaussianBlur stdDeviation="8.76938"/>
<feComposite in2="hardAlpha" operator="out"/>
<feColorMatrix type="matrix" values="0 0 0 0 0.937255 0 0 0 0 0.784314 0 0 0 0 0.109804 0 0 0 0.5 0"/>
<feBlend mode="normal" in2="BackgroundImageFix" result="effect1_dropShadow_301_1698"/>
<feBlend mode="normal" in="SourceGraphic" in2="effect1_dropShadow_301_1698" result="shape"/>
</filter>
<filter id="filter5_d_301_1698" x="208.074" y="79.8348" width="108.04" height="108.382" filterUnits="userSpaceOnUse" color-interpolation-filters="sRGB">
<feFlood flood-opacity="0" result="BackgroundImageFix"/>
<feColorMatrix in="SourceAlpha" type="matrix" values="0 0 0 0 0 0 0 0 0 0 0 0 0 0 0 0 0 0 127 0" result="hardAlpha"/>
<feOffset dx="4.97488" dy="3.82683"/>
<feGaussianBlur stdDeviation="12.2459"/>
<feComposite in2="hardAlpha" operator="out"/>
<feColorMatrix type="matrix" values="0 0 0 0 0.937255 0 0 0 0 0.784314 0 0 0 0 0.109804 0 0 0 0.5 0"/>
<feBlend mode="normal" in2="BackgroundImageFix" result="effect1_dropShadow_301_1698"/>
<feBlend mode="normal" in="SourceGraphic" in2="effect1_dropShadow_301_1698" result="shape"/>
</filter>
<filter id="filter6_d_301_1698" x="250.979" y="136.047" width="87.7443" height="85.6803" filterUnits="userSpaceOnUse" color-interpolation-filters="sRGB">
<feFlood flood-opacity="0" result="BackgroundImageFix"/>
<feColorMatrix in="SourceAlpha" type="matrix" values="0 0 0 0 0 0 0 0 0 0 0 0 0 0 0 0 0 0 127 0" result="hardAlpha"/>
<feOffset dx="4.97488" dy="3.82683"/>
<feGaussianBlur stdDeviation="12.2459"/>
<feComposite in2="hardAlpha" operator="out"/>
<feColorMatrix type="matrix" values="0 0 0 0 0.937255 0 0 0 0 0.784314 0 0 0 0 0.109804 0 0 0 0.5 0"/>
<feBlend mode="normal" in2="BackgroundImageFix" result="effect1_dropShadow_301_1698"/>
<feBlend mode="normal" in="SourceGraphic" in2="effect1_dropShadow_301_1698" result="shape"/>
</filter>
<filter id="filter7_d_301_1698" x="270.959" y="156.058" width="42.5118" height="42.3156" filterUnits="userSpaceOnUse" color-interpolation-filters="sRGB">
<feFlood flood-opacity="0" result="BackgroundImageFix"/>
<feColorMatrix in="SourceAlpha" type="matrix" values="0 0 0 0 0 0 0 0 0 0 0 0 0 0 0 0 0 0 127 0" result="hardAlpha"/>
<feOffset dx="3.19174" dy="2.45519"/>
<feGaussianBlur stdDeviation="7.8566"/>
<feComposite in2="hardAlpha" operator="out"/>
<feColorMatrix type="matrix" values="0 0 0 0 0.937255 0 0 0 0 0.784314 0 0 0 0 0.109804 0 0 0 0.5 0"/>
<feBlend mode="normal" in2="BackgroundImageFix" result="effect1_dropShadow_301_1698"/>
<feBlend mode="normal" in="SourceGraphic" in2="effect1_dropShadow_301_1698" result="shape"/>
</filter>
<linearGradient id="paint0_linear_301_1698" x1="187.791" y1="212.815" x2="56.7706" y2="439.768" gradientUnits="userSpaceOnUse">
<stop offset="0.139788" stop-color="#EFC81C"/>
<stop offset="0.786636" stop-color="#7D6709" stop-opacity="0"/>
</linearGradient>
<linearGradient id="paint1_linear_301_1698" x1="187.791" y1="212.815" x2="56.7706" y2="439.768" gradientUnits="userSpaceOnUse">
<stop stop-color="#F9E9A4"/>
<stop offset="1" stop-color="#534506" stop-opacity="0"/>
</linearGradient>
<linearGradient id="paint2_linear_301_1698" x1="177.981" y1="219.649" x2="70.2298" y2="406.297" gradientUnits="userSpaceOnUse">
<stop offset="0.165054" stop-color="#F9E9A4"/>
<stop offset="1" stop-color="#534506" stop-opacity="0"/>
</linearGradient>
<linearGradient id="paint3_linear_301_1698" x1="184.209" y1="221.111" x2="315.229" y2="-5.84245" gradientUnits="userSpaceOnUse">
<stop stop-color="#EFC81C"/>
<stop offset="1" stop-color="#534506" stop-opacity="0"/>
</linearGradient>
<linearGradient id="paint4_linear_301_1698" x1="184.209" y1="221.111" x2="315.229" y2="-5.84245" gradientUnits="userSpaceOnUse">
<stop stop-color="#EFC81C"/>
<stop offset="1" stop-color="white" stop-opacity="0"/>
</linearGradient>
<linearGradient id="paint5_linear_301_1698" x1="196.048" y1="215.448" x2="303.8" y2="28.8001" gradientUnits="userSpaceOnUse">
<stop stop-color="#EFC81C"/>
<stop offset="1" stop-color="white" stop-opacity="0"/>
</linearGradient>
<radialGradient id="paint6_radial_301_1698" cx="0" cy="0" r="1" gradientUnits="userSpaceOnUse" gradientTransform="translate(187.262 125.269) rotate(89.3918) scale(114.8 77.0462)">
<stop stop-color="#F2D969"/>
<stop offset="1" stop-color="#F1DA75" stop-opacity="0"/>
</radialGradient>
<radialGradient id="paint7_radial_301_1698" cx="0" cy="0" r="1" gradientUnits="userSpaceOnUse" gradientTransform="translate(81.8943 8.03138e-06) rotate(90) scale(163.788 132.633)">
<stop stop-color="#545454"/>
<stop offset="1" stop-color="#545454" stop-opacity="0"/>
</radialGradient>
<radialGradient id="paint8_radial_301_1698" cx="0" cy="0" r="1" gradientUnits="userSpaceOnUse" gradientTransform="translate(187.262 125.269) rotate(89.3918) scale(114.8 77.0462)">
<stop stop-color="#F2D969"/>
<stop offset="1" stop-color="#F1DA75" stop-opacity="0"/>
</radialGradient>
<radialGradient id="paint9_radial_301_1698" cx="0" cy="0" r="1" gradientUnits="userSpaceOnUse" gradientTransform="translate(81.8943 8.03138e-06) rotate(90) scale(163.788 132.633)">
<stop stop-color="#545454"/>
<stop offset="1" stop-color="#545454" stop-opacity="0"/>
</radialGradient>
<radialGradient id="paint10_radial_301_1698" cx="0" cy="0" r="1" gradientUnits="userSpaceOnUse" gradientTransform="translate(90.4339 148.901) rotate(89.9978) scale(67.1251 53.7969)">
<stop stop-color="#F9E9A4"/>
<stop offset="1" stop-color="#EFC81C"/>
</radialGradient>
<radialGradient id="paint11_radial_301_1698" cx="0" cy="0" r="1" gradientUnits="userSpaceOnUse" gradientTransform="translate(251.985 100.684) rotate(80.102) scale(59.924 43.3967)">
<stop stop-color="#F9E9A4"/>
<stop offset="1" stop-color="#EFC81C"/>
</radialGradient>
<radialGradient id="paint12_radial_301_1698" cx="0" cy="0" r="1" gradientUnits="userSpaceOnUse" gradientTransform="translate(286.802 157.439) rotate(80.102) scale(35.7752 29.9107)">
<stop stop-color="#F9E9A4"/>
<stop offset="1" stop-color="#EFC81C"/>
</radialGradient>
<clipPath id="clip0_301_1698">
<rect width="372" height="376.94" rx="16" fill="white"/>
</clipPath>
</defs>
</svg>
