<svg width="372" height="377" viewBox="0 0 372 377" fill="none" xmlns="http://www.w3.org/2000/svg">
<g clip-path="url(#clip0_301_3040)">
<path d="M38.0819 288.233L131.116 234.525C136.697 231.302 145.717 231.32 151.298 234.542L172.859 246.99C178.441 250.212 178.441 255.436 172.859 258.658L34.0989 338.765C28.5173 341.987 19.4677 341.987 13.8861 338.765L-7.67513 326.318C-13.2567 323.095 -22.3063 323.095 -27.8879 326.318L-98.4434 367.049C-104.025 370.271 -113.075 370.271 -118.656 367.049L-141.893 353.634C-147.475 350.412 -147.475 345.188 -141.893 341.965L-25.5671 274.81C-19.9855 271.588 -10.9359 271.588 -5.35434 274.81L17.883 288.225C23.4646 291.447 32.5002 291.455 38.0819 288.233Z" fill="url(#paint0_linear_301_3040)" stroke="url(#paint1_linear_301_3040)" stroke-width="1.4587"/>
<path d="M150.99 246.274L25.6684 318.622L-14.3006 295.548L-94.3674 341.771" stroke="url(#paint2_linear_301_3040)" stroke-width="4.3761" stroke-linecap="round" stroke-dasharray="8.75 8.75"/>
<g opacity="0.4">
<path d="M279.006 281.066L185.973 227.358C180.391 224.135 180.421 218.929 186.003 215.706L207.564 203.259C213.146 200.037 222.195 200.037 227.777 203.259L366.537 283.366C372.119 286.588 372.119 291.812 366.537 295.034L344.976 307.482C339.395 310.704 339.395 315.928 344.976 319.151L415.532 359.882C421.113 363.104 421.113 368.329 415.532 371.551L392.294 384.966C386.713 388.188 377.663 388.188 372.081 384.966L255.755 317.811C250.174 314.588 250.174 309.364 255.755 306.142L278.992 292.727C284.574 289.505 284.588 284.288 279.006 281.066Z" fill="url(#paint3_linear_301_3040)" stroke="url(#paint4_linear_301_3040)" stroke-width="1.4587"/>
<path d="M206.324 215.884L331.646 288.233L291.677 311.307L371.744 357.529" stroke="url(#paint5_linear_301_3040)" stroke-width="4.3761" stroke-linecap="round" stroke-dasharray="8.75 8.75"/>
</g>
<g opacity="0.15" filter="url(#filter0_f_301_3040)">
<ellipse cx="179.61" cy="245.639" rx="146.792" ry="84.4274" transform="rotate(35.2272 179.61 245.639)" fill="#AD0FD0"/>
</g>
<g filter="url(#filter1_f_301_3040)">
<ellipse cx="180.245" cy="229.874" rx="70.9021" ry="50.0029" transform="rotate(30.557 180.245 229.874)" fill="#120116"/>
</g>
<mask id="mask0_301_3040" style="mask-type:alpha" maskUnits="userSpaceOnUse" x="106" y="71" width="137" height="220">
<g clip-path="url(#clip1_301_3040)">
<rect width="151.705" height="151.705" rx="75.8524" transform="matrix(0.895671 0.444716 -0.00463282 0.999989 106.962 71.2061)" fill="#23032A"/>
<rect width="151.705" height="151.705" rx="75.8524" transform="matrix(0.895671 0.444716 -0.00463282 0.999989 106.962 71.2061)" fill="url(#paint6_radial_301_3040)" fill-opacity="0.2"/>
<path d="M143.342 133.131C143.364 128.299 146.894 126.122 151.221 128.271L198.256 151.624C202.584 153.773 206.077 159.437 206.055 164.269L205.798 219.699L143.085 188.561L143.342 133.131ZM194.42 167.081C192.892 164.605 190.41 163.372 188.883 164.332L170.661 175.571L163.025 163.19C161.498 160.713 159.016 159.481 157.489 160.441C155.962 161.401 155.933 164.164 157.46 166.622L167.858 183.481C169.386 185.957 171.868 187.19 173.395 186.23L194.391 173.28C195.934 172.329 195.947 169.557 194.419 167.099L194.42 167.081ZM127.447 172.024C127.47 167.192 130.999 165.015 135.327 167.164L137.94 168.462L137.832 191.801L210.997 228.128L211.105 204.789L213.718 206.087C218.046 208.235 221.539 213.899 221.516 218.731L221.435 236.235C221.413 241.067 217.884 243.244 213.556 241.095L135.165 202.173C130.837 200.024 127.344 194.36 127.366 189.528L127.447 172.024Z" fill="#812396"/>
<path d="M143.342 133.131C143.364 128.299 146.894 126.122 151.221 128.271L198.256 151.624C202.584 153.773 206.077 159.437 206.055 164.269L205.798 219.699L143.085 188.561L143.342 133.131ZM194.42 167.081C192.892 164.605 190.41 163.372 188.883 164.332L170.661 175.571L163.025 163.19C161.498 160.713 159.016 159.481 157.489 160.441C155.962 161.401 155.933 164.164 157.46 166.622L167.858 183.481C169.386 185.957 171.868 187.19 173.395 186.23L194.391 173.28C195.934 172.329 195.947 169.557 194.419 167.099L194.42 167.081ZM127.447 172.024C127.47 167.192 130.999 165.015 135.327 167.164L137.94 168.462L137.832 191.801L210.997 228.128L211.105 204.789L213.718 206.087C218.046 208.235 221.539 213.899 221.516 218.731L221.435 236.235C221.413 241.067 217.884 243.244 213.556 241.095L135.165 202.173C130.837 200.024 127.344 194.36 127.366 189.528L127.447 172.024Z" fill="url(#paint7_radial_301_3040)"/>
</g>
<rect x="1.94964" y="3.16109" width="147.329" height="147.329" rx="73.6644" transform="matrix(0.895671 0.444716 -0.00463282 0.999989 107.18 70.3391)" stroke="#23032A" stroke-width="4.3761"/>
<rect x="1.94964" y="3.16109" width="147.329" height="147.329" rx="73.6644" transform="matrix(0.895671 0.444716 -0.00463282 0.999989 107.18 70.3391)" stroke="url(#paint8_radial_301_3040)" stroke-width="4.3761"/>
</mask>
<g mask="url(#mask0_301_3040)">
<g clip-path="url(#clip2_301_3040)">
<rect width="151.705" height="151.705" rx="75.8524" transform="matrix(0.895671 0.444716 -0.00463282 0.999989 106.962 71.2061)" fill="#23032A"/>
<rect width="151.705" height="151.705" rx="75.8524" transform="matrix(0.895671 0.444716 -0.00463282 0.999989 106.962 71.2061)" fill="url(#paint9_radial_301_3040)" fill-opacity="0.2"/>
<path d="M143.342 133.131C143.364 128.299 146.894 126.122 151.221 128.271L198.256 151.624C202.584 153.773 206.077 159.437 206.055 164.269L205.798 219.699L143.085 188.561L143.342 133.131ZM194.42 167.081C192.892 164.605 190.41 163.372 188.883 164.332L170.661 175.571L163.025 163.19C161.498 160.713 159.016 159.481 157.489 160.441C155.962 161.401 155.933 164.164 157.46 166.622L167.858 183.481C169.386 185.957 171.868 187.19 173.395 186.23L194.391 173.28C195.934 172.329 195.947 169.557 194.419 167.099L194.42 167.081ZM127.447 172.024C127.47 167.192 130.999 165.015 135.327 167.164L137.94 168.462L137.832 191.801L210.997 228.128L211.105 204.789L213.718 206.087C218.046 208.235 221.539 213.899 221.516 218.731L221.435 236.235C221.413 241.067 217.884 243.244 213.556 241.095L135.165 202.173C130.837 200.024 127.344 194.36 127.366 189.528L127.447 172.024Z" fill="#812396"/>
<path d="M143.342 133.131C143.364 128.299 146.894 126.122 151.221 128.271L198.256 151.624C202.584 153.773 206.077 159.437 206.055 164.269L205.798 219.699L143.085 188.561L143.342 133.131ZM194.42 167.081C192.892 164.605 190.41 163.372 188.883 164.332L170.661 175.571L163.025 163.19C161.498 160.713 159.016 159.481 157.489 160.441C155.962 161.401 155.933 164.164 157.46 166.622L167.858 183.481C169.386 185.957 171.868 187.19 173.395 186.23L194.391 173.28C195.934 172.329 195.947 169.557 194.419 167.099L194.42 167.081ZM127.447 172.024C127.47 167.192 130.999 165.015 135.327 167.164L137.94 168.462L137.832 191.801L210.997 228.128L211.105 204.789L213.718 206.087C218.046 208.235 221.539 213.899 221.516 218.731L221.435 236.235C221.413 241.067 217.884 243.244 213.556 241.095L135.165 202.173C130.837 200.024 127.344 194.36 127.366 189.528L127.447 172.024Z" fill="url(#paint10_radial_301_3040)"/>
</g>
<rect x="1.94964" y="3.16109" width="147.329" height="147.329" rx="73.6644" transform="matrix(0.895671 0.444716 -0.00463282 0.999989 107.18 70.3391)" stroke="#23032A" stroke-width="4.3761"/>
<rect x="1.94964" y="3.16109" width="147.329" height="147.329" rx="73.6644" transform="matrix(0.895671 0.444716 -0.00463282 0.999989 107.18 70.3391)" stroke="url(#paint11_radial_301_3040)" stroke-width="4.3761"/>
<g opacity="0.4" filter="url(#filter2_f_301_3040)">
<ellipse cx="119.501" cy="197.607" rx="24.9802" ry="43.9434" transform="rotate(-29.1435 119.501 197.607)" fill="#DF77F5"/>
</g>
</g>
<g filter="url(#filter3_d_301_3040)">
<path d="M264.103 80.4402C260.425 78.3166 257.213 78.7734 255.506 81.2105L246.722 76.1388C242.61 73.7642 239.273 75.6905 239.273 80.4393L239.276 137.783C239.276 142.532 242.613 148.312 246.725 150.686L269.072 163.589L269.07 114.847C269.07 106.926 274.626 103.719 281.485 107.679L288.934 111.98L288.934 109.113C288.934 104.364 285.597 98.5851 281.484 96.2105L272.701 91.1388C270.994 86.7304 267.781 82.5639 264.103 80.4402ZM281.485 113.414C277.373 111.039 274.036 112.965 274.036 117.714L274.038 166.457L274.038 169.324C274.038 174.073 277.375 179.852 281.488 182.227L311.284 199.431C315.396 201.806 318.733 199.879 318.733 195.13L318.731 155.688C318.731 153.413 317.94 150.769 316.543 148.35L306.005 130.098C304.608 127.679 302.715 125.672 300.744 124.534L288.934 117.715L281.485 113.414ZM264.103 87.6082C265.091 88.1786 266.039 89.1787 266.737 90.3886C267.436 91.5984 267.828 92.9189 267.828 94.0596C267.828 95.2002 267.436 96.0676 266.737 96.4708C266.039 96.8741 265.092 96.7802 264.104 96.2099C263.116 95.6395 262.169 94.6394 261.47 93.4295C260.772 92.2196 260.379 90.8991 260.379 89.7585C260.379 88.6179 260.771 87.7505 261.47 87.3473C262.168 86.944 263.116 87.0379 264.103 87.6082Z" fill="#8A0CA6"/>
<path d="M264.103 80.4402C260.425 78.3166 257.213 78.7734 255.506 81.2105L246.722 76.1388C242.61 73.7642 239.273 75.6905 239.273 80.4393L239.276 137.783C239.276 142.532 242.613 148.312 246.725 150.686L269.072 163.589L269.07 114.847C269.07 106.926 274.626 103.719 281.485 107.679L288.934 111.98L288.934 109.113C288.934 104.364 285.597 98.5851 281.484 96.2105L272.701 91.1388C270.994 86.7304 267.781 82.5639 264.103 80.4402ZM281.485 113.414C277.373 111.039 274.036 112.965 274.036 117.714L274.038 166.457L274.038 169.324C274.038 174.073 277.375 179.852 281.488 182.227L311.284 199.431C315.396 201.806 318.733 199.879 318.733 195.13L318.731 155.688C318.731 153.413 317.94 150.769 316.543 148.35L306.005 130.098C304.608 127.679 302.715 125.672 300.744 124.534L288.934 117.715L281.485 113.414ZM264.103 87.6082C265.091 88.1786 266.039 89.1787 266.737 90.3886C267.436 91.5984 267.828 92.9189 267.828 94.0596C267.828 95.2002 267.436 96.0676 266.737 96.4708C266.039 96.8741 265.092 96.7802 264.104 96.2099C263.116 95.6395 262.169 94.6394 261.47 93.4295C260.772 92.2196 260.379 90.8991 260.379 89.7585C260.379 88.6179 260.771 87.7505 261.47 87.3473C262.168 86.944 263.116 87.0379 264.103 87.6082Z" fill="url(#paint12_radial_301_3040)"/>
</g>
<g filter="url(#filter4_d_301_3040)">
<path d="M80.1204 142.761C78.2814 141.7 76.6753 141.928 75.8218 143.147L71.43 140.611C69.3737 139.423 67.7055 140.387 67.7056 142.761L67.7067 171.433C67.7068 173.807 69.3751 176.697 71.4314 177.884L82.6049 184.336L82.604 159.965C82.6039 156.004 85.3816 154.401 88.8113 156.381L92.5358 158.532L92.5358 157.098C92.5357 154.724 90.8673 151.834 88.8111 150.647L84.4192 148.111C83.5656 145.907 81.9594 143.823 80.1204 142.761ZM88.8114 159.248C86.7551 158.061 85.0869 159.024 85.087 161.399L85.0879 185.77L85.088 187.203C85.0881 189.578 86.7564 192.467 88.8127 193.655L103.711 202.257C105.767 203.444 107.435 202.481 107.435 200.107L107.434 180.386C107.434 179.248 107.039 177.926 106.34 176.716L101.071 167.59C100.373 166.381 99.4263 165.377 98.4408 164.808L92.5359 161.399L88.8114 159.248ZM80.1205 146.346C80.6144 146.631 81.0881 147.131 81.4374 147.736C81.7866 148.341 81.9829 149.001 81.9829 149.571C81.9829 150.141 81.7867 150.575 81.4375 150.777C81.0883 150.978 80.6146 150.931 80.1207 150.646C79.6268 150.361 79.1531 149.861 78.8039 149.256C78.4546 148.651 78.2584 147.991 78.2584 147.421C78.2583 146.85 78.4545 146.417 78.8037 146.215C79.153 146.013 79.6266 146.06 80.1205 146.346Z" fill="#DF77F5"/>
<path d="M80.1204 142.761C78.2814 141.7 76.6753 141.928 75.8218 143.147L71.43 140.611C69.3737 139.423 67.7055 140.387 67.7056 142.761L67.7067 171.433C67.7068 173.807 69.3751 176.697 71.4314 177.884L82.6049 184.336L82.604 159.965C82.6039 156.004 85.3816 154.401 88.8113 156.381L92.5358 158.532L92.5358 157.098C92.5357 154.724 90.8673 151.834 88.8111 150.647L84.4192 148.111C83.5656 145.907 81.9594 143.823 80.1204 142.761ZM88.8114 159.248C86.7551 158.061 85.0869 159.024 85.087 161.399L85.0879 185.77L85.088 187.203C85.0881 189.578 86.7564 192.467 88.8127 193.655L103.711 202.257C105.767 203.444 107.435 202.481 107.435 200.107L107.434 180.386C107.434 179.248 107.039 177.926 106.34 176.716L101.071 167.59C100.373 166.381 99.4263 165.377 98.4408 164.808L92.5359 161.399L88.8114 159.248ZM80.1205 146.346C80.6144 146.631 81.0881 147.131 81.4374 147.736C81.7866 148.341 81.9829 149.001 81.9829 149.571C81.9829 150.141 81.7867 150.575 81.4375 150.777C81.0883 150.978 80.6146 150.931 80.1207 150.646C79.6268 150.361 79.1531 149.861 78.8039 149.256C78.4546 148.651 78.2584 147.991 78.2584 147.421C78.2583 146.85 78.4545 146.417 78.8037 146.215C79.153 146.013 79.6266 146.06 80.1205 146.346Z" fill="url(#paint13_radial_301_3040)"/>
</g>
</g>
<defs>
<filter id="filter0_f_301_3040" x="-30.2411" y="56.0358" width="419.702" height="379.207" filterUnits="userSpaceOnUse" color-interpolation-filters="sRGB">
<feFlood flood-opacity="0" result="BackgroundImageFix"/>
<feBlend mode="normal" in="SourceGraphic" in2="BackgroundImageFix" result="shape"/>
<feGaussianBlur stdDeviation="40.1972" result="effect1_foregroundBlur_301_3040"/>
</filter>
<filter id="filter1_f_301_3040" x="67.4126" y="127.039" width="225.664" height="205.67" filterUnits="userSpaceOnUse" color-interpolation-filters="sRGB">
<feFlood flood-opacity="0" result="BackgroundImageFix"/>
<feBlend mode="normal" in="SourceGraphic" in2="BackgroundImageFix" result="shape"/>
<feGaussianBlur stdDeviation="23.3392" result="effect1_foregroundBlur_301_3040"/>
</filter>
<filter id="filter2_f_301_3040" x="42.261" y="110.656" width="154.479" height="173.903" filterUnits="userSpaceOnUse" color-interpolation-filters="sRGB">
<feFlood flood-opacity="0" result="BackgroundImageFix"/>
<feBlend mode="normal" in="SourceGraphic" in2="BackgroundImageFix" result="shape"/>
<feGaussianBlur stdDeviation="23.3392" result="effect1_foregroundBlur_301_3040"/>
</filter>
<filter id="filter3_d_301_3040" x="220.675" y="55.4294" width="126.138" height="172.004" filterUnits="userSpaceOnUse" color-interpolation-filters="sRGB">
<feFlood flood-opacity="0" result="BackgroundImageFix"/>
<feColorMatrix in="SourceAlpha" type="matrix" values="0 0 0 0 0 0 0 0 0 0 0 0 0 0 0 0 0 0 127 0" result="hardAlpha"/>
<feOffset dx="4.74078" dy="3.64675"/>
<feGaussianBlur stdDeviation="11.6696"/>
<feComposite in2="hardAlpha" operator="out"/>
<feColorMatrix type="matrix" values="0 0 0 0 0.788235 0 0 0 0 0.109804 0 0 0 0 0.937255 0 0 0 0.4 0"/>
<feBlend mode="normal" in2="BackgroundImageFix" result="effect1_dropShadow_301_3040"/>
<feBlend mode="normal" in="SourceGraphic" in2="effect1_dropShadow_301_3040" result="shape"/>
</filter>
<filter id="filter4_d_301_3040" x="58.4063" y="130.256" width="63.0687" height="86.0023" filterUnits="userSpaceOnUse" color-interpolation-filters="sRGB">
<feFlood flood-opacity="0" result="BackgroundImageFix"/>
<feColorMatrix in="SourceAlpha" type="matrix" values="0 0 0 0 0 0 0 0 0 0 0 0 0 0 0 0 0 0 127 0" result="hardAlpha"/>
<feOffset dx="2.37039" dy="1.82338"/>
<feGaussianBlur stdDeviation="5.8348"/>
<feComposite in2="hardAlpha" operator="out"/>
<feColorMatrix type="matrix" values="0 0 0 0 0.788235 0 0 0 0 0.109804 0 0 0 0 0.937255 0 0 0 0.4 0"/>
<feBlend mode="normal" in2="BackgroundImageFix" result="effect1_dropShadow_301_3040"/>
<feBlend mode="normal" in="SourceGraphic" in2="effect1_dropShadow_301_3040" result="shape"/>
</filter>
<linearGradient id="paint0_linear_301_3040" x1="140.354" y1="228.224" x2="15.4993" y2="444.497" gradientUnits="userSpaceOnUse">
<stop offset="0.139788" stop-color="#C91CEF"/>
<stop offset="0.786636" stop-color="#23032A" stop-opacity="0"/>
</linearGradient>
<linearGradient id="paint1_linear_301_3040" x1="140.354" y1="228.224" x2="15.4993" y2="444.497" gradientUnits="userSpaceOnUse">
<stop stop-color="#DF77F5"/>
<stop offset="1" stop-color="#450653" stop-opacity="0"/>
</linearGradient>
<linearGradient id="paint2_linear_301_3040" x1="131.006" y1="234.737" x2="28.3249" y2="412.601" gradientUnits="userSpaceOnUse">
<stop offset="0.165054" stop-color="#E9A4F9"/>
<stop offset="1" stop-color="#23032A" stop-opacity="0"/>
</linearGradient>
<linearGradient id="paint3_linear_301_3040" x1="175.058" y1="222.025" x2="299.913" y2="438.298" gradientUnits="userSpaceOnUse">
<stop stop-color="#D449F2"/>
<stop offset="1" stop-color="#450653" stop-opacity="0"/>
</linearGradient>
<linearGradient id="paint4_linear_301_3040" x1="175.058" y1="222.025" x2="299.913" y2="438.298" gradientUnits="userSpaceOnUse">
<stop stop-color="#F4D2FC"/>
<stop offset="1" stop-color="#450653" stop-opacity="0"/>
</linearGradient>
<linearGradient id="paint5_linear_301_3040" x1="186.34" y1="227.421" x2="289.021" y2="405.285" gradientUnits="userSpaceOnUse">
<stop stop-color="#D449F2"/>
<stop offset="1" stop-color="#450653" stop-opacity="0"/>
</linearGradient>
<radialGradient id="paint6_radial_301_3040" cx="0" cy="0" r="1" gradientUnits="userSpaceOnUse" gradientTransform="translate(75.8524 7.43886e-06) rotate(90) scale(151.705 122.848)">
<stop stop-color="#AE1DFF"/>
<stop offset="1" stop-color="#AE1DFF" stop-opacity="0"/>
</radialGradient>
<radialGradient id="paint7_radial_301_3040" cx="0" cy="0" r="1" gradientUnits="userSpaceOnUse" gradientTransform="translate(174.739 139.947) rotate(90.2654) scale(81.6872 76.3499)">
<stop stop-color="#F4D2FC"/>
<stop offset="1" stop-color="#D449F2" stop-opacity="0"/>
</radialGradient>
<radialGradient id="paint8_radial_301_3040" cx="0" cy="0" r="1" gradientUnits="userSpaceOnUse" gradientTransform="translate(75.8524 7.43886e-06) rotate(90) scale(151.705 122.848)">
<stop stop-color="#AE1DFF"/>
<stop offset="1" stop-color="#AE1DFF" stop-opacity="0"/>
</radialGradient>
<radialGradient id="paint9_radial_301_3040" cx="0" cy="0" r="1" gradientUnits="userSpaceOnUse" gradientTransform="translate(75.8524 7.43886e-06) rotate(90) scale(151.705 122.848)">
<stop stop-color="#AE1DFF"/>
<stop offset="1" stop-color="#AE1DFF" stop-opacity="0"/>
</radialGradient>
<radialGradient id="paint10_radial_301_3040" cx="0" cy="0" r="1" gradientUnits="userSpaceOnUse" gradientTransform="translate(174.739 139.947) rotate(90.2654) scale(81.6872 76.3499)">
<stop stop-color="#F4D2FC"/>
<stop offset="1" stop-color="#D449F2" stop-opacity="0"/>
</radialGradient>
<radialGradient id="paint11_radial_301_3040" cx="0" cy="0" r="1" gradientUnits="userSpaceOnUse" gradientTransform="translate(75.8524 7.43886e-06) rotate(90) scale(151.705 122.848)">
<stop stop-color="#E9A4F9"/>
<stop offset="1" stop-color="#AE1DFF" stop-opacity="0"/>
</radialGradient>
<radialGradient id="paint12_radial_301_3040" cx="0" cy="0" r="1" gradientUnits="userSpaceOnUse" gradientTransform="translate(279.001 89.0424) rotate(89.9978) scale(91.7505 64.3411)">
<stop stop-color="#E9A4F9"/>
<stop offset="1" stop-color="#F4D2FC" stop-opacity="0"/>
</radialGradient>
<radialGradient id="paint13_radial_301_3040" cx="0" cy="0" r="1" gradientUnits="userSpaceOnUse" gradientTransform="translate(87.5695 147.063) rotate(89.9978) scale(45.8753 32.1705)">
<stop stop-color="white"/>
<stop offset="1" stop-color="#F4D2FC" stop-opacity="0"/>
</radialGradient>
<clipPath id="clip0_301_3040">
<rect width="372" height="376.94" rx="16" fill="white"/>
</clipPath>
<clipPath id="clip1_301_3040">
<rect width="151.705" height="151.705" rx="75.8524" transform="matrix(0.895671 0.444716 -0.00463282 0.999989 106.962 71.2061)" fill="white"/>
</clipPath>
<clipPath id="clip2_301_3040">
<rect width="151.705" height="151.705" rx="75.8524" transform="matrix(0.895671 0.444716 -0.00463282 0.999989 106.962 71.2061)" fill="white"/>
</clipPath>
</defs>
</svg>
