<svg width="372" height="252" viewBox="0 0 372 252" fill="none" xmlns="http://www.w3.org/2000/svg">
<g clip-path="url(#clip0_310_5010)">
<path d="M80.1591 123.857L162.223 171.232C167.146 174.075 175.102 174.059 180.026 171.217L199.044 160.237C203.968 157.395 203.968 152.787 199.044 149.944L76.6458 79.2835C71.7223 76.4412 63.7398 76.4412 58.8164 79.2835L39.7975 90.2631C34.8741 93.1054 26.8916 93.1054 21.9681 90.2631L-40.2678 54.3343C-45.1913 51.4919 -53.1738 51.4919 -58.0972 54.3343L-78.5946 66.1674C-83.518 69.0097 -83.518 73.618 -78.5946 76.4603L24.0152 135.697C28.9387 138.539 36.9212 138.539 41.8446 135.697L62.342 123.864C67.2654 121.022 75.2356 121.014 80.1591 123.857Z" fill="url(#paint0_linear_310_5010)" stroke="url(#paint1_linear_310_5010)" stroke-width="1.2867"/>
<path d="M179.755 160.868L69.2103 97.0508L33.9542 117.404L-36.6716 76.6319" stroke="url(#paint2_linear_310_5010)" stroke-width="3.8601" stroke-linecap="round" stroke-dasharray="7.72 7.72"/>
<g opacity="0.4">
<path d="M293.32 136.934L211.256 184.309C206.332 187.152 206.359 191.745 211.282 194.587L230.301 205.567C235.225 208.409 243.207 208.409 248.131 205.567L370.529 134.906C375.453 132.063 375.453 127.455 370.529 124.613L351.511 113.633C346.587 110.791 346.587 106.183 351.511 103.34L413.747 67.4115C418.67 64.5692 418.67 59.9609 413.747 57.1186L393.249 45.2855C388.326 42.4432 380.343 42.4432 375.42 45.2855L272.81 104.522C267.887 107.364 267.886 111.973 272.81 114.815L293.307 126.648C298.231 129.49 298.243 134.092 293.32 136.934Z" fill="url(#paint3_linear_310_5010)" stroke="url(#paint4_linear_310_5010)" stroke-width="1.2867"/>
<path d="M229.208 194.43L339.753 130.613L304.496 110.259L375.122 69.4871" stroke="url(#paint5_linear_310_5010)" stroke-width="3.8601" stroke-linecap="round" stroke-dasharray="7.72 7.72"/>
</g>
<g filter="url(#filter0_f_310_5010)">
<ellipse cx="203.65" cy="185.188" rx="62.5417" ry="44.1068" transform="rotate(30.557 203.65 185.188)" fill="#141414"/>
</g>
<g clip-path="url(#clip1_310_5010)">
<rect width="142.02" height="142.02" rx="71.0101" transform="matrix(0.866025 0.5 7.54678e-05 1 132.6 18.9849)" fill="#141414"/>
<rect width="142.02" height="142.02" rx="71.0101" transform="matrix(0.866025 0.5 7.54678e-05 1 132.6 18.9849)" fill="url(#paint6_radial_310_5010)" fill-opacity="0.2"/>
<path d="M170.264 69.5515C170.374 69.2462 170.594 69.0617 170.884 69.0299C171.174 68.9981 171.517 69.1216 171.85 69.3782L184.57 79.2637C192.186 85.1874 199.434 92.7469 205.838 101.444L203.865 102.714L199.578 105.421L197.606 106.675C195.019 102.524 192.214 98.5442 189.23 94.7929L170.878 71.8863C170.592 71.5253 170.374 71.0945 170.262 70.668C170.15 70.242 170.15 69.8468 170.264 69.5512L170.264 69.5515ZM231.624 172.901L228.765 154.401C227.716 147.746 225.9 140.858 223.375 133.962C222.603 131.866 221.774 129.737 220.874 127.683L218.773 128.78L214.486 131.09L212.299 132.105C215.053 137.089 217.451 142.229 219.446 147.42L228.98 172.496C229.104 172.823 229.285 173.139 229.503 173.413C229.722 173.687 229.97 173.909 230.224 174.056C230.394 174.153 230.563 174.218 230.724 174.246C231.041 174.291 231.305 174.181 231.47 173.935C231.635 173.689 231.69 173.322 231.624 172.901L231.624 172.901ZM217.329 125.637L218.873 124.878C219.063 124.79 219.24 124.677 219.402 124.539C219.893 124.216 220.303 123.762 220.616 123.194C221.653 121.401 221.784 118.694 220.977 115.72C220.17 112.746 218.498 109.771 216.36 107.506C214.221 105.24 211.808 103.888 209.696 103.771C208.976 103.736 208.311 103.858 207.724 104.134C207.493 104.209 207.277 104.317 207.081 104.455L205.652 105.28L201.179 108.21L199.235 109.497L188.832 116.313L158.135 136.48C157.096 137.222 156.549 138.663 156.612 140.5C156.675 142.336 157.342 144.422 158.472 146.316C159.602 148.21 161.107 149.764 162.667 150.647C164.129 151.511 165.548 151.745 166.668 151.307L200.166 134.342L210.527 129.103L212.628 128.055L217.329 125.637Z" fill="#1CEF5F"/>
<path d="M170.264 69.5515C170.374 69.2462 170.594 69.0617 170.884 69.0299C171.174 68.9981 171.517 69.1216 171.85 69.3782L184.57 79.2637C192.186 85.1874 199.434 92.7469 205.838 101.444L203.865 102.714L199.578 105.421L197.606 106.675C195.019 102.524 192.214 98.5442 189.23 94.7929L170.878 71.8863C170.592 71.5253 170.374 71.0945 170.262 70.668C170.15 70.242 170.15 69.8468 170.264 69.5512L170.264 69.5515ZM231.624 172.901L228.765 154.401C227.716 147.746 225.9 140.858 223.375 133.962C222.603 131.866 221.774 129.737 220.874 127.683L218.773 128.78L214.486 131.09L212.299 132.105C215.053 137.089 217.451 142.229 219.446 147.42L228.98 172.496C229.104 172.823 229.285 173.139 229.503 173.413C229.722 173.687 229.97 173.909 230.224 174.056C230.394 174.153 230.563 174.218 230.724 174.246C231.041 174.291 231.305 174.181 231.47 173.935C231.635 173.689 231.69 173.322 231.624 172.901L231.624 172.901ZM217.329 125.637L218.873 124.878C219.063 124.79 219.24 124.677 219.402 124.539C219.893 124.216 220.303 123.762 220.616 123.194C221.653 121.401 221.784 118.694 220.977 115.72C220.17 112.746 218.498 109.771 216.36 107.506C214.221 105.24 211.808 103.888 209.696 103.771C208.976 103.736 208.311 103.858 207.724 104.134C207.493 104.209 207.277 104.317 207.081 104.455L205.652 105.28L201.179 108.21L199.235 109.497L188.832 116.313L158.135 136.48C157.096 137.222 156.549 138.663 156.612 140.5C156.675 142.336 157.342 144.422 158.472 146.316C159.602 148.21 161.107 149.764 162.667 150.647C164.129 151.511 165.548 151.745 166.668 151.307L200.166 134.342L210.527 129.103L212.628 128.055L217.329 125.637Z" fill="url(#paint7_radial_310_5010)"/>
</g>
<rect x="2.25007" y="3.8969" width="136.824" height="136.824" rx="68.4122" transform="matrix(0.866025 0.5 7.54678e-05 1 132.901 17.8598)" stroke="#032A0F" stroke-width="5.19586"/>
<rect x="2.25007" y="3.8969" width="136.824" height="136.824" rx="68.4122" transform="matrix(0.866025 0.5 7.54678e-05 1 132.901 17.8598)" stroke="url(#paint8_radial_310_5010)" stroke-width="5.19586"/>
</g>
<defs>
<filter id="filter0_f_310_5010" x="104.123" y="94.479" width="199.055" height="181.418" filterUnits="userSpaceOnUse" color-interpolation-filters="sRGB">
<feFlood flood-opacity="0" result="BackgroundImageFix"/>
<feBlend mode="normal" in="SourceGraphic" in2="BackgroundImageFix" result="shape"/>
<feGaussianBlur stdDeviation="20.5872" result="effect1_foregroundBlur_310_5010"/>
</filter>
<linearGradient id="paint0_linear_310_5010" x1="170.372" y1="176.79" x2="60.2393" y2="-13.9815" gradientUnits="userSpaceOnUse">
<stop offset="0.139788" stop-color="#1CEF5F"/>
<stop offset="0.786636" stop-color="#032A0F" stop-opacity="0"/>
</linearGradient>
<linearGradient id="paint1_linear_310_5010" x1="170.372" y1="176.79" x2="60.2393" y2="-13.9815" gradientUnits="userSpaceOnUse">
<stop stop-color="#D2FCDF"/>
<stop offset="1" stop-color="#06531E" stop-opacity="0"/>
</linearGradient>
<linearGradient id="paint2_linear_310_5010" x1="162.127" y1="171.045" x2="71.5536" y2="14.1535" gradientUnits="userSpaceOnUse">
<stop offset="0.165054" stop-color="#D2FCDF"/>
<stop offset="1" stop-color="#06531E" stop-opacity="0"/>
</linearGradient>
<linearGradient id="paint3_linear_310_5010" x1="201.629" y1="189.014" x2="311.761" y2="-1.75772" gradientUnits="userSpaceOnUse">
<stop stop-color="#1CEF5F"/>
<stop offset="1" stop-color="#032A0F" stop-opacity="0"/>
</linearGradient>
<linearGradient id="paint4_linear_310_5010" x1="201.629" y1="189.014" x2="311.761" y2="-1.75772" gradientUnits="userSpaceOnUse">
<stop stop-color="#A4F9BF"/>
<stop offset="1" stop-color="#032A0F" stop-opacity="0"/>
</linearGradient>
<linearGradient id="paint5_linear_310_5010" x1="211.58" y1="184.254" x2="302.153" y2="27.362" gradientUnits="userSpaceOnUse">
<stop stop-color="#D2FCDF"/>
<stop offset="1" stop-color="#032A0F" stop-opacity="0"/>
</linearGradient>
<radialGradient id="paint6_radial_310_5010" cx="0" cy="0" r="1" gradientUnits="userSpaceOnUse" gradientTransform="translate(71.0101 6.96397e-06) rotate(90) scale(142.02 115.005)">
<stop stop-color="#545454"/>
<stop offset="1" stop-color="#545454" stop-opacity="0"/>
</radialGradient>
<radialGradient id="paint7_radial_310_5010" cx="0" cy="0" r="1" gradientUnits="userSpaceOnUse" gradientTransform="translate(194.124 82.2154) rotate(89.9957) scale(86.5977 60.7674)">
<stop stop-color="#D2FCDF"/>
<stop offset="1" stop-color="#D2FCDF" stop-opacity="0"/>
</radialGradient>
<radialGradient id="paint8_radial_310_5010" cx="0" cy="0" r="1" gradientUnits="userSpaceOnUse" gradientTransform="translate(71.0101 6.96397e-06) rotate(90) scale(142.02 115.005)">
<stop stop-color="#1CEF5F"/>
<stop offset="1" stop-color="#1CEF5F" stop-opacity="0"/>
</radialGradient>
<clipPath id="clip0_310_5010">
<rect width="372" height="252" fill="white"/>
</clipPath>
<clipPath id="clip1_310_5010">
<rect width="142.02" height="142.02" rx="71.0101" transform="matrix(0.866025 0.5 7.54678e-05 1 132.6 18.9849)" fill="white"/>
</clipPath>
</defs>
</svg>
