<svg width="33" height="24" viewBox="0 0 33 24" fill="none" xmlns="http://www.w3.org/2000/svg">
<path d="M27.7648 2.00983C25.6843 1.05733 23.488 0.38159 21.2319 -0.00012207C20.9231 0.551777 20.6438 1.11961 20.395 1.70099C17.9918 1.33886 15.5479 1.33886 13.1447 1.70099C12.8958 1.11967 12.6165 0.551843 12.3079 -0.00012207C10.0503 0.384813 7.85249 1.06216 5.7699 2.01481C1.63542 8.13185 0.514627 14.097 1.07502 19.9774C3.49628 21.7663 6.20635 23.1268 9.08745 23.9998C9.73618 23.1273 10.3102 22.2016 10.8035 21.2327C9.86661 20.8828 8.96233 20.451 8.10115 19.9425C8.3278 19.7781 8.54947 19.6088 8.76366 19.4444C11.2695 20.6228 14.0045 21.2338 16.7736 21.2338C19.5427 21.2338 22.2777 20.6228 24.7835 19.4444C25.0002 19.6212 25.2219 19.7906 25.446 19.9425C24.5832 20.4519 23.6773 20.8844 22.7387 21.2352C23.2314 22.2037 23.8055 23.1285 24.4548 23.9998C27.3383 23.1303 30.0505 21.7705 32.4722 19.9799C33.1297 13.1605 31.3489 7.25016 27.7648 2.00983ZM11.5133 16.361C9.9517 16.361 8.66155 14.9438 8.66155 13.2003C8.66155 11.4569 9.90687 10.0272 11.5084 10.0272C13.1098 10.0272 14.39 11.4569 14.3626 13.2003C14.3352 14.9438 13.1049 16.361 11.5133 16.361ZM22.0338 16.361C20.4697 16.361 19.1845 14.9438 19.1845 13.2003C19.1845 11.4569 20.4299 10.0272 22.0338 10.0272C23.6378 10.0272 24.9081 11.4569 24.8807 13.2003C24.8533 14.9438 23.6254 16.361 22.0338 16.361Z" fill="#7a7a7a"/>
</svg>
