<svg width="25" height="18" viewBox="0 0 25 18" fill="none" xmlns="http://www.w3.org/2000/svg">
<path d="M10.8185 14.4467C11.1935 14.4467 11.531 14.7467 11.531 15.1592C11.531 15.5342 11.231 15.8717 10.8185 15.8717C10.4435 15.8717 10.106 15.5717 10.106 15.1592C10.106 14.7467 10.4435 14.4467 10.8185 14.4467ZM21.8435 10.0967C21.4685 10.0967 21.131 9.7967 21.131 9.3842C21.131 9.0092 21.431 8.67169 21.8435 8.67169C22.2185 8.67169 22.556 8.9717 22.556 9.3842C22.556 9.7592 22.2185 10.0967 21.8435 10.0967ZM21.8435 7.2092C20.6435 7.2092 19.6685 8.1842 19.6685 9.3842C19.6685 9.6092 19.706 9.8342 19.781 10.0592L12.6185 13.8842C12.206 13.2842 11.531 12.9467 10.8185 12.9467C9.99348 12.9467 9.24349 13.4342 8.86849 14.1467L2.41849 10.7717C1.74349 10.3967 1.21849 9.30919 1.29349 8.2592C1.33099 7.73419 1.51848 7.32169 1.78098 7.17169C1.96848 7.0592 2.15599 7.09669 2.41849 7.2092L2.45599 7.2467C4.18098 8.1467 9.76849 11.0717 9.99349 11.1842C10.3685 11.3342 10.556 11.4092 11.1935 11.1092L22.7435 5.10919C22.931 5.03419 23.1185 4.88419 23.1185 4.6217C23.1185 4.28419 22.781 4.13419 22.781 4.13419C22.106 3.83419 21.0935 3.34669 20.1185 2.89669C18.0185 1.92169 15.6185 0.796695 14.5685 0.234195C13.6685 -0.253305 12.9185 0.159195 12.806 0.234195L12.5435 0.346695C7.78099 2.74669 1.48099 5.8592 1.10599 6.0842C0.468485 6.4592 0.0559851 7.24669 0.0184851 8.22169C-0.0565149 9.75919 0.730985 11.3717 1.85599 11.9342L8.68099 15.4592C8.83099 16.5092 9.76849 17.3342 10.8185 17.3342C12.0185 17.3342 12.956 16.3967 12.9935 15.1967L20.4935 11.1467C20.8685 11.4467 21.356 11.5967 21.8435 11.5967C23.0435 11.5967 24.0185 10.6217 24.0185 9.42169C24.0185 8.18419 23.0435 7.2092 21.8435 7.2092Z" fill="white"/>
</svg>
