<svg width="25" height="24" viewBox="0 0 25 24" fill="none" xmlns="http://www.w3.org/2000/svg">
<path fill-rule="evenodd" clip-rule="evenodd" d="M12.9817 -0.00012207C19.6047 -0.00012207 24.9817 5.37691 24.9817 11.9999C24.9817 18.6228 19.6047 23.9999 12.9817 23.9999C6.35872 23.9999 0.981689 18.6228 0.981689 11.9999C0.981689 5.37691 6.35872 -0.00012207 12.9817 -0.00012207ZM19.9866 18.3242V18.088L18.8903 17.0116C18.7935 16.9378 18.7455 16.8165 18.7655 16.6965V8.78782C18.7455 8.66777 18.7935 8.5465 18.8903 8.47272L20.0129 7.39638V7.16008H16.1264L13.3559 14.0712L10.2046 7.16008H6.12767V7.39638L7.44074 8.97813C7.56969 9.09428 7.63546 9.26496 7.61797 9.4376V15.653C7.65617 15.8771 7.58553 16.1062 7.42766 16.2699L5.95044 18.0617V18.2979H10.139V18.0617L8.66183 16.2699C8.50274 16.1066 8.42769 15.879 8.4583 15.653V10.2777L12.1348 18.2979H12.5615L15.7194 10.2777V16.6703C15.7194 16.8409 15.7194 16.8738 15.6077 16.9853L14.472 18.088V18.3242H19.9866Z" fill="#7a7a7a"/>
</svg>
