<svg width="30" height="24" viewBox="0 0 30 24" fill="none" xmlns="http://www.w3.org/2000/svg">
<path d="M26.9758 5.85783C26.9935 6.11313 26.9935 6.36842 26.9935 6.62607C26.9935 14.4767 21.017 23.5308 10.0887 23.5308V23.5261C6.86051 23.5308 3.69934 22.6061 0.981689 20.8625C1.4511 20.919 1.92287 20.9472 2.39581 20.9484C5.0711 20.9508 7.66992 20.0531 9.77463 18.4002C7.23228 18.352 5.00287 16.6943 4.22404 14.2743C5.11463 14.4461 6.03228 14.4108 6.9064 14.172C4.13463 13.612 2.14051 11.1767 2.14051 8.34842V8.27313C2.9664 8.73313 3.8911 8.98842 4.83698 9.01666C2.2264 7.27195 1.42169 3.79901 2.99816 1.08372C6.01463 4.79548 10.4652 7.05195 15.2429 7.29078C14.764 5.22725 15.4182 3.06489 16.9617 1.6143C19.3546 -0.635108 23.1182 -0.519813 25.3676 1.87195C26.6982 1.6096 27.9735 1.12136 29.1405 0.429598C28.697 1.80489 27.7687 2.97313 26.5287 3.71548C27.7064 3.57666 28.857 3.26136 29.9405 2.78019C29.1429 3.97548 28.1382 5.01666 26.9758 5.85783Z" fill="#7a7a7a"/>
</svg>
