<svg width="14" height="15" viewBox="0 0 14 15" fill="none" xmlns="http://www.w3.org/2000/svg">
<path d="M12 0.25C13.0938 0.25 14 1.15625 14 2.25V12.25C14 13.375 13.0938 14.25 12 14.25H2C0.875 14.25 0 13.375 0 12.25V2.25C0 1.15625 0.875 0.25 2 0.25H12ZM5 3.75C4.5625 3.75 4.25 4.09375 4.25 4.5C4.25 4.9375 4.5625 5.25 5 5.25H7.9375L3.71875 9.46875C3.40625 9.78125 3.40625 10.25 3.71875 10.5312C4 10.8438 4.46875 10.8438 4.75 10.5312L8.96875 6.3125V9.5C8.96875 9.9375 9.3125 10.25 9.71875 10.25C10.1562 10.25 10.4688 9.9375 10.4688 9.5V4.5C10.4688 4.09375 10.1562 3.75 9.71875 3.75H5Z" fill="#C6C6C6"/>
</svg>
